SplineFontDB: 3.0
FontName: Fabrik
FullName: FabrikNormal
FamilyName: Fabrik
Weight: Book
Copyright: OFL Open Font License
Version: Version 1.5 (20.02.2
ItalicAngle: 0
UnderlinePosition: -125
UnderlineWidth: 50
Ascent: 800
Descent: 200
sfntRevision: 0x00010148
LayerCount: 2
Layer: 0 1 "Back"  1
Layer: 1 1 "Fore"  0
XUID: [1021 762 1595768995 4709029]
FSType: 0
OS2Version: 3
OS2_WeightWidthSlopeOnly: 0
OS2_UseTypoMetrics: 1
CreationTime: 1266670483
ModificationTime: 1408697700
PfmFamily: 17
TTFWeight: 400
TTFWidth: 5
LineGap: 29
VLineGap: 0
Panose: 2 0 5 3 0 0 0 0 0 0
OS2TypoAscent: 782
OS2TypoAOffset: 0
OS2TypoDescent: -201
OS2TypoDOffset: 0
OS2TypoLinegap: 58
OS2WinAscent: 972
OS2WinAOffset: 0
OS2WinDescent: 201
OS2WinDOffset: 0
HheadAscent: 972
HheadAOffset: 0
HheadDescent: -201
HheadDOffset: 0
OS2SubXSize: 650
OS2SubYSize: 699
OS2SubXOff: 0
OS2SubYOff: 140
OS2SupXSize: 650
OS2SupYSize: 699
OS2SupXOff: 0
OS2SupYOff: 479
OS2StrikeYSize: 50
OS2StrikeYPos: 250
OS2Vendor: 'PfEd'
OS2CodePages: 00000001.00000000
OS2UnicodeRanges: 8000004f.40000002.00000000.00000000
Lookup: 258 0 0 "'kern' Horizontal Kerning in Latin lookup 0"  {"'kern' Horizontal Kerning in Latin lookup 0 subtable"  } ['kern' ('latn' <'dflt' > ) ]
MarkAttachClasses: 1
DEI: 91125
TtTable: prep
PUSHW_1
 0
CALL
SVTCA[y-axis]
PUSHW_3
 1
 2
 2
CALL
SVTCA[x-axis]
PUSHW_3
 3
 3
 2
CALL
SVTCA[x-axis]
PUSHW_8
 3
 68
 54
 42
 31
 18
 0
 8
CALL
PUSHW_8
 4
 64
 54
 42
 27
 18
 0
 8
CALL
PUSHW_8
 5
 48
 39
 31
 27
 18
 0
 8
CALL
SVTCA[y-axis]
PUSHW_8
 1
 69
 54
 42
 31
 18
 0
 8
CALL
PUSHW_8
 2
 63
 54
 42
 27
 18
 0
 8
CALL
SVTCA[y-axis]
PUSHW_3
 6
 4
 7
CALL
PUSHW_1
 0
DUP
RCVT
RDTG
ROUND[Black]
RTG
WCVTP
EndTTInstrs
TtTable: fpgm
PUSHW_1
 0
FDEF
MPPEM
PUSHW_1
 8
LT
IF
PUSHB_2
 1
 1
INSTCTRL
EIF
PUSHW_1
 511
SCANCTRL
PUSHW_1
 68
SCVTCI
PUSHW_2
 8
 3
SDS
SDB
ENDF
PUSHW_1
 1
FDEF
DUP
DUP
RCVT
ROUND[Black]
WCVTP
PUSHB_1
 1
ADD
ENDF
PUSHW_1
 2
FDEF
PUSHW_1
 1
LOOPCALL
POP
ENDF
PUSHW_1
 3
FDEF
DUP
GC[cur]
PUSHB_1
 3

StartChar: .notdef
Encoding: 65536 -1 0
Width: 342
Flags: W
LayerCount: 2
Fore
SplineSet
39 0 m 1,0,-1
 39 666 l 1,1,-1
 304 666 l 1,2,-1
 304 0 l 1,3,-1
 39 0 l 1,4,-1
 39 0 l 1,0,-1
72 33 m 1,5,-1
 271 33 l 1,6,-1
 271 633 l 1,7,-1
 72 633 l 1,8,-1
 72 33 l 1,9,-1
 72 33 l 1,5,-1
EndSplineSet
EndChar

StartChar: exclam
Encoding: 33 33 4
Width: 163
GlyphClass: 2
Flags: W
LayerCount: 2
Fore
SplineSet
44 693 m 1,0,-1
 125 693 l 1,1,-1
 125 252 l 1,2,-1
 45 252 l 1,3,-1
 44 693 l 1,0,-1
22 60 m 256,4,5
 22 86 22 86 38.5 102 c 128,-1,6
 55 118 55 118 81 118 c 0,7,8
 105 118 105 118 121.5 102.5 c 128,-1,9
 138 87 138 87 138 62 c 0,10,11
 138 36 138 36 122 18.5 c 128,-1,12
 106 1 106 1 80 1 c 256,13,14
 54 1 54 1 38 17.5 c 128,-1,15
 22 34 22 34 22 60 c 256,4,5
EndSplineSet
EndChar

StartChar: quotedbl
Encoding: 34 34 5
Width: 347
GlyphClass: 2
Flags: W
LayerCount: 2
Fore
SplineSet
252 558 m 1,0,1
 249 572 249 572 241 591 c 128,-1,2
 233 610 233 610 224.5 629.5 c 128,-1,3
 216 649 216 649 210 667.5 c 128,-1,4
 204 686 204 686 204 699 c 0,5,6
 204 724 204 724 220.5 740 c 128,-1,7
 237 756 237 756 261 756 c 0,8,9
 287 756 287 756 302.5 739 c 128,-1,10
 318 722 318 722 318 696 c 0,11,12
 318 680 318 680 311 661 c 128,-1,13
 304 642 304 642 293.5 623.5 c 128,-1,14
 283 605 283 605 272 587.5 c 128,-1,15
 261 570 261 570 252 558 c 1,0,1
78 558 m 1,16,17
 75 572 75 572 67 591 c 128,-1,18
 59 610 59 610 50.5 629.5 c 128,-1,19
 42 649 42 649 36 667.5 c 128,-1,20
 30 686 30 686 30 699 c 0,21,22
 30 724 30 724 46.5 740 c 128,-1,23
 63 756 63 756 87 756 c 0,24,25
 113 756 113 756 128.5 739 c 128,-1,26
 144 722 144 722 144 696 c 0,27,28
 144 680 144 680 137 661 c 128,-1,29
 130 642 130 642 119.5 623.5 c 128,-1,30
 109 605 109 605 98 587.5 c 128,-1,31
 87 570 87 570 78 558 c 1,16,17
EndSplineSet
EndChar

StartChar: numbersign
Encoding: 35 35 6
Width: 411
GlyphClass: 2
Flags: W
LayerCount: 2
Fore
SplineSet
83 620 m 1,0,-1
 160 620 l 1,1,-1
 160 480 l 1,2,-1
 250 480 l 1,3,-1
 250 620 l 1,4,-1
 328 620 l 1,5,-1
 328 480 l 1,6,-1
 386 480 l 1,7,-1
 386 389 l 1,8,-1
 328 389 l 1,9,-1
 328 306 l 1,10,-1
 386 306 l 1,11,-1
 386 219 l 1,12,-1
 328 219 l 1,13,-1
 328 70 l 1,14,-1
 250 70 l 1,15,-1
 250 219 l 1,16,-1
 160 219 l 1,17,-1
 160 70 l 1,18,-1
 83 70 l 1,19,-1
 83 219 l 1,20,-1
 25 219 l 1,21,-1
 25 306 l 1,22,-1
 83 306 l 1,23,-1
 83 390 l 1,24,-1
 25 390 l 1,25,-1
 25 480 l 1,26,-1
 83 480 l 1,27,-1
 83 620 l 1,28,-1
 83 620 l 1,0,-1
160 389 m 1,29,-1
 160 306 l 1,30,-1
 250 306 l 1,31,-1
 250 389 l 1,32,-1
 160 389 l 1,33,-1
 160 389 l 1,29,-1
EndSplineSet
EndChar

StartChar: dollar
Encoding: 36 36 7
Width: 430
GlyphClass: 2
Flags: W
LayerCount: 2
Fore
SplineSet
178 750 m 1,0,-1
 253 750 l 1,1,-1
 241 682 l 1,2,3
 273 682 273 682 302 671.5 c 128,-1,4
 331 661 331 661 354 640 c 1,5,-1
 314 578 l 1,6,7
 294 592 294 592 269.5 601 c 128,-1,8
 245 610 245 610 220 610 c 0,9,10
 206 610 206 610 188.5 604.5 c 128,-1,11
 171 599 171 599 156 588.5 c 128,-1,12
 141 578 141 578 130.5 564 c 128,-1,13
 120 550 120 550 120 534 c 0,14,15
 120 495 120 495 142 471.5 c 128,-1,16
 164 448 164 448 196.5 431.5 c 128,-1,17
 229 415 229 415 267.5 401 c 128,-1,18
 306 387 306 387 338.5 367 c 128,-1,19
 371 347 371 347 393 316.5 c 128,-1,20
 415 286 415 286 415 237 c 0,21,22
 415 156 415 156 371.5 103 c 128,-1,23
 328 50 328 50 250 31 c 1,24,-1
 258 -30 l 1,25,-1
 183 -30 l 1,26,-1
 190 27 l 1,27,28
 140 30 140 30 96.5 54.5 c 128,-1,29
 53 79 53 79 16 111 c 1,30,-1
 56 180 l 1,31,32
 85 151 85 151 122.5 130 c 128,-1,33
 160 109 160 109 202 109 c 0,34,35
 226 109 226 109 249 118 c 128,-1,36
 272 127 272 127 290 143 c 128,-1,37
 308 159 308 159 318.5 180.5 c 128,-1,38
 329 202 329 202 329 228 c 0,39,40
 329 255 329 255 316.5 273 c 128,-1,41
 304 291 304 291 283 304 c 128,-1,42
 262 317 262 317 236 326.5 c 128,-1,43
 210 336 210 336 182 347 c 128,-1,44
 154 358 154 358 128 372 c 128,-1,45
 102 386 102 386 81 408 c 128,-1,46
 60 430 60 430 47.5 461 c 128,-1,47
 35 492 35 492 35 537 c 0,48,49
 35 569 35 569 48.5 594.5 c 128,-1,50
 62 620 62 620 84 638 c 128,-1,51
 106 656 106 656 134 667 c 128,-1,52
 162 678 162 678 191 682 c 1,53,-1
 178 750 l 1,0,-1
EndSplineSet
EndChar

StartChar: percent
Encoding: 37 37 8
Width: 554
GlyphClass: 2
Flags: W
LayerCount: 2
Fore
SplineSet
109 468 m 0,0,1
 109 451 109 451 122 440.5 c 128,-1,2
 135 430 135 430 151 430 c 0,3,4
 168 430 168 430 180 441 c 128,-1,5
 192 452 192 452 192 469 c 0,6,7
 192 489 192 489 182.5 501.5 c 128,-1,8
 173 514 173 514 151 514 c 0,9,10
 130 514 130 514 119.5 501 c 128,-1,11
 109 488 109 488 109 468 c 0,0,1
42 472 m 0,12,13
 42 518 42 518 71.5 545 c 128,-1,14
 101 572 101 572 146 572 c 0,15,16
 168 572 168 572 189 565 c 128,-1,17
 210 558 210 558 226 544.5 c 128,-1,18
 242 531 242 531 251.5 512 c 128,-1,19
 261 493 261 493 261 469 c 0,20,21
 261 421 261 421 228.5 392.5 c 128,-1,22
 196 364 196 364 149 364 c 0,23,24
 101 364 101 364 71.5 394 c 128,-1,25
 42 424 42 424 42 472 c 0,12,13
414 119 m 0,26,27
 431 119 431 119 443.5 129.5 c 128,-1,28
 456 140 456 140 456 157 c 0,29,30
 456 177 456 177 447 190 c 128,-1,31
 438 203 438 203 415 203 c 0,32,33
 400 203 400 203 386.5 193 c 128,-1,34
 373 183 373 183 373 166 c 0,35,36
 373 146 373 146 382 132.5 c 128,-1,37
 391 119 391 119 414 119 c 0,26,27
306 160 m 0,38,39
 306 207 306 207 335 234 c 128,-1,40
 364 261 364 261 409 261 c 0,41,42
 431 261 431 261 452.5 253.5 c 128,-1,43
 474 246 474 246 490 232.5 c 128,-1,44
 506 219 506 219 516 200 c 128,-1,45
 526 181 526 181 526 157 c 256,46,47
 526 133 526 133 517 114 c 128,-1,48
 508 95 508 95 492.5 81 c 128,-1,49
 477 67 477 67 456.5 59.5 c 128,-1,50
 436 52 436 52 413 52 c 0,51,52
 365 52 365 52 335.5 82 c 128,-1,53
 306 112 306 112 306 160 c 0,38,39
464 559 m 1,54,-1
 521 500 l 1,55,-1
 88 52 l 1,56,-1
 31 111 l 1,57,-1
 464 559 l 1,54,-1
EndSplineSet
EndChar

StartChar: ampersand
Encoding: 38 38 9
Width: 540
GlyphClass: 2
Flags: W
LayerCount: 2
Fore
SplineSet
524 411 m 1,0,-1
 524 326 l 1,1,-1
 470 326 l 1,2,-1
 470 209 l 2,3,4
 470 163 470 163 451.5 123.5 c 128,-1,5
 433 84 433 84 401.5 54.5 c 128,-1,6
 370 25 370 25 329 8.5 c 128,-1,7
 288 -8 288 -8 243 -8 c 0,8,9
 199 -8 199 -8 159 9.5 c 128,-1,10
 119 27 119 27 89 57 c 128,-1,11
 59 87 59 87 41 126.5 c 128,-1,12
 23 166 23 166 23 210 c 0,13,14
 23 238 23 238 30 266 c 128,-1,15
 37 294 37 294 49.5 319.5 c 128,-1,16
 62 345 62 345 81 366.5 c 128,-1,17
 100 388 100 388 124 403 c 1,18,19
 118 417 118 417 113.5 431.5 c 128,-1,20
 109 446 109 446 109 461 c 0,21,22
 109 494 109 494 121 525 c 128,-1,23
 133 556 133 556 154 580 c 128,-1,24
 175 604 175 604 204 618 c 128,-1,25
 233 632 233 632 268 632 c 0,26,27
 306 632 306 632 341 615.5 c 128,-1,28
 376 599 376 599 399 569 c 1,29,-1
 337 507 l 1,30,31
 326 523 326 523 311 534 c 128,-1,32
 296 545 296 545 276 545 c 0,33,34
 261 545 261 545 247 540.5 c 128,-1,35
 233 536 233 536 222 528 c 128,-1,36
 211 520 211 520 204 507.5 c 128,-1,37
 197 495 197 495 197 479 c 0,38,39
 197 445 197 445 209.5 428 c 128,-1,40
 222 411 222 411 259 411 c 2,41,-1
 524 411 l 1,0,-1
241 326 m 1,42,-1
 164 325 l 2,43,44
 150 325 150 325 139.5 311 c 128,-1,45
 129 297 129 297 121.5 278.5 c 128,-1,46
 114 260 114 260 110 240.5 c 128,-1,47
 106 221 106 221 106 210 c 0,48,49
 106 181 106 181 117.5 156.5 c 128,-1,50
 129 132 129 132 148.5 113.5 c 128,-1,51
 168 95 168 95 193.5 84.5 c 128,-1,52
 219 74 219 74 247 74 c 0,53,54
 272 74 272 74 297 84.5 c 128,-1,55
 322 95 322 95 342 112.5 c 128,-1,56
 362 130 362 130 374.5 153.5 c 128,-1,57
 387 177 387 177 387 203 c 2,58,-1
 387 326 l 1,59,-1
 241 326 l 1,42,-1
EndSplineSet
EndChar

StartChar: quotesingle
Encoding: 39 39 10
Width: 151
GlyphClass: 2
Flags: W
LayerCount: 2
Fore
SplineSet
74 504 m 1,0,1
 53 535 53 535 36.5 571 c 128,-1,2
 20 607 20 607 20 645 c 0,3,4
 20 670 20 670 36 686 c 128,-1,5
 52 702 52 702 77 702 c 0,6,7
 103 702 103 702 117.5 685.5 c 128,-1,8
 132 669 132 669 132 645 c 0,9,10
 132 627 132 627 126.5 608.5 c 128,-1,11
 121 590 121 590 113 571.5 c 128,-1,12
 105 553 105 553 94.5 535.5 c 128,-1,13
 84 518 84 518 74 504 c 1,0,1
EndSplineSet
EndChar

StartChar: parenleft
Encoding: 40 40 11
Width: 243
GlyphClass: 2
Flags: W
LayerCount: 2
Fore
SplineSet
21 148 m 2,0,-1
 21 502 l 2,1,2
 21 547 21 547 35.5 588.5 c 128,-1,3
 50 630 50 630 75 665.5 c 128,-1,4
 100 701 100 701 134.5 729 c 128,-1,5
 169 757 169 757 210 775 c 1,6,-1
 210 672 l 1,7,8
 165 643 165 643 140 601 c 128,-1,9
 115 559 115 559 115 505 c 2,10,-1
 115 148 l 2,11,12
 115 92 115 92 138 48.5 c 128,-1,13
 161 5 161 5 209 -24 c 1,14,-1
 209 -136 l 1,15,16
 123 -93 123 -93 72 -21 c 128,-1,17
 21 51 21 51 21 148 c 2,0,-1
EndSplineSet
EndChar

StartChar: parenright
Encoding: 41 41 12
Width: 245
GlyphClass: 2
Flags: W
LayerCount: 2
Fore
SplineSet
224 150 m 2,0,1
 224 103 224 103 210 60.5 c 128,-1,2
 196 18 196 18 171 -19 c 128,-1,3
 146 -56 146 -56 111.5 -85 c 128,-1,4
 77 -114 77 -114 35 -134 c 1,5,-1
 35 -22 l 1,6,7
 129 38 129 38 129 150 c 2,8,-1
 129 507 l 2,9,10
 129 561 129 561 104.5 603.5 c 128,-1,11
 80 646 80 646 35 675 c 1,12,-1
 35 778 l 1,13,14
 120 740 120 740 172 670 c 128,-1,15
 224 600 224 600 224 505 c 2,16,-1
 224 150 l 2,0,1
EndSplineSet
EndChar

StartChar: asterisk
Encoding: 42 42 13
Width: 213
GlyphClass: 2
Flags: W
LayerCount: 2
Fore
SplineSet
85 768 m 1,0,-1
 128 768 l 1,1,-1
 128 708 l 1,2,-1
 184 726 l 1,3,-1
 197 686 l 1,4,-1
 140 667 l 1,5,-1
 175 619 l 1,6,-1
 141 594 l 1,7,-1
 106 642 l 1,8,-1
 71 594 l 1,9,-1
 37 619 l 1,10,-1
 72 667 l 1,11,-1
 15 686 l 1,12,-1
 28 726 l 1,13,-1
 85 707 l 1,14,-1
 85 768 l 1,15,-1
 85 768 l 1,0,-1
EndSplineSet
EndChar

StartChar: plus
Encoding: 43 43 14
Width: 382
GlyphClass: 2
Flags: W
LayerCount: 2
Fore
SplineSet
374 321 m 1,0,-1
 233 321 l 1,1,-1
 233 160 l 1,2,-1
 152 160 l 1,3,-1
 152 320 l 1,4,-1
 7 320 l 1,5,-1
 7 398 l 1,6,-1
 152 398 l 1,7,-1
 152 549 l 1,8,-1
 232 549 l 1,9,-1
 232 401 l 1,10,-1
 374 401 l 1,11,-1
 374 321 l 1,12,-1
 374 321 l 1,0,-1
EndSplineSet
EndChar

StartChar: comma
Encoding: 44 44 15
Width: 148
GlyphClass: 2
Flags: W
LayerCount: 2
Fore
SplineSet
19 69 m 0,0,1
 19 94 19 94 35.5 110 c 128,-1,2
 52 126 52 126 76 126 c 0,3,4
 102 126 102 126 117.5 109 c 128,-1,5
 133 92 133 92 133 66 c 0,6,7
 133 45 133 45 124.5 27 c 128,-1,8
 116 9 116 9 102 -6 c 128,-1,9
 88 -21 88 -21 71 -33 c 128,-1,10
 54 -45 54 -45 38 -54 c 1,11,12
 48 -42 48 -42 59.5 -19 c 128,-1,13
 71 4 71 4 71 20 c 0,14,15
 71 28 71 28 64.5 27.5 c 128,-1,16
 58 27 58 27 53 27 c 0,17,18
 37 27 37 27 28 41 c 128,-1,19
 19 55 19 55 19 69 c 0,0,1
EndSplineSet
EndChar

StartChar: hyphen
Encoding: 45 45 16
Width: 367
GlyphClass: 2
Flags: W
LayerCount: 2
Fore
SplineSet
328 222 m 1,0,-1
 39 222 l 1,1,-1
 39 303 l 1,2,-1
 328 303 l 1,3,-1
 328 222 l 1,4,-1
 328 222 l 1,0,-1
EndSplineSet
EndChar

StartChar: period
Encoding: 46 46 17
Width: 166
GlyphClass: 2
Flags: W
LayerCount: 2
Fore
SplineSet
25 60 m 256,0,1
 25 86 25 86 41.5 102 c 128,-1,2
 58 118 58 118 84 118 c 0,3,4
 108 118 108 118 124.5 102.5 c 128,-1,5
 141 87 141 87 141 62 c 0,6,7
 141 36 141 36 125 18.5 c 128,-1,8
 109 1 109 1 83 1 c 256,9,10
 57 1 57 1 41 17.5 c 128,-1,11
 25 34 25 34 25 60 c 256,0,1
EndSplineSet
EndChar

StartChar: slash
Encoding: 47 47 18
Width: 362
GlyphClass: 2
Flags: W
LayerCount: 2
Fore
SplineSet
89 0 m 1,0,-1
 4 0 l 1,1,-1
 278 704 l 1,2,-1
 358 704 l 1,3,-1
 89 0 l 1,4,-1
 89 0 l 1,0,-1
EndSplineSet
EndChar

StartChar: zero
Encoding: 48 48 19
Width: 575
GlyphClass: 2
Flags: W
LayerCount: 2
Fore
SplineSet
288 638 m 256,0,1
 229 638 229 638 195 610.5 c 128,-1,2
 161 583 161 583 143.5 541 c 128,-1,3
 126 499 126 499 121 449.5 c 128,-1,4
 116 400 116 400 116 355 c 256,5,6
 116 310 116 310 121 260.5 c 128,-1,7
 126 211 126 211 143.5 169 c 128,-1,8
 161 127 161 127 195 99.5 c 128,-1,9
 229 72 229 72 288 72 c 256,10,11
 347 72 347 72 381 99.5 c 128,-1,12
 415 127 415 127 432 169 c 128,-1,13
 449 211 449 211 453.5 260.5 c 128,-1,14
 458 310 458 310 458 355 c 0,15,16
 458 399 458 399 453.5 449 c 128,-1,17
 449 499 449 499 432 541 c 128,-1,18
 415 583 415 583 381 610.5 c 128,-1,19
 347 638 347 638 288 638 c 256,0,1
288 -10 m 0,20,21
 207 -10 207 -10 156.5 22.5 c 128,-1,22
 106 55 106 55 77.5 107 c 128,-1,23
 49 159 49 159 39 224.5 c 128,-1,24
 29 290 29 290 29 355 c 256,25,26
 29 420 29 420 39.5 485 c 128,-1,27
 50 550 50 550 78.5 602.5 c 128,-1,28
 107 655 107 655 157.5 687.5 c 128,-1,29
 208 720 208 720 288 720 c 0,30,31
 367 720 367 720 417.5 687 c 128,-1,32
 468 654 468 654 496.5 601.5 c 128,-1,33
 525 549 525 549 535.5 484 c 128,-1,34
 546 419 546 419 546 355 c 0,35,36
 546 290 546 290 535.5 225 c 128,-1,37
 525 160 525 160 496.5 108 c 128,-1,38
 468 56 468 56 417.5 23 c 128,-1,39
 367 -10 367 -10 288 -10 c 0,20,21
EndSplineSet
EndChar

StartChar: one
Encoding: 49 49 20
Width: 207
GlyphClass: 2
Flags: W
LayerCount: 2
Fore
SplineSet
90 510 m 1,0,-1
 65 484 l 1,1,-1
 1 541 l 1,2,-1
 170 725 l 1,3,-1
 170 0 l 1,4,-1
 90 0 l 1,5,-1
 90 510 l 1,6,-1
 90 510 l 1,0,-1
EndSplineSet
EndChar

StartChar: two
Encoding: 50 50 21
Width: 477
GlyphClass: 2
Flags: W
LayerCount: 2
Fore
SplineSet
260 626 m 0,0,1
 240 626 240 626 223.5 618.5 c 128,-1,2
 207 611 207 611 192.5 599.5 c 128,-1,3
 178 588 178 588 166 573 c 128,-1,4
 154 558 154 558 144 543 c 1,5,-1
 95 601 l 1,6,7
 112 622 112 622 129.5 641.5 c 128,-1,8
 147 661 147 661 167 676 c 128,-1,9
 187 691 187 691 210.5 699.5 c 128,-1,10
 234 708 234 708 263 708 c 0,11,12
 345 708 345 708 393 659 c 128,-1,13
 441 610 441 610 441 528 c 0,14,15
 441 499 441 499 431 471 c 128,-1,16
 421 443 421 443 406 416.5 c 128,-1,17
 391 390 391 390 373.5 365.5 c 128,-1,18
 356 341 356 341 340 318 c 2,19,-1
 175 81 l 1,20,-1
 452 81 l 1,21,-1
 452 0 l 1,22,-1
 17 0 l 1,23,-1
 298 397 l 2,24,25
 309 413 309 413 321.5 429 c 128,-1,26
 334 445 334 445 344 462 c 128,-1,27
 354 479 354 479 360.5 497.5 c 128,-1,28
 367 516 367 516 367 536 c 0,29,30
 367 558 367 558 358 575 c 128,-1,31
 349 592 349 592 334 603.5 c 128,-1,32
 319 615 319 615 300 620.5 c 128,-1,33
 281 626 281 626 260 626 c 0,0,1
EndSplineSet
EndChar

StartChar: three
Encoding: 51 51 22
Width: 478
GlyphClass: 2
Flags: W
LayerCount: 2
Fore
SplineSet
348 207 m 0,0,1
 348 264 348 264 329.5 295.5 c 128,-1,2
 311 327 311 327 280.5 341.5 c 128,-1,3
 250 356 250 356 209 358.5 c 128,-1,4
 168 361 168 361 123 361 c 1,5,-1
 309 615 l 1,6,-1
 47 615 l 1,7,-1
 47 692 l 1,8,-1
 454 692 l 1,9,-1
 258 420 l 1,10,11
 347 406 347 406 389 351.5 c 128,-1,12
 431 297 431 297 431 209 c 0,13,14
 431 150 431 150 414.5 108 c 128,-1,15
 398 66 398 66 366.5 39 c 128,-1,16
 335 12 335 12 290 -0.5 c 128,-1,17
 245 -13 245 -13 189 -13 c 0,18,19
 143 -13 143 -13 100.5 2 c 128,-1,20
 58 17 58 17 21 43 c 1,21,-1
 69 111 l 1,22,23
 98 94 98 94 129.5 82.5 c 128,-1,24
 161 71 161 71 195 71 c 256,25,26
 229 71 229 71 257.5 78.5 c 128,-1,27
 286 86 286 86 306 102.5 c 128,-1,28
 326 119 326 119 337 144.5 c 128,-1,29
 348 170 348 170 348 207 c 0,0,1
EndSplineSet
EndChar

StartChar: four
Encoding: 52 52 23
Width: 497
GlyphClass: 2
Flags: W
LayerCount: 2
Fore
SplineSet
372 720 m 1,0,-1
 433 676 l 1,1,-1
 147 237 l 1,2,-1
 312 237 l 1,3,-1
 312 362 l 1,4,-1
 391 490 l 1,5,-1
 391 238 l 1,6,-1
 476 238 l 1,7,-1
 476 157 l 1,8,-1
 392 157 l 1,9,-1
 392 0 l 1,10,-1
 310 0 l 1,11,-1
 310 158 l 1,12,-1
 1 158 l 1,13,-1
 372 720 l 1,14,-1
 372 720 l 1,0,-1
EndSplineSet
EndChar

StartChar: five
Encoding: 53 53 24
Width: 420
GlyphClass: 2
Flags: W
LayerCount: 2
Fore
SplineSet
318 211 m 0,0,1
 318 254 318 254 304.5 281.5 c 128,-1,2
 291 309 291 309 268.5 325 c 128,-1,3
 246 341 246 341 216.5 348.5 c 128,-1,4
 187 356 187 356 155 358 c 128,-1,5
 123 360 123 360 90 359 c 128,-1,6
 57 358 57 358 28 358 c 1,7,-1
 69 696 l 1,8,-1
 348 696 l 1,9,-1
 348 617 l 1,10,-1
 140 617 l 1,11,-1
 115 431 l 1,12,13
 172 431 172 431 223.5 422 c 128,-1,14
 275 413 275 413 314 388.5 c 128,-1,15
 353 364 353 364 376.5 321 c 128,-1,16
 400 278 400 278 400 211 c 0,17,18
 400 161 400 161 384.5 120 c 128,-1,19
 369 79 369 79 340 50 c 128,-1,20
 311 21 311 21 270.5 5 c 128,-1,21
 230 -11 230 -11 180 -11 c 0,22,23
 138 -11 138 -11 99.5 2.5 c 128,-1,24
 61 16 61 16 29 43 c 1,25,-1
 91 106 l 1,26,27
 110 92 110 92 132.5 81.5 c 128,-1,28
 155 71 155 71 179 71 c 0,29,30
 209 71 209 71 234.5 81.5 c 128,-1,31
 260 92 260 92 278.5 110.5 c 128,-1,32
 297 129 297 129 307.5 155 c 128,-1,33
 318 181 318 181 318 211 c 0,0,1
EndSplineSet
EndChar

StartChar: six
Encoding: 54 54 25
Width: 474
GlyphClass: 2
Flags: W
LayerCount: 2
Fore
SplineSet
17 211 m 0,0,1
 17 238 17 238 25.5 264 c 128,-1,2
 34 290 34 290 46 314 c 2,3,-1
 242 713 l 1,4,-1
 326 713 l 1,5,-1
 179 421 l 1,6,7
 193 427 193 427 207.5 429.5 c 128,-1,8
 222 432 222 432 237 432 c 0,9,10
 283 432 283 432 323 415 c 128,-1,11
 363 398 363 398 393 368 c 128,-1,12
 423 338 423 338 440 297.5 c 128,-1,13
 457 257 457 257 457 211 c 256,14,15
 457 165 457 165 440 125 c 128,-1,16
 423 85 423 85 393 55 c 128,-1,17
 363 25 363 25 323 8 c 128,-1,18
 283 -9 283 -9 237 -9 c 256,19,20
 191 -9 191 -9 151 8 c 128,-1,21
 111 25 111 25 81 55 c 128,-1,22
 51 85 51 85 34 125 c 128,-1,23
 17 165 17 165 17 211 c 0,0,1
236 351 m 0,24,25
 174 351 174 351 134.5 313 c 128,-1,26
 95 275 95 275 95 212 c 0,27,28
 95 182 95 182 105.5 156 c 128,-1,29
 116 130 116 130 135 111 c 128,-1,30
 154 92 154 92 180 81.5 c 128,-1,31
 206 71 206 71 236 71 c 256,32,33
 266 71 266 71 291.5 81.5 c 128,-1,34
 317 92 317 92 336.5 110 c 128,-1,35
 356 128 356 128 367 153.5 c 128,-1,36
 378 179 378 179 378 209 c 0,37,38
 378 240 378 240 367.5 266 c 128,-1,39
 357 292 357 292 338 311 c 128,-1,40
 319 330 319 330 293 340.5 c 128,-1,41
 267 351 267 351 236 351 c 0,24,25
EndSplineSet
EndChar

StartChar: seven
Encoding: 55 55 26
Width: 439
GlyphClass: 2
Flags: W
LayerCount: 2
Fore
SplineSet
50 690 m 1,0,-1
 435 690 l 1,1,-1
 112 0 l 1,2,-1
 24 0 l 1,3,-1
 306 609 l 1,4,-1
 50 609 l 1,5,-1
 50 690 l 1,6,-1
 50 690 l 1,0,-1
EndSplineSet
EndChar

StartChar: eight
Encoding: 56 56 27
Width: 486
GlyphClass: 2
Flags: W
LayerCount: 2
Fore
SplineSet
385 376 m 1,0,1
 420 345 420 345 439.5 305 c 128,-1,2
 459 265 459 265 459 217 c 0,3,4
 459 171 459 171 442.5 131 c 128,-1,5
 426 91 426 91 397.5 61 c 128,-1,6
 369 31 369 31 329 14 c 128,-1,7
 289 -3 289 -3 243 -3 c 256,8,9
 197 -3 197 -3 158 14 c 128,-1,10
 119 31 119 31 90 60.5 c 128,-1,11
 61 90 61 90 44.5 130 c 128,-1,12
 28 170 28 170 28 215 c 0,13,14
 28 309 28 309 98 373 c 1,15,16
 44 430 44 430 44 509 c 0,17,18
 44 549 44 549 59.5 585 c 128,-1,19
 75 621 75 621 101.5 647 c 128,-1,20
 128 673 128 673 163.5 688.5 c 128,-1,21
 199 704 199 704 240 704 c 0,22,23
 280 704 280 704 315.5 688.5 c 128,-1,24
 351 673 351 673 377.5 647 c 128,-1,25
 404 621 404 621 419.5 585.5 c 128,-1,26
 435 550 435 550 435 510 c 0,27,28
 435 473 435 473 422.5 438.5 c 128,-1,29
 410 404 410 404 385 376 c 1,0,1
242 623 m 256,30,31
 219 623 219 623 198.5 614 c 128,-1,32
 178 605 178 605 163 589.5 c 128,-1,33
 148 574 148 574 139 553.5 c 128,-1,34
 130 533 130 533 130 510 c 256,35,36
 130 487 130 487 139 466.5 c 128,-1,37
 148 446 148 446 163 430 c 128,-1,38
 178 414 178 414 198.5 405 c 128,-1,39
 219 396 219 396 242 396 c 0,40,41
 266 396 266 396 286.5 405 c 128,-1,42
 307 414 307 414 322 430 c 128,-1,43
 337 446 337 446 346 466.5 c 128,-1,44
 355 487 355 487 355 510 c 256,45,46
 355 533 355 533 346 553.5 c 128,-1,47
 337 574 337 574 321.5 589.5 c 128,-1,48
 306 605 306 605 285.5 614 c 128,-1,49
 265 623 265 623 242 623 c 256,30,31
244 342 m 256,50,51
 216 342 216 342 192 331.5 c 128,-1,52
 168 321 168 321 150 303 c 128,-1,53
 132 285 132 285 121.5 260.5 c 128,-1,54
 111 236 111 236 111 208 c 256,55,56
 111 180 111 180 121.5 156 c 128,-1,57
 132 132 132 132 150 114 c 128,-1,58
 168 96 168 96 192 85.5 c 128,-1,59
 216 75 216 75 244 75 c 256,60,61
 272 75 272 75 296.5 85.5 c 128,-1,62
 321 96 321 96 339 114 c 128,-1,63
 357 132 357 132 367.5 156 c 128,-1,64
 378 180 378 180 378 208 c 256,65,66
 378 236 378 236 367.5 260.5 c 128,-1,67
 357 285 357 285 339 303 c 128,-1,68
 321 321 321 321 296.5 331.5 c 128,-1,69
 272 342 272 342 244 342 c 256,50,51
EndSplineSet
EndChar

StartChar: nine
Encoding: 57 57 28
Width: 441
GlyphClass: 2
Flags: W
LayerCount: 2
Fore
SplineSet
424 509 m 0,0,1
 424 493 424 493 422.5 477 c 128,-1,2
 421 461 421 461 415 447 c 2,3,-1
 216 0 l 1,4,-1
 132 0 l 1,5,-1
 275 314 l 1,6,7
 262 308 262 308 248 306 c 128,-1,8
 234 304 234 304 220 304 c 0,9,10
 177 304 177 304 140 320 c 128,-1,11
 103 336 103 336 75.5 363.5 c 128,-1,12
 48 391 48 391 32.5 428.5 c 128,-1,13
 17 466 17 466 17 509 c 0,14,15
 17 551 17 551 32.5 588.5 c 128,-1,16
 48 626 48 626 75.5 653.5 c 128,-1,17
 103 681 103 681 140 697 c 128,-1,18
 177 713 177 713 220 713 c 256,19,20
 263 713 263 713 300 697 c 128,-1,21
 337 681 337 681 364.5 653.5 c 128,-1,22
 392 626 392 626 408 589 c 128,-1,23
 424 552 424 552 424 509 c 0,0,1
345 508 m 0,24,25
 345 534 345 534 335.5 557 c 128,-1,26
 326 580 326 580 309.5 596.5 c 128,-1,27
 293 613 293 613 270 622.5 c 128,-1,28
 247 632 247 632 221 632 c 256,29,30
 195 632 195 632 172.5 623 c 128,-1,31
 150 614 150 614 133 597.5 c 128,-1,32
 116 581 116 581 106.5 558.5 c 128,-1,33
 97 536 97 536 97 510 c 256,34,35
 97 484 97 484 106.5 461 c 128,-1,36
 116 438 116 438 132.5 421.5 c 128,-1,37
 149 405 149 405 172 395.5 c 128,-1,38
 195 386 195 386 221 386 c 0,39,40
 275 386 275 386 310 419.5 c 128,-1,41
 345 453 345 453 345 508 c 0,24,25
EndSplineSet
EndChar

StartChar: colon
Encoding: 58 58 29
Width: 175
GlyphClass: 2
Flags: W
LayerCount: 2
Fore
SplineSet
30 409 m 0,0,1
 30 434 30 434 48 448.5 c 128,-1,2
 66 463 66 463 89 463 c 0,3,4
 113 463 113 463 130 449 c 128,-1,5
 147 435 147 435 147 410 c 0,6,7
 147 384 147 384 130 368 c 128,-1,8
 113 352 113 352 88 352 c 256,9,10
 63 352 63 352 46.5 367.5 c 128,-1,11
 30 383 30 383 30 409 c 0,0,1
29 75 m 256,12,13
 29 101 29 101 45.5 117 c 128,-1,14
 62 133 62 133 88 133 c 0,15,16
 113 133 113 133 129 117.5 c 128,-1,17
 145 102 145 102 145 77 c 0,18,19
 145 51 145 51 129 33.5 c 128,-1,20
 113 16 113 16 87 16 c 256,21,22
 61 16 61 16 45 32.5 c 128,-1,23
 29 49 29 49 29 75 c 256,12,13
EndSplineSet
EndChar

StartChar: semicolon
Encoding: 59 59 30
Width: 154
GlyphClass: 2
Flags: W
LayerCount: 2
Fore
SplineSet
133 416 m 0,0,1
 133 390 133 390 116.5 374 c 128,-1,2
 100 358 100 358 75 358 c 256,3,4
 50 358 50 358 33.5 373.5 c 128,-1,5
 17 389 17 389 17 414 c 0,6,7
 17 440 17 440 34 454.5 c 128,-1,8
 51 469 51 469 76 469 c 0,9,10
 99 469 99 469 116 455 c 128,-1,11
 133 441 133 441 133 416 c 0,0,1
22 92 m 0,12,13
 22 117 22 117 38.5 132 c 128,-1,14
 55 147 55 147 79 147 c 0,15,16
 105 147 105 147 120.5 130.5 c 128,-1,17
 136 114 136 114 136 88 c 0,18,19
 136 67 136 67 127.5 49 c 128,-1,20
 119 31 119 31 105.5 16 c 128,-1,21
 92 1 92 1 75 -11 c 128,-1,22
 58 -23 58 -23 41 -32 c 1,23,24
 46 -27 46 -27 52 -17.5 c 128,-1,25
 58 -8 58 -8 63 3 c 128,-1,26
 68 14 68 14 71.5 24.5 c 128,-1,27
 75 35 75 35 75 42 c 0,28,29
 75 50 75 50 69 49.5 c 128,-1,30
 63 49 63 49 58 49 c 0,31,32
 41 49 41 49 31.5 63 c 128,-1,33
 22 77 22 77 22 92 c 0,12,13
EndSplineSet
EndChar

StartChar: less
Encoding: 60 60 31
Width: 483
GlyphClass: 2
Flags: W
LayerCount: 2
Fore
SplineSet
446 596 m 1,0,-1
 446 516 l 1,1,-1
 153 371 l 1,2,-1
 441 216 l 1,3,-1
 441 136 l 1,4,-1
 1 374 l 1,5,-1
 446 596 l 1,6,-1
 446 596 l 1,0,-1
EndSplineSet
EndChar

StartChar: equal
Encoding: 61 61 32
Width: 523
GlyphClass: 2
Flags: W
LayerCount: 2
Fore
SplineSet
43 288 m 1,0,-1
 485 288 l 1,1,-1
 485 200 l 1,2,-1
 41 200 l 1,3,-1
 43 288 l 1,4,-1
 43 288 l 1,0,-1
39 526 m 1,5,-1
 481 526 l 1,6,-1
 481 438 l 1,7,-1
 41 438 l 1,8,-1
 39 526 l 1,9,-1
 39 526 l 1,5,-1
EndSplineSet
EndChar

StartChar: greater
Encoding: 62 62 33
Width: 482
GlyphClass: 2
Flags: W
LayerCount: 2
Fore
SplineSet
37 596 m 1,0,-1
 482 374 l 1,1,-1
 42 136 l 1,2,-1
 42 216 l 1,3,-1
 330 371 l 1,4,-1
 37 516 l 1,5,-1
 37 596 l 1,6,-1
 37 596 l 1,0,-1
EndSplineSet
EndChar

StartChar: question
Encoding: 63 63 34
Width: 380
GlyphClass: 2
Flags: W
LayerCount: 2
Fore
SplineSet
17 679 m 1,0,1
 49 717 49 717 92.5 733 c 128,-1,2
 136 749 136 749 185 749 c 0,3,4
 225 749 225 749 258.5 736 c 128,-1,5
 292 723 292 723 316.5 699 c 128,-1,6
 341 675 341 675 355 641.5 c 128,-1,7
 369 608 369 608 369 568 c 0,8,9
 369 519 369 519 348.5 486 c 128,-1,10
 328 453 328 453 300.5 425.5 c 128,-1,11
 273 398 273 398 246 371.5 c 128,-1,12
 219 345 219 345 207 310 c 0,13,14
 199 288 199 288 200.5 265.5 c 128,-1,15
 202 243 202 243 198 220 c 1,16,-1
 112 220 l 1,17,-1
 112 248 l 2,18,19
 112 290 112 290 125 323 c 128,-1,20
 138 356 138 356 157.5 382.5 c 128,-1,21
 177 409 177 409 199.5 430.5 c 128,-1,22
 222 452 222 452 241.5 472.5 c 128,-1,23
 261 493 261 493 274 513.5 c 128,-1,24
 287 534 287 534 287 558 c 0,25,26
 287 672 287 672 172 672 c 0,27,28
 148 672 148 672 133 668 c 128,-1,29
 118 664 118 664 106.5 656.5 c 128,-1,30
 95 649 95 649 84.5 637.5 c 128,-1,31
 74 626 74 626 59 610 c 1,32,-1
 17 679 l 1,0,1
155 0 m 0,33,34
 131 0 131 0 114 17.5 c 128,-1,35
 97 35 97 35 97 59 c 0,36,37
 97 84 97 84 113.5 101 c 128,-1,38
 130 118 130 118 155 118 c 256,39,40
 180 118 180 118 196.5 102 c 128,-1,41
 213 86 213 86 213 61 c 0,42,43
 213 37 213 37 196.5 18.5 c 128,-1,44
 180 0 180 0 155 0 c 0,33,34
EndSplineSet
EndChar

StartChar: at
Encoding: 64 64 35
Width: 632
GlyphClass: 2
Flags: W
LayerCount: 2
Fore
SplineSet
505 -88 m 1,0,1
 478 -106 478 -106 454.5 -118 c 128,-1,2
 431 -130 431 -130 407.5 -137 c 128,-1,3
 384 -144 384 -144 358 -146.5 c 128,-1,4
 332 -149 332 -149 300 -149 c 0,5,6
 243 -149 243 -149 193.5 -128 c 128,-1,7
 144 -107 144 -107 107 -69.5 c 128,-1,8
 70 -32 70 -32 48.5 18.5 c 128,-1,9
 27 69 27 69 27 129 c 0,10,11
 27 196 27 196 49 252 c 128,-1,12
 71 308 71 308 110 348 c 128,-1,13
 149 388 149 388 203 410 c 128,-1,14
 257 432 257 432 321 432 c 256,15,16
 385 432 385 432 438 413.5 c 128,-1,17
 491 395 491 395 528.5 359 c 128,-1,18
 566 323 566 323 586.5 270 c 128,-1,19
 607 217 607 217 607 148 c 0,20,21
 607 115 607 115 598 84.5 c 128,-1,22
 589 54 589 54 572 30.5 c 128,-1,23
 555 7 555 7 528.5 -6.5 c 128,-1,24
 502 -20 502 -20 468 -20 c 0,25,26
 443 -20 443 -20 416.5 -10 c 128,-1,27
 390 0 390 0 379 26 c 1,28,29
 363 12 363 12 345 7 c 128,-1,30
 327 2 327 2 307 2 c 0,31,32
 247 2 247 2 207.5 38.5 c 128,-1,33
 168 75 168 75 168 140 c 256,34,35
 168 205 168 205 203.5 247 c 128,-1,36
 239 289 239 289 302 289 c 0,37,38
 320 289 320 289 343.5 282.5 c 128,-1,39
 367 276 367 276 378 259 c 1,40,-1
 378 285 l 1,41,-1
 437 285 l 1,42,-1
 437 228 l 2,43,44
 437 202 437 202 433 178.5 c 128,-1,45
 429 155 429 155 429 129 c 0,46,47
 429 113 429 113 429.5 97 c 128,-1,48
 430 81 430 81 434.5 68.5 c 128,-1,49
 439 56 439 56 450 48 c 128,-1,50
 461 40 461 40 482 40 c 0,51,52
 502 40 502 40 515.5 50 c 128,-1,53
 529 60 529 60 536.5 75.5 c 128,-1,54
 544 91 544 91 547 109 c 128,-1,55
 550 127 550 127 550 144 c 0,56,57
 550 199 550 199 533.5 241.5 c 128,-1,58
 517 284 517 284 487 313 c 128,-1,59
 457 342 457 342 415 356.5 c 128,-1,60
 373 371 373 371 322 371 c 0,61,62
 213 371 213 371 151 307 c 128,-1,63
 89 243 89 243 89 129 c 0,64,65
 89 89 89 89 106.5 49.5 c 128,-1,66
 124 10 124 10 152.5 -21.5 c 128,-1,67
 181 -53 181 -53 218 -72.5 c 128,-1,68
 255 -92 255 -92 294 -92 c 0,69,70
 324 -92 324 -92 345 -91.5 c 128,-1,71
 366 -91 366 -91 384.5 -86.5 c 128,-1,72
 403 -82 403 -82 422 -73 c 128,-1,73
 441 -64 441 -64 467 -46 c 1,74,-1
 505 -88 l 1,0,1
227 144 m 0,75,76
 227 107 227 107 250.5 82 c 128,-1,77
 274 57 274 57 308 57 c 0,78,79
 350 57 350 57 364 82.5 c 128,-1,80
 378 108 378 108 378 145 c 0,81,82
 378 163 378 163 374.5 179 c 128,-1,83
 371 195 371 195 363 208 c 128,-1,84
 355 221 355 221 341.5 228.5 c 128,-1,85
 328 236 328 236 308 236 c 0,86,87
 272 236 272 236 249.5 208 c 128,-1,88
 227 180 227 180 227 144 c 0,75,76
EndSplineSet
EndChar

StartChar: A
Encoding: 65 65 36
Width: 658
GlyphClass: 2
Flags: W
LayerCount: 2
Fore
SplineSet
321 731 m 1,0,1
 403 548 403 548 483.5 366 c 128,-1,2
 564 184 564 184 645 0 c 1,3,-1
 560 -37 l 1,4,-1
 464 175 l 1,5,-1
 189 175 l 1,6,-1
 95 -37 l 1,7,-1
 13 0 l 1,8,9
 91 183 91 183 171 364 c 128,-1,10
 251 545 251 545 321 731 c 1,0,1
426 266 m 1,11,-1
 322 514 l 1,12,-1
 225 266 l 1,13,-1
 426 266 l 1,11,-1
EndSplineSet
EndChar

StartChar: B
Encoding: 66 66 37
Width: 491
GlyphClass: 2
Flags: W
LayerCount: 2
Fore
SplineSet
39 688 m 1,0,-1
 239 688 l 1,1,-1
 242 686 l 1,2,3
 278 686 278 686 309 674 c 128,-1,4
 340 662 340 662 363.5 640.5 c 128,-1,5
 387 619 387 619 400.5 589 c 128,-1,6
 414 559 414 559 414 522 c 0,7,8
 414 477 414 477 395 441.5 c 128,-1,9
 376 406 376 406 334 386 c 1,10,-1
 333 384 l 1,11,-1
 334 383 l 1,12,13
 371 383 371 383 396 363.5 c 128,-1,14
 421 344 421 344 437 314.5 c 128,-1,15
 453 285 453 285 460 250.5 c 128,-1,16
 467 216 467 216 467 186 c 0,17,18
 467 144 467 144 451 109.5 c 128,-1,19
 435 75 435 75 407.5 50.5 c 128,-1,20
 380 26 380 26 343.5 13 c 128,-1,21
 307 0 307 0 266 0 c 2,22,-1
 39 0 l 1,23,-1
 39 688 l 1,0,-1
126 319 m 1,24,-1
 126 80 l 1,25,-1
 279 80 l 2,26,27
 303 80 303 80 320.5 89 c 128,-1,28
 338 98 338 98 350 113 c 128,-1,29
 362 128 362 128 368 147.5 c 128,-1,30
 374 167 374 167 374 189 c 0,31,32
 374 212 374 212 367 235 c 128,-1,33
 360 258 360 258 346.5 276.5 c 128,-1,34
 333 295 333 295 313.5 306.5 c 128,-1,35
 294 318 294 318 268 318 c 1,36,-1
 268 319 l 1,37,-1
 126 319 l 1,24,-1
126 619 m 1,38,-1
 126 410 l 1,39,-1
 238 410 l 2,40,41
 257 410 257 410 273.5 419 c 128,-1,42
 290 428 290 428 301.5 442.5 c 128,-1,43
 313 457 313 457 319.5 475 c 128,-1,44
 326 493 326 493 326 511 c 0,45,46
 326 556 326 556 297.5 587 c 128,-1,47
 269 618 269 618 223 618 c 1,48,-1
 223 619 l 1,49,-1
 126 619 l 1,38,-1
EndSplineSet
EndChar

StartChar: C
Encoding: 67 67 38
Width: 657
GlyphClass: 2
Flags: W
LayerCount: 2
Fore
SplineSet
631 82 m 1,0,1
 580 34 580 34 517 8 c 128,-1,2
 454 -18 454 -18 384 -18 c 0,3,4
 309 -18 309 -18 243.5 11.5 c 128,-1,5
 178 41 178 41 129.5 91 c 128,-1,6
 81 141 81 141 53 207.5 c 128,-1,7
 25 274 25 274 25 349 c 0,8,9
 25 431 25 431 53 498.5 c 128,-1,10
 81 566 81 566 131.5 614 c 128,-1,11
 182 662 182 662 250.5 688 c 128,-1,12
 319 714 319 714 400 714 c 0,13,14
 463 714 463 714 518 691 c 128,-1,15
 573 668 573 668 621 627 c 1,16,-1
 561 564 l 1,17,18
 531 600 531 600 486.5 614.5 c 128,-1,19
 442 629 442 629 396 629 c 0,20,21
 338 629 338 629 288 606.5 c 128,-1,22
 238 584 238 584 201 546 c 128,-1,23
 164 508 164 508 143 456.5 c 128,-1,24
 122 405 122 405 122 348 c 0,25,26
 122 292 122 292 142.5 241 c 128,-1,27
 163 190 163 190 199.5 151.5 c 128,-1,28
 236 113 236 113 285.5 90.5 c 128,-1,29
 335 68 335 68 392 68 c 0,30,31
 446 68 446 68 492.5 87.5 c 128,-1,32
 539 107 539 107 573 150 c 1,33,-1
 631 82 l 1,0,1
EndSplineSet
EndChar

StartChar: D
Encoding: 68 68 39
Width: 565
GlyphClass: 2
Flags: W
LayerCount: 2
Fore
SplineSet
36 691 m 1,0,1
 104 690 104 690 168.5 691.5 c 128,-1,2
 233 693 233 693 289 688 c 128,-1,3
 345 683 345 683 391.5 667.5 c 128,-1,4
 438 652 438 652 471 616.5 c 128,-1,5
 504 581 504 581 522.5 521.5 c 128,-1,6
 541 462 541 462 541 369 c 0,7,8
 541 303 541 303 530.5 237 c 128,-1,9
 520 171 520 171 491.5 118.5 c 128,-1,10
 463 66 463 66 412.5 33 c 128,-1,11
 362 0 362 0 282 0 c 2,12,-1
 36 0 l 1,13,-1
 36 691 l 1,0,1
276 610 m 2,14,-1
 125 610 l 1,15,-1
 125 84 l 1,16,-1
 183 83 l 2,17,18
 206 83 206 83 229.5 83 c 128,-1,19
 253 83 253 83 276 84 c 0,20,21
 331 85 331 85 364.5 110 c 128,-1,22
 398 135 398 135 416.5 173 c 128,-1,23
 435 211 435 211 441.5 257.5 c 128,-1,24
 448 304 448 304 448 349 c 0,25,26
 448 393 448 393 442 439.5 c 128,-1,27
 436 486 436 486 417.5 524 c 128,-1,28
 399 562 399 562 365 586 c 128,-1,29
 331 610 331 610 276 610 c 2,14,-1
EndSplineSet
EndChar

StartChar: E
Encoding: 69 69 40
Width: 433
GlyphClass: 2
Flags: W
LayerCount: 2
Fore
SplineSet
39 693 m 1,0,-1
 405 693 l 1,1,-1
 405 608 l 1,2,-1
 131 608 l 1,3,-1
 131 412 l 1,4,-1
 327 412 l 1,5,-1
 327 329 l 1,6,-1
 131 329 l 1,7,-1
 131 82 l 1,8,-1
 414 82 l 1,9,-1
 414 0 l 1,10,-1
 39 0 l 1,11,-1
 39 693 l 1,12,-1
 39 693 l 1,0,-1
EndSplineSet
EndChar

StartChar: F
Encoding: 70 70 41
Width: 394
GlyphClass: 2
Flags: W
LayerCount: 2
Fore
SplineSet
39 691 m 1,0,-1
 392 691 l 1,1,-1
 392 609 l 1,2,-1
 132 609 l 1,3,-1
 132 412 l 1,4,-1
 327 412 l 1,5,-1
 327 329 l 1,6,-1
 132 329 l 1,7,-1
 132 0 l 1,8,-1
 39 0 l 1,9,-1
 39 691 l 1,10,-1
 39 691 l 1,0,-1
EndSplineSet
EndChar

StartChar: G
Encoding: 71 71 42
Width: 686
GlyphClass: 2
Flags: W
LayerCount: 2
Fore
SplineSet
658 363 m 1,0,-1
 658 116 l 1,1,2
 631 78 631 78 598.5 53 c 128,-1,3
 566 28 566 28 529 13.5 c 128,-1,4
 492 -1 492 -1 450.5 -7 c 128,-1,5
 409 -13 409 -13 364 -13 c 0,6,7
 285 -13 285 -13 222 15 c 128,-1,8
 159 43 159 43 115.5 92 c 128,-1,9
 72 141 72 141 48.5 207.5 c 128,-1,10
 25 274 25 274 25 350 c 0,11,12
 25 420 25 420 55 486 c 128,-1,13
 85 552 85 552 135.5 603 c 128,-1,14
 186 654 186 654 251 684.5 c 128,-1,15
 316 715 316 715 387 715 c 0,16,17
 450 715 450 715 510.5 696 c 128,-1,18
 571 677 571 677 619 633 c 1,19,-1
 557 571 l 1,20,-1
 556 571 l 1,21,-1
 556 572 l 1,22,23
 524 605 524 605 480 616.5 c 128,-1,24
 436 628 436 628 391 628 c 0,25,26
 334 628 334 628 284 605.5 c 128,-1,27
 234 583 234 583 196.5 544.5 c 128,-1,28
 159 506 159 506 137 455 c 128,-1,29
 115 404 115 404 115 348 c 0,30,31
 115 291 115 291 132.5 241.5 c 128,-1,32
 150 192 150 192 182 155.5 c 128,-1,33
 214 119 214 119 260.5 97.5 c 128,-1,34
 307 76 307 76 366 76 c 0,35,36
 403 76 403 76 427 78.5 c 128,-1,37
 451 81 451 81 471 87.5 c 128,-1,38
 491 94 491 94 512.5 105.5 c 128,-1,39
 534 117 534 117 566 135 c 1,40,-1
 565 274 l 1,41,-1
 431 274 l 1,42,-1
 429 276 l 1,43,-1
 429 363 l 1,44,-1
 433 364 l 1,45,46
 490 364 490 364 545.5 363.5 c 128,-1,47
 601 363 601 363 658 363 c 1,0,-1
EndSplineSet
EndChar

StartChar: H
Encoding: 72 72 43
Width: 592
GlyphClass: 2
Flags: W
LayerCount: 2
Fore
SplineSet
462 696 m 1,0,-1
 553 696 l 1,1,-1
 553 0 l 1,2,-1
 462 0 l 1,3,-1
 462 311 l 1,4,-1
 132 311 l 1,5,-1
 132 0 l 1,6,-1
 39 0 l 1,7,-1
 39 690 l 1,8,-1
 131 690 l 1,9,-1
 131 394 l 1,10,-1
 462 394 l 1,11,-1
 462 696 l 1,12,-1
 462 696 l 1,0,-1
EndSplineSet
EndChar

StartChar: I
Encoding: 73 73 44
Width: 164
GlyphClass: 2
Flags: W
LayerCount: 2
Fore
SplineSet
38 696 m 1,0,-1
 128 696 l 1,1,-1
 128 0 l 1,2,-1
 38 0 l 1,3,-1
 38 696 l 1,4,-1
 38 696 l 1,0,-1
EndSplineSet
EndChar

StartChar: J
Encoding: 74 74 45
Width: 378
GlyphClass: 2
Flags: W
LayerCount: 2
Fore
SplineSet
44 72 m 1,0,1
 80 44 80 44 124 44 c 0,2,3
 163 44 163 44 188.5 60.5 c 128,-1,4
 214 77 214 77 228.5 103.5 c 128,-1,5
 243 130 243 130 248.5 163 c 128,-1,6
 254 196 254 196 254 228 c 2,7,-1
 254 700 l 1,8,-1
 345 700 l 1,9,-1
 345 222 l 2,10,11
 345 168 345 168 333.5 120 c 128,-1,12
 322 72 322 72 295.5 36.5 c 128,-1,13
 269 1 269 1 227 -20 c 128,-1,14
 185 -41 185 -41 125 -41 c 0,15,16
 59 -41 59 -41 3 -7 c 1,17,-1
 44 72 l 1,0,1
EndSplineSet
EndChar

StartChar: K
Encoding: 75 75 46
Width: 597
GlyphClass: 2
Flags: W
LayerCount: 2
Fore
SplineSet
403 686 m 1,0,-1
 516 686 l 1,1,-1
 238 362 l 1,2,-1
 576 0 l 1,3,-1
 461 0 l 1,4,-1
 131 358 l 1,5,-1
 131 0 l 1,6,-1
 38 0 l 1,7,-1
 38 686 l 1,8,-1
 131 686 l 1,9,-1
 131 361 l 1,10,-1
 403 686 l 1,11,-1
 403 686 l 1,0,-1
EndSplineSet
EndChar

StartChar: L
Encoding: 76 76 47
Width: 415
GlyphClass: 2
Flags: W
LayerCount: 2
Fore
SplineSet
131 690 m 1,0,-1
 131 85 l 1,1,-1
 414 85 l 1,2,-1
 414 0 l 1,3,-1
 38 0 l 1,4,-1
 38 691 l 1,5,-1
 131 690 l 1,6,-1
 131 690 l 1,0,-1
EndSplineSet
EndChar

StartChar: M
Encoding: 77 77 48
Width: 677
GlyphClass: 2
Flags: W
LayerCount: 2
Fore
SplineSet
341 337 m 1,0,-1
 626 726 l 1,1,-1
 641 -1 l 1,2,-1
 549 -5 l 1,3,-1
 537 457 l 1,4,-1
 341 190 l 1,5,-1
 138 460 l 1,6,-1
 129 -4 l 1,7,-1
 36 0 l 1,8,-1
 52 730 l 1,9,-1
 341 337 l 1,10,-1
 341 337 l 1,0,-1
EndSplineSet
EndChar

StartChar: N
Encoding: 78 78 49
Width: 604
GlyphClass: 2
Flags: W
LayerCount: 2
Fore
SplineSet
124 467 m 1,0,-1
 124 3 l 1,1,-1
 37 3 l 1,2,-1
 37 700 l 1,3,-1
 479 204 l 1,4,-1
 479 696 l 1,5,-1
 567 696 l 1,6,-1
 567 -28 l 1,7,-1
 124 467 l 1,8,-1
 124 467 l 1,0,-1
EndSplineSet
EndChar

StartChar: O
Encoding: 79 79 50
Width: 761
GlyphClass: 2
Flags: W
LayerCount: 2
Fore
SplineSet
364 620 m 0,0,1
 307 620 307 620 262.5 599 c 128,-1,2
 218 578 218 578 187.5 542 c 128,-1,3
 157 506 157 506 141.5 457.5 c 128,-1,4
 126 409 126 409 126 355 c 0,5,6
 126 299 126 299 143 249 c 128,-1,7
 160 199 160 199 192 161 c 128,-1,8
 224 123 224 123 270 100.5 c 128,-1,9
 316 78 316 78 375 78 c 0,10,11
 433 78 433 78 480.5 99 c 128,-1,12
 528 120 528 120 561.5 157 c 128,-1,13
 595 194 595 194 613.5 243.5 c 128,-1,14
 632 293 632 293 632 349 c 0,15,16
 632 409 632 409 612.5 458.5 c 128,-1,17
 593 508 593 508 558 544 c 128,-1,18
 523 580 523 580 473.5 600 c 128,-1,19
 424 620 424 620 364 620 c 0,0,1
370 704 m 256,20,21
 448 704 448 704 515 677.5 c 128,-1,22
 582 651 582 651 630.5 603.5 c 128,-1,23
 679 556 679 556 707 490 c 128,-1,24
 735 424 735 424 735 345 c 0,25,26
 735 267 735 267 707.5 202 c 128,-1,27
 680 137 680 137 631.5 89.5 c 128,-1,28
 583 42 583 42 517 16 c 128,-1,29
 451 -10 451 -10 374 -10 c 0,30,31
 296 -10 296 -10 232 17 c 128,-1,32
 168 44 168 44 122.5 91.5 c 128,-1,33
 77 139 77 139 52 204.5 c 128,-1,34
 27 270 27 270 27 347 c 256,35,36
 27 424 27 424 51 489.5 c 128,-1,37
 75 555 75 555 120 602.5 c 128,-1,38
 165 650 165 650 228.5 677 c 128,-1,39
 292 704 292 704 370 704 c 256,20,21
EndSplineSet
EndChar

StartChar: P
Encoding: 80 80 51
Width: 421
GlyphClass: 2
Flags: W
LayerCount: 2
Fore
SplineSet
38 692 m 1,0,-1
 221 692 l 2,1,2
 264 692 264 692 299.5 678 c 128,-1,3
 335 664 335 664 361 639 c 128,-1,4
 387 614 387 614 401.5 578.5 c 128,-1,5
 416 543 416 543 416 500 c 0,6,7
 416 430 416 430 389.5 390.5 c 128,-1,8
 363 351 363 351 321 332 c 128,-1,9
 279 313 279 313 226 308.5 c 128,-1,10
 173 304 173 304 119 304 c 1,11,-1
 119 1 l 1,12,-1
 38 1 l 1,13,-1
 38 692 l 1,0,-1
119 618 m 1,14,-1
 119 388 l 1,15,-1
 230 388 l 2,16,17
 255 388 255 388 275 398 c 128,-1,18
 295 408 295 408 309 424.5 c 128,-1,19
 323 441 323 441 330.5 462.5 c 128,-1,20
 338 484 338 484 338 508 c 0,21,22
 338 555 338 555 311 586.5 c 128,-1,23
 284 618 284 618 236 618 c 2,24,-1
 119 618 l 1,14,-1
EndSplineSet
EndChar

StartChar: Q
Encoding: 81 81 52
Width: 770
GlyphClass: 2
Flags: W
LayerCount: 2
Fore
SplineSet
741 347 m 0,0,1
 741 284 741 284 720.5 226 c 128,-1,2
 700 168 700 168 660 120 c 1,3,-1
 725 48 l 1,4,-1
 646 -17 l 1,5,-1
 585 52 l 1,6,7
 541 23 541 23 492 6.5 c 128,-1,8
 443 -10 443 -10 390 -10 c 0,9,10
 312 -10 312 -10 245.5 17 c 128,-1,11
 179 44 179 44 130 92.5 c 128,-1,12
 81 141 81 141 53 207 c 128,-1,13
 25 273 25 273 25 351 c 0,14,15
 25 424 25 424 53.5 488.5 c 128,-1,16
 82 553 82 553 131 600.5 c 128,-1,17
 180 648 180 648 245 675.5 c 128,-1,18
 310 703 310 703 383 703 c 0,19,20
 457 703 457 703 522 675 c 128,-1,21
 587 647 587 647 636 599 c 128,-1,22
 685 551 685 551 713 486 c 128,-1,23
 741 421 741 421 741 347 c 0,0,1
383 78 m 0,24,25
 462 78 462 78 527 119 c 1,26,-1
 454 201 l 1,27,-1
 531 263 l 1,28,-1
 600 186 l 1,29,30
 626 221 626 221 639.5 262 c 128,-1,31
 653 303 653 303 653 347 c 0,32,33
 653 403 653 403 632 452 c 128,-1,34
 611 501 611 501 574 537.5 c 128,-1,35
 537 574 537 574 488 595 c 128,-1,36
 439 616 439 616 383 616 c 0,37,38
 326 616 326 616 277 595 c 128,-1,39
 228 574 228 574 191.5 537.5 c 128,-1,40
 155 501 155 501 134 452 c 128,-1,41
 113 403 113 403 113 346 c 0,42,43
 113 290 113 290 134 241 c 128,-1,44
 155 192 155 192 191.5 156 c 128,-1,45
 228 120 228 120 277.5 99 c 128,-1,46
 327 78 327 78 383 78 c 0,24,25
EndSplineSet
EndChar

StartChar: R
Encoding: 82 82 53
Width: 532
GlyphClass: 2
Flags: W
LayerCount: 2
Fore
SplineSet
37 701 m 1,0,-1
 244 701 l 2,1,2
 287 701 287 701 322.5 687.5 c 128,-1,3
 358 674 358 674 384 649 c 128,-1,4
 410 624 410 624 424.5 588.5 c 128,-1,5
 439 553 439 553 439 510 c 0,6,7
 439 459 439 459 415.5 413 c 128,-1,8
 392 367 392 367 348 341 c 1,9,-1
 512 0 l 1,10,-1
 411 0 l 1,11,-1
 260 314 l 1,12,13
 228 310 228 310 194.5 311.5 c 128,-1,14
 161 313 161 313 129 313 c 1,15,-1
 129 0 l 1,16,-1
 40 0 l 1,17,-1
 37 701 l 1,0,-1
129 618 m 1,18,-1
 129 394 l 1,19,-1
 238 394 l 2,20,21
 262 394 262 394 281.5 403.5 c 128,-1,22
 301 413 301 413 314.5 429.5 c 128,-1,23
 328 446 328 446 335 467 c 128,-1,24
 342 488 342 488 342 511 c 0,25,26
 342 556 342 556 316 587 c 128,-1,27
 290 618 290 618 243 618 c 2,28,-1
 129 618 l 1,18,-1
EndSplineSet
EndChar

StartChar: S
Encoding: 83 83 54
Width: 502
GlyphClass: 2
Flags: W
LayerCount: 2
Fore
SplineSet
244 705 m 0,0,1
 293 705 293 705 333 697.5 c 128,-1,2
 373 690 373 690 413 659 c 1,3,-1
 367 592 l 1,4,5
 338 612 338 612 304.5 619 c 128,-1,6
 271 626 271 626 237 626 c 0,7,8
 220 626 220 626 204 618.5 c 128,-1,9
 188 611 188 611 176 599 c 128,-1,10
 164 587 164 587 156.5 571 c 128,-1,11
 149 555 149 555 149 538 c 0,12,13
 149 500 149 500 173.5 477.5 c 128,-1,14
 198 455 198 455 235 438 c 128,-1,15
 272 421 272 421 315 405 c 128,-1,16
 358 389 358 389 395 365 c 128,-1,17
 432 341 432 341 456.5 304 c 128,-1,18
 481 267 481 267 481 207 c 0,19,20
 481 155 481 155 461 115.5 c 128,-1,21
 441 76 441 76 408 49 c 128,-1,22
 375 22 375 22 331 8.5 c 128,-1,23
 287 -5 287 -5 239 -5 c 0,24,25
 180 -5 180 -5 128.5 10 c 128,-1,26
 77 25 77 25 25 52 c 1,27,-1
 43 149 l 1,28,29
 65 139 65 139 89.5 128.5 c 128,-1,30
 114 118 114 118 139.5 109 c 128,-1,31
 165 100 165 100 190.5 94.5 c 128,-1,32
 216 89 216 89 240 89 c 0,33,34
 265 89 265 89 291 97 c 128,-1,35
 317 105 317 105 338 120 c 128,-1,36
 359 135 359 135 372 157 c 128,-1,37
 385 179 385 179 385 207 c 0,38,39
 385 247 385 247 360.5 271.5 c 128,-1,40
 336 296 336 296 299 313 c 128,-1,41
 262 330 262 330 218.5 345 c 128,-1,42
 175 360 175 360 138 382.5 c 128,-1,43
 101 405 101 405 76.5 440 c 128,-1,44
 52 475 52 475 52 531 c 0,45,46
 52 571 52 571 68 603 c 128,-1,47
 84 635 84 635 110.5 657.5 c 128,-1,48
 137 680 137 680 171.5 692.5 c 128,-1,49
 206 705 206 705 244 705 c 0,0,1
EndSplineSet
EndChar

StartChar: T
Encoding: 84 84 55
Width: 480
GlyphClass: 2
Flags: W
LayerCount: 2
Fore
SplineSet
11 686 m 1,0,-1
 469 686 l 1,1,-1
 469 609 l 1,2,-1
 283 609 l 1,3,-1
 283 0 l 1,4,-1
 198 0 l 1,5,-1
 198 609 l 1,6,-1
 11 609 l 1,7,-1
 11 686 l 1,8,-1
 11 686 l 1,0,-1
EndSplineSet
EndChar

StartChar: U
Encoding: 85 85 56
Width: 549
GlyphClass: 2
Flags: W
LayerCount: 2
Fore
SplineSet
126 685 m 1,0,-1
 126 266 l 2,1,2
 126 233 126 233 135.5 201 c 128,-1,3
 145 169 145 169 163.5 144 c 128,-1,4
 182 119 182 119 210 103.5 c 128,-1,5
 238 88 238 88 275 88 c 256,6,7
 312 88 312 88 340 104 c 128,-1,8
 368 120 368 120 387 145.5 c 128,-1,9
 406 171 406 171 415 203.5 c 128,-1,10
 424 236 424 236 424 270 c 1,11,-1
 425 268 l 1,12,-1
 425 682 l 1,13,-1
 516 682 l 1,14,-1
 516 265 l 2,15,16
 516 209 516 209 500.5 160.5 c 128,-1,17
 485 112 485 112 454.5 76.5 c 128,-1,18
 424 41 424 41 378.5 20.5 c 128,-1,19
 333 0 333 0 274 0 c 0,20,21
 218 0 218 0 173.5 21.5 c 128,-1,22
 129 43 129 43 97.5 79 c 128,-1,23
 66 115 66 115 49.5 163 c 128,-1,24
 33 211 33 211 33 264 c 2,25,-1
 33 683 l 1,26,-1
 126 685 l 1,0,-1
EndSplineSet
EndChar

StartChar: V
Encoding: 86 86 57
Width: 656
GlyphClass: 2
Flags: W
LayerCount: 2
Fore
SplineSet
573 729 m 1,0,-1
 644 693 l 1,1,-1
 321 -37 l 1,2,-1
 13 693 l 1,3,-1
 89 728 l 1,4,-1
 322 181 l 1,5,-1
 573 729 l 1,6,-1
 573 729 l 1,0,-1
EndSplineSet
EndChar

StartChar: W
Encoding: 87 87 58
Width: 851
GlyphClass: 2
Flags: W
LayerCount: 2
Fore
SplineSet
430 370 m 1,0,-1
 263 -21 l 1,1,-1
 20 692 l 1,2,-1
 107 717 l 1,3,-1
 267 227 l 1,4,-1
 411 559 l 1,5,-1
 443 559 l 1,6,-1
 586 228 l 1,7,-1
 754 718 l 1,8,-1
 831 692 l 1,9,-1
 589 -19 l 1,10,-1
 430 370 l 1,11,-1
 430 370 l 1,0,-1
EndSplineSet
EndChar

StartChar: X
Encoding: 88 88 59
Width: 686
GlyphClass: 2
Flags: W
LayerCount: 2
Fore
SplineSet
597 680 m 1,0,-1
 399 395 l 1,1,-1
 661 19 l 1,2,-1
 590 -38 l 1,3,-1
 342 310 l 1,4,-1
 104 -28 l 1,5,-1
 24 19 l 1,6,-1
 287 390 l 1,7,-1
 70 680 l 1,8,-1
 160 739 l 1,9,-1
 344 476 l 1,10,-1
 530 734 l 1,11,-1
 597 680 l 1,12,-1
 597 680 l 1,0,-1
EndSplineSet
EndChar

StartChar: Y
Encoding: 89 89 60
Width: 598
GlyphClass: 2
Flags: W
LayerCount: 2
Fore
SplineSet
13 692 m 1,0,-1
 89 736 l 1,1,-1
 301 418 l 1,2,-1
 513 736 l 1,3,-1
 585 692 l 1,4,-1
 351 334 l 1,5,-1
 351 3 l 1,6,-1
 252 3 l 1,7,-1
 252 330 l 1,8,-1
 253 330 l 1,9,-1
 13 692 l 1,10,-1
 13 692 l 1,0,-1
EndSplineSet
EndChar

StartChar: Z
Encoding: 90 90 61
Width: 607
GlyphClass: 2
Flags: W
LayerCount: 2
Fore
SplineSet
111 682 m 1,0,-1
 581 682 l 1,1,-1
 190 88 l 1,2,-1
 574 88 l 1,3,-1
 574 0 l 1,4,-1
 19 0 l 1,5,-1
 426 602 l 1,6,-1
 85 602 l 1,7,-1
 111 682 l 1,8,-1
 111 682 l 1,0,-1
EndSplineSet
EndChar

StartChar: bracketleft
Encoding: 91 91 62
Width: 281
GlyphClass: 2
Flags: W
LayerCount: 2
Fore
SplineSet
38 0 m 1,0,-1
 38 702 l 1,1,-1
 260 702 l 1,2,-1
 260 622 l 1,3,-1
 118 622 l 1,4,-1
 118 80 l 1,5,-1
 262 80 l 1,6,-1
 262 0 l 1,7,-1
 38 0 l 1,8,-1
 38 0 l 1,0,-1
EndSplineSet
EndChar

StartChar: backslash
Encoding: 92 92 63
Width: 355
GlyphClass: 2
Flags: W
LayerCount: 2
Fore
SplineSet
271 0 m 1,0,-1
 4 702 l 1,1,-1
 84 702 l 1,2,-1
 351 0 l 1,3,-1
 271 0 l 1,4,-1
 271 0 l 1,0,-1
EndSplineSet
EndChar

StartChar: bracketright
Encoding: 93 93 64
Width: 281
GlyphClass: 2
Flags: W
LayerCount: 2
Fore
SplineSet
244 0 m 1,0,-1
 20 0 l 1,1,-1
 20 80 l 1,2,-1
 164 80 l 1,3,-1
 164 622 l 1,4,-1
 22 622 l 1,5,-1
 22 702 l 1,6,-1
 244 702 l 1,7,-1
 244 0 l 1,8,-1
 244 0 l 1,0,-1
EndSplineSet
EndChar

StartChar: asciicircum
Encoding: 94 94 65
Width: 317
GlyphClass: 2
Flags: W
LayerCount: 2
Fore
SplineSet
303 530 m 1,0,-1
 228 530 l 1,1,-1
 163 621 l 1,2,-1
 92 530 l 1,3,-1
 12 530 l 1,4,-1
 164 734 l 1,5,-1
 303 530 l 1,6,-1
 303 530 l 1,0,-1
EndSplineSet
EndChar

StartChar: underscore
Encoding: 95 95 66
Width: 539
GlyphClass: 2
Flags: W
LayerCount: 2
Fore
SplineSet
501 0 m 1,0,-1
 501 -82 l 1,1,-1
 38 -82 l 1,2,-1
 38 0 l 1,3,-1
 501 0 l 1,4,-1
 501 0 l 1,0,-1
EndSplineSet
EndChar

StartChar: grave
Encoding: 96 96 67
Width: 219
GlyphClass: 2
Flags: W
LayerCount: 2
Fore
SplineSet
70 671 m 1,0,-1
 210 524 l 1,1,-1
 160 477 l 1,2,-1
 8 598 l 1,3,-1
 70 671 l 1,4,-1
 70 671 l 1,0,-1
EndSplineSet
EndChar

StartChar: a
Encoding: 97 97 68
Width: 420
GlyphClass: 2
Flags: WO
LayerCount: 2
Fore
SplineSet
380 0 m 1,0,-1
 293 0 l 1,1,-1
 293 41 l 1,2,3
 275 20 275 20 252 5 c 128,-1,4
 229 -10 229 -10 200 -10 c 0,5,6
 165 -10 165 -10 134.5 -3 c 128,-1,7
 104 4 104 4 81 19.5 c 128,-1,8
 58 35 58 35 44.5 61.5 c 128,-1,9
 31 88 31 88 31 127 c 0,10,11
 31 165 31 165 45.5 193.5 c 128,-1,12
 60 222 60 222 85 240.5 c 128,-1,13
 110 259 110 259 142 268.5 c 128,-1,14
 174 278 174 278 209 278 c 0,15,16
 239 278 239 278 261 263 c 128,-1,17
 283 248 283 248 297 222 c 1,18,19
 297 244 297 244 295.5 266.5 c 128,-1,20
 294 289 294 289 286.5 307.5 c 128,-1,21
 279 326 279 326 263 337.5 c 128,-1,22
 247 349 247 349 218 349 c 0,23,24
 195 349 195 349 172 341.5 c 128,-1,25
 149 334 149 334 129 323 c 1,26,-1
 98 389 l 1,27,28
 126 406 126 406 158.5 417 c 128,-1,29
 191 428 191 428 224 428 c 0,30,31
 297 428 297 428 338.5 384 c 128,-1,32
 380 340 380 340 380 268 c 2,33,-1
 380 0 l 1,0,-1
299 132 m 0,34,35
 299 152 299 152 289.5 165.5 c 128,-1,36
 280 179 280 179 265.5 187.5 c 128,-1,37
 251 196 251 196 233.5 199.5 c 128,-1,38
 216 203 216 203 200 203 c 0,39,40
 163 203 163 203 135.5 186.5 c 128,-1,41
 108 170 108 170 108 129 c 0,42,43
 108 109 108 109 116 96.5 c 128,-1,44
 124 84 124 84 137.5 77 c 128,-1,45
 151 70 151 70 167 67.5 c 128,-1,46
 183 65 183 65 200 65 c 0,47,48
 215 65 215 65 232.5 68.5 c 128,-1,49
 250 72 250 72 264.5 79.5 c 128,-1,50
 279 87 279 87 289 100 c 128,-1,51
 299 113 299 113 299 132 c 0,34,35
EndSplineSet
EndChar

StartChar: b
Encoding: 98 98 69
Width: 455
GlyphClass: 2
Flags: W
LayerCount: 2
Fore
SplineSet
242 426 m 0,0,1
 351 426 351 426 399.5 367.5 c 128,-1,2
 448 309 448 309 448 204 c 0,3,4
 448 100 448 100 399 41.5 c 128,-1,5
 350 -17 350 -17 242 -17 c 0,6,7
 208 -17 208 -17 178.5 -2 c 128,-1,8
 149 13 149 13 125 36 c 1,9,-1
 125 0 l 1,10,-1
 38 0 l 1,11,-1
 38 748 l 1,12,-1
 125 748 l 1,13,-1
 125 367 l 1,14,15
 143 400 143 400 175 413 c 128,-1,16
 207 426 207 426 242 426 c 0,0,1
236 61 m 256,17,18
 270 61 270 61 293 72 c 128,-1,19
 316 83 316 83 330.5 102.5 c 128,-1,20
 345 122 345 122 351 148.5 c 128,-1,21
 357 175 357 175 357 206 c 0,22,23
 357 235 357 235 351.5 261.5 c 128,-1,24
 346 288 346 288 333 308 c 128,-1,25
 320 328 320 328 298 339.5 c 128,-1,26
 276 351 276 351 243 351 c 0,27,28
 208 351 208 351 184.5 340.5 c 128,-1,29
 161 330 161 330 146.5 310.5 c 128,-1,30
 132 291 132 291 125.5 264.5 c 128,-1,31
 119 238 119 238 119 206 c 0,32,33
 119 176 119 176 124.5 149.5 c 128,-1,34
 130 123 130 123 143.5 103.5 c 128,-1,35
 157 84 157 84 179.5 72.5 c 128,-1,36
 202 61 202 61 236 61 c 256,17,18
EndSplineSet
EndChar

StartChar: c
Encoding: 99 99 70
Width: 405
GlyphClass: 2
Flags: W
LayerCount: 2
Fore
SplineSet
24 209 m 0,0,1
 24 255 24 255 37.5 296 c 128,-1,2
 51 337 51 337 77 368.5 c 128,-1,3
 103 400 103 400 140.5 418.5 c 128,-1,4
 178 437 178 437 227 437 c 0,5,6
 267 437 267 437 307.5 427 c 128,-1,7
 348 417 348 417 377 388 c 1,8,-1
 331 322 l 1,9,10
 310 345 310 345 282 350 c 128,-1,11
 254 355 254 355 225 355 c 256,12,13
 196 355 196 355 174 341.5 c 128,-1,14
 152 328 152 328 137 306 c 128,-1,15
 122 284 122 284 114.5 257.5 c 128,-1,16
 107 231 107 231 107 206 c 0,17,18
 107 180 107 180 115.5 156.5 c 128,-1,19
 124 133 124 133 139 115 c 128,-1,20
 154 97 154 97 176 86 c 128,-1,21
 198 75 198 75 225 75 c 256,22,23
 252 75 252 75 280 78 c 128,-1,24
 308 81 308 81 330 99 c 1,25,-1
 374 33 l 1,26,27
 357 17 357 17 341 8 c 128,-1,28
 325 -1 325 -1 307.5 -5 c 128,-1,29
 290 -9 290 -9 271 -9.5 c 128,-1,30
 252 -10 252 -10 230 -10 c 0,31,32
 185 -10 185 -10 147 8 c 128,-1,33
 109 26 109 26 81.5 56 c 128,-1,34
 54 86 54 86 39 125.5 c 128,-1,35
 24 165 24 165 24 209 c 0,0,1
EndSplineSet
EndChar

StartChar: d
Encoding: 100 100 71
Width: 436
GlyphClass: 2
Flags: W
LayerCount: 2
Fore
SplineSet
204 -10 m 0,0,1
 100 -10 100 -10 53.5 47.5 c 128,-1,2
 7 105 7 105 7 205 c 0,3,4
 7 308 7 308 55 364.5 c 128,-1,5
 103 421 103 421 209 421 c 0,6,7
 222 421 222 421 238 419.5 c 128,-1,8
 254 418 254 418 269 413.5 c 128,-1,9
 284 409 284 409 295.5 400 c 128,-1,10
 307 391 307 391 312 376 c 1,11,-1
 312 748 l 1,12,-1
 399 748 l 1,13,-1
 399 0 l 1,14,-1
 314 0 l 1,15,-1
 314 39 l 1,16,17
 298 9 298 9 266.5 -0.5 c 128,-1,18
 235 -10 235 -10 204 -10 c 0,0,1
207 342 m 0,19,20
 143 342 143 342 116.5 305.5 c 128,-1,21
 90 269 90 269 90 209 c 0,22,23
 90 179 90 179 96 153 c 128,-1,24
 102 127 102 127 115.5 108.5 c 128,-1,25
 129 90 129 90 152 79 c 128,-1,26
 175 68 175 68 208 68 c 256,27,28
 241 68 241 68 262 79.5 c 128,-1,29
 283 91 283 91 296 110.5 c 128,-1,30
 309 130 309 130 314 155.5 c 128,-1,31
 319 181 319 181 319 210 c 0,32,33
 319 267 319 267 294 304.5 c 128,-1,34
 269 342 269 342 207 342 c 0,19,20
EndSplineSet
EndChar

StartChar: e
Encoding: 101 101 72
Width: 436
GlyphClass: 2
Flags: W
LayerCount: 2
Fore
SplineSet
108 165 m 1,0,1
 119 116 119 116 150.5 93 c 128,-1,2
 182 70 182 70 231 70 c 0,3,4
 258 70 258 70 282.5 82 c 128,-1,5
 307 94 307 94 326 113 c 1,6,-1
 380 59 l 1,7,8
 351 22 351 22 311.5 6 c 128,-1,9
 272 -10 272 -10 226 -10 c 256,10,11
 180 -10 180 -10 143 6 c 128,-1,12
 106 22 106 22 80 50.5 c 128,-1,13
 54 79 54 79 40 118 c 128,-1,14
 26 157 26 157 26 202 c 256,15,16
 26 247 26 247 40.5 286.5 c 128,-1,17
 55 326 55 326 81 355.5 c 128,-1,18
 107 385 107 385 144.5 402 c 128,-1,19
 182 419 182 419 229 419 c 0,20,21
 271 419 271 419 304.5 402.5 c 128,-1,22
 338 386 338 386 362 358.5 c 128,-1,23
 386 331 386 331 399 294.5 c 128,-1,24
 412 258 412 258 412 219 c 0,25,26
 412 205 412 205 411 192 c 128,-1,27
 410 179 410 179 408 165 c 1,28,-1
 108 165 l 1,0,1
340 245 m 1,29,30
 332 290 332 290 304 316 c 128,-1,31
 276 342 276 342 228 342 c 256,32,33
 180 342 180 342 151 316 c 128,-1,34
 122 290 122 290 110 245 c 1,35,-1
 340 245 l 1,29,30
EndSplineSet
EndChar

StartChar: f
Encoding: 102 102 73
Width: 294
GlyphClass: 2
Flags: W
LayerCount: 2
Fore
SplineSet
70 403 m 1,0,1
 70 436 70 436 75.5 477 c 128,-1,2
 81 518 81 518 96 555 c 128,-1,3
 111 592 111 592 138.5 617 c 128,-1,4
 166 642 166 642 210 642 c 0,5,6
 230 642 230 642 250 638.5 c 128,-1,7
 270 635 270 635 287 622 c 1,8,-1
 239 547 l 1,9,-1
 222 556 l 1,10,11
 192 556 192 556 176.5 540 c 128,-1,12
 161 524 161 524 154.5 501 c 128,-1,13
 148 478 148 478 148 451 c 128,-1,14
 148 424 148 424 148 403 c 1,15,-1
 214 403 l 1,16,-1
 214 323 l 1,17,-1
 146 323 l 1,18,-1
 146 0 l 1,19,-1
 66 0 l 1,20,-1
 66 325 l 1,21,-1
 16 325 l 1,22,-1
 16 403 l 1,23,-1
 70 403 l 1,0,1
EndSplineSet
EndChar

StartChar: g
Encoding: 103 103 74
Width: 436
GlyphClass: 2
Flags: W
LayerCount: 2
Fore
SplineSet
110 216 m 0,0,1
 110 190 110 190 115 167 c 128,-1,2
 120 144 120 144 132 127 c 128,-1,3
 144 110 144 110 163.5 100 c 128,-1,4
 183 90 183 90 212 90 c 0,5,6
 267 90 267 90 290.5 121 c 128,-1,7
 314 152 314 152 314 204 c 0,8,9
 314 229 314 229 310 253 c 128,-1,10
 306 277 306 277 295.5 296 c 128,-1,11
 285 315 285 315 266 326.5 c 128,-1,12
 247 338 247 338 218 338 c 0,13,14
 159 338 159 338 134.5 304.5 c 128,-1,15
 110 271 110 271 110 216 c 0,0,1
402 0 m 2,16,17
 402 -93 402 -93 349.5 -147 c 128,-1,18
 297 -201 297 -201 203 -201 c 0,19,20
 173 -201 173 -201 151.5 -197.5 c 128,-1,21
 130 -194 130 -194 111 -186.5 c 128,-1,22
 92 -179 92 -179 73.5 -167.5 c 128,-1,23
 55 -156 55 -156 30 -141 c 1,24,-1
 66 -73 l 1,25,26
 79 -80 79 -80 97 -88.5 c 128,-1,27
 115 -97 115 -97 133.5 -104.5 c 128,-1,28
 152 -112 152 -112 171 -117 c 128,-1,29
 190 -122 190 -122 205 -122 c 0,30,31
 250 -122 250 -122 280.5 -103 c 128,-1,32
 311 -84 311 -84 311 -34 c 2,33,-1
 311 55 l 1,34,35
 304 41 304 41 292.5 32.5 c 128,-1,36
 281 24 281 24 267.5 19 c 128,-1,37
 254 14 254 14 239 12.5 c 128,-1,38
 224 11 224 11 210 11 c 0,39,40
 161 11 161 11 126.5 25.5 c 128,-1,41
 92 40 92 40 70 67 c 128,-1,42
 48 94 48 94 38 131.5 c 128,-1,43
 28 169 28 169 28 215 c 0,44,45
 28 312 28 312 73 366 c 128,-1,46
 118 420 118 420 219 420 c 0,47,48
 248 420 248 420 270.5 401 c 128,-1,49
 293 382 293 382 308 359 c 1,50,-1
 308 403 l 1,51,-1
 402 403 l 1,52,-1
 402 0 l 2,16,17
EndSplineSet
EndChar

StartChar: h
Encoding: 104 104 75
Width: 408
GlyphClass: 2
Flags: W
LayerCount: 2
Fore
SplineSet
320 0 m 1,0,1
 321 57 321 57 321 114 c 128,-1,2
 321 171 321 171 321 228 c 0,3,4
 321 250 321 250 315 270 c 128,-1,5
 309 290 309 290 297.5 305.5 c 128,-1,6
 286 321 286 321 268 330 c 128,-1,7
 250 339 250 339 226 339 c 0,8,9
 203 339 203 339 183 330 c 128,-1,10
 163 321 163 321 148.5 306 c 128,-1,11
 134 291 134 291 126 271 c 128,-1,12
 118 251 118 251 118 228 c 2,13,-1
 118 0 l 1,14,-1
 38 0 l 1,15,-1
 38 748 l 1,16,-1
 120 748 l 1,17,-1
 120 368 l 1,18,19
 146 400 146 400 178.5 412.5 c 128,-1,20
 211 425 211 425 252 425 c 0,21,22
 287 425 287 425 314.5 411 c 128,-1,23
 342 397 342 397 360.5 374 c 128,-1,24
 379 351 379 351 389 321 c 128,-1,25
 399 291 399 291 399 258 c 2,26,-1
 399 0 l 1,27,-1
 320 0 l 1,0,1
EndSplineSet
EndChar

StartChar: i
Encoding: 105 105 76
Width: 164
GlyphClass: 2
Flags: W
LayerCount: 2
Fore
SplineSet
32 535 m 256,0,1
 32 558 32 558 47.5 571.5 c 128,-1,2
 63 585 63 585 85 585 c 256,3,4
 107 585 107 585 122 572 c 128,-1,5
 137 559 137 559 137 536 c 256,6,7
 137 513 137 513 122 498 c 128,-1,8
 107 483 107 483 84 483 c 256,9,10
 61 483 61 483 46.5 497.5 c 128,-1,11
 32 512 32 512 32 535 c 256,0,1
36 422 m 1,12,-1
 128 422 l 1,13,-1
 128 0 l 1,14,-1
 37 0 l 1,15,-1
 36 422 l 1,12,-1
EndSplineSet
EndChar

StartChar: j
Encoding: 106 106 77
Width: 159
GlyphClass: 2
Flags: W
LayerCount: 2
Fore
SplineSet
32 535 m 256,0,1
 32 558 32 558 47.5 571.5 c 128,-1,2
 63 585 63 585 85 585 c 256,3,4
 107 585 107 585 122 572 c 128,-1,5
 137 559 137 559 137 536 c 256,6,7
 137 513 137 513 122 498 c 128,-1,8
 107 483 107 483 84 483 c 256,9,10
 61 483 61 483 46.5 497.5 c 128,-1,11
 32 512 32 512 32 535 c 256,0,1
34 422 m 1,12,-1
 126 422 l 1,13,-1
 126 -116 l 1,14,-1
 34 -116 l 1,15,-1
 34 422 l 1,12,-1
EndSplineSet
EndChar

StartChar: k
Encoding: 107 107 78
Width: 467
GlyphClass: 2
Flags: W
LayerCount: 2
Fore
SplineSet
131 748 m 1,0,-1
 131 238 l 1,1,-1
 317 424 l 1,2,-1
 435 424 l 1,3,-1
 239 227 l 1,4,-1
 465 0 l 1,5,-1
 347 0 l 1,6,-1
 130 216 l 1,7,-1
 130 0 l 1,8,-1
 38 0 l 1,9,-1
 38 748 l 1,10,-1
 131 748 l 1,11,-1
 131 748 l 1,0,-1
EndSplineSet
EndChar

StartChar: l
Encoding: 108 108 79
Width: 163
GlyphClass: 2
Flags: W
LayerCount: 2
Fore
SplineSet
127 0 m 1,0,-1
 38 0 l 1,1,-1
 38 782 l 1,2,-1
 127 782 l 1,3,-1
 127 0 l 1,4,-1
 127 0 l 1,0,-1
EndSplineSet
EndChar

StartChar: m
Encoding: 109 109 80
Width: 663
GlyphClass: 2
Flags: W
LayerCount: 2
Fore
SplineSet
341 358 m 1,0,1
 361 393 361 393 393.5 406.5 c 128,-1,2
 426 420 426 420 464 420 c 0,3,4
 510 420 510 420 541.5 405 c 128,-1,5
 573 390 573 390 592 363.5 c 128,-1,6
 611 337 611 337 619.5 301 c 128,-1,7
 628 265 628 265 628 223 c 2,8,-1
 628 0 l 1,9,-1
 543 0 l 1,10,-1
 543 215 l 2,11,12
 543 233 543 233 539 254 c 128,-1,13
 535 275 535 275 525 293 c 128,-1,14
 515 311 515 311 499.5 323 c 128,-1,15
 484 335 484 335 462 335 c 0,16,17
 438 335 438 335 422 323.5 c 128,-1,18
 406 312 406 312 396 294.5 c 128,-1,19
 386 277 386 277 381.5 256 c 128,-1,20
 377 235 377 235 377 215 c 2,21,-1
 377 0 l 1,22,-1
 299 0 l 1,23,-1
 299 215 l 2,24,25
 299 237 299 237 295.5 259.5 c 128,-1,26
 292 282 292 282 282.5 300 c 128,-1,27
 273 318 273 318 255.5 329.5 c 128,-1,28
 238 341 238 341 211 341 c 256,29,30
 184 341 184 341 166.5 329.5 c 128,-1,31
 149 318 149 318 139.5 300 c 128,-1,32
 130 282 130 282 126.5 259.5 c 128,-1,33
 123 237 123 237 123 215 c 2,34,-1
 123 0 l 1,35,-1
 38 0 l 1,36,-1
 38 410 l 1,37,-1
 125 410 l 1,38,-1
 125 352 l 1,39,40
 136 382 136 382 156.5 403 c 128,-1,41
 177 424 177 424 211 424 c 0,42,43
 229 424 229 424 250 422 c 128,-1,44
 271 420 271 420 289.5 413 c 128,-1,45
 308 406 308 406 322 393 c 128,-1,46
 336 380 336 380 341 358 c 1,0,1
EndSplineSet
EndChar

StartChar: n
Encoding: 110 110 81
Width: 414
GlyphClass: 2
Flags: W
LayerCount: 2
Fore
SplineSet
298 0 m 1,0,-1
 298 226 l 2,1,2
 298 247 298 247 294.5 266.5 c 128,-1,3
 291 286 291 286 282 302 c 128,-1,4
 273 318 273 318 257.5 327.5 c 128,-1,5
 242 337 242 337 217 337 c 0,6,7
 164 337 164 337 143 305.5 c 128,-1,8
 122 274 122 274 122 226 c 2,9,-1
 122 0 l 1,10,-1
 38 0 l 1,11,-1
 38 410 l 1,12,-1
 119 410 l 1,13,-1
 119 353 l 1,14,15
 128 391 128 391 153.5 409 c 128,-1,16
 179 427 179 427 217 427 c 0,17,18
 264 427 264 427 295.5 411.5 c 128,-1,19
 327 396 327 396 346 368.5 c 128,-1,20
 365 341 365 341 373 304.5 c 128,-1,21
 381 268 381 268 381 226 c 2,22,-1
 381 0 l 1,23,-1
 298 0 l 1,0,-1
EndSplineSet
EndChar

StartChar: o
Encoding: 111 111 82
Width: 512
GlyphClass: 2
Flags: W
LayerCount: 2
Fore
SplineSet
257 357 m 0,0,1
 227 357 227 357 200.5 346 c 128,-1,2
 174 335 174 335 154.5 316 c 128,-1,3
 135 297 135 297 124 271 c 128,-1,4
 113 245 113 245 113 215 c 0,5,6
 113 149 113 149 148.5 105.5 c 128,-1,7
 184 62 184 62 254 62 c 0,8,9
 322 62 322 62 362.5 103.5 c 128,-1,10
 403 145 403 145 403 213 c 0,11,12
 403 278 403 278 362.5 317.5 c 128,-1,13
 322 357 322 357 257 357 c 0,0,1
486 211 m 0,14,15
 486 160 486 160 468.5 119 c 128,-1,16
 451 78 451 78 420 48.5 c 128,-1,17
 389 19 389 19 346.5 3 c 128,-1,18
 304 -13 304 -13 254 -13 c 256,19,20
 204 -13 204 -13 162 2.5 c 128,-1,21
 120 18 120 18 90 47.5 c 128,-1,22
 60 77 60 77 43 118 c 128,-1,23
 26 159 26 159 26 210 c 0,24,25
 26 260 26 260 44 301 c 128,-1,26
 62 342 62 342 93 371.5 c 128,-1,27
 124 401 124 401 166.5 417 c 128,-1,28
 209 433 209 433 259 433 c 0,29,30
 308 433 308 433 350 417 c 128,-1,31
 392 401 392 401 422 372 c 128,-1,32
 452 343 452 343 469 302 c 128,-1,33
 486 261 486 261 486 211 c 0,14,15
EndSplineSet
EndChar

StartChar: p
Encoding: 112 112 83
Width: 437
GlyphClass: 2
Flags: W
LayerCount: 2
Fore
SplineSet
212 -10 m 0,0,1
 180 -10 180 -10 155 3.5 c 128,-1,2
 130 17 130 17 118 48 c 1,3,-1
 118 -201 l 1,4,-1
 38 -201 l 1,5,-1
 38 410 l 1,6,-1
 119 410 l 1,7,-1
 119 363 l 1,8,9
 136 390 136 390 161.5 405 c 128,-1,10
 187 420 187 420 219 420 c 0,11,12
 428 420 428 420 428 210 c 0,13,14
 428 101 428 101 375 45.5 c 128,-1,15
 322 -10 322 -10 212 -10 c 0,0,1
219 70 m 0,16,17
 286 70 286 70 314.5 108 c 128,-1,18
 343 146 343 146 343 209 c 256,19,20
 343 272 343 272 315 310.5 c 128,-1,21
 287 349 287 349 219 349 c 0,22,23
 188 349 188 349 168.5 337 c 128,-1,24
 149 325 149 325 138 305 c 128,-1,25
 127 285 127 285 123 260 c 128,-1,26
 119 235 119 235 119 209 c 256,27,28
 119 183 119 183 123 158 c 128,-1,29
 127 133 127 133 138 113.5 c 128,-1,30
 149 94 149 94 168.5 82 c 128,-1,31
 188 70 188 70 219 70 c 0,16,17
EndSplineSet
EndChar

StartChar: q
Encoding: 113 113 84
Width: 443
GlyphClass: 2
Flags: W
LayerCount: 2
Fore
SplineSet
225 420 m 0,0,1
 256 420 256 420 285 409 c 128,-1,2
 314 398 314 398 325 366 c 1,3,-1
 325 410 l 1,4,-1
 406 410 l 1,5,-1
 406 -201 l 1,6,-1
 326 -201 l 1,7,-1
 326 35 l 1,8,9
 322 21 322 21 309 12 c 128,-1,10
 296 3 296 3 280 -2 c 128,-1,11
 264 -7 264 -7 247.5 -8.5 c 128,-1,12
 231 -10 231 -10 219 -10 c 0,13,14
 112 -10 112 -10 60.5 44.5 c 128,-1,15
 9 99 9 99 9 205 c 0,16,17
 9 420 9 420 225 420 c 0,0,1
222 71 m 0,18,19
 254 71 254 71 274.5 83 c 128,-1,20
 295 95 295 95 306.5 115.5 c 128,-1,21
 318 136 318 136 322.5 161.5 c 128,-1,22
 327 187 327 187 327 214 c 0,23,24
 327 268 327 268 303.5 303.5 c 128,-1,25
 280 339 280 339 221 339 c 0,26,27
 155 339 155 339 122 305 c 128,-1,28
 89 271 89 271 89 205 c 0,29,30
 89 71 89 71 222 71 c 0,18,19
EndSplineSet
EndChar

StartChar: r
Encoding: 114 114 85
Width: 317
GlyphClass: 2
Flags: W
LayerCount: 2
Fore
SplineSet
257 425 m 256,0,1
 272 425 272 425 286 421 c 128,-1,2
 300 417 300 417 313 410 c 1,3,-1
 277 330 l 1,4,5
 265 333 265 333 251 333 c 0,6,7
 209 333 209 333 182.5 315.5 c 128,-1,8
 156 298 156 298 141 269 c 128,-1,9
 126 240 126 240 120.5 204 c 128,-1,10
 115 168 115 168 114 131 c 128,-1,11
 113 94 113 94 115 59.5 c 128,-1,12
 117 25 117 25 117 0 c 1,13,-1
 37 0 l 1,14,-1
 37 410 l 1,15,-1
 118 410 l 1,16,-1
 118 346 l 1,17,18
 119 363 119 363 135.5 377.5 c 128,-1,19
 152 392 152 392 174 402.5 c 128,-1,20
 196 413 196 413 219 419 c 128,-1,21
 242 425 242 425 257 425 c 256,0,1
EndSplineSet
EndChar

StartChar: s
Encoding: 115 115 86
Width: 356
GlyphClass: 2
Flags: W
LayerCount: 2
Fore
SplineSet
18 72 m 1,0,-1
 83 124 l 1,1,2
 100 100 100 100 125.5 86 c 128,-1,3
 151 72 151 72 181 72 c 0,4,5
 207 72 207 72 224 83.5 c 128,-1,6
 241 95 241 95 241 124 c 0,7,8
 241 143 241 143 227.5 154 c 128,-1,9
 214 165 214 165 194 174 c 128,-1,10
 174 183 174 183 151 192.5 c 128,-1,11
 128 202 128 202 108 218.5 c 128,-1,12
 88 235 88 235 74.5 260.5 c 128,-1,13
 61 286 61 286 61 327 c 0,14,15
 61 351 61 351 71 370.5 c 128,-1,16
 81 390 81 390 97.5 403.5 c 128,-1,17
 114 417 114 417 135 424 c 128,-1,18
 156 431 156 431 179 431 c 0,19,20
 214 431 214 431 249.5 422 c 128,-1,21
 285 413 285 413 309 384 c 1,22,-1
 271 327 l 1,23,24
 256 343 256 343 235 349.5 c 128,-1,25
 214 356 214 356 192 356 c 0,26,27
 172 356 172 356 155 345.5 c 128,-1,28
 138 335 138 335 138 313 c 0,29,30
 138 292 138 292 152.5 280.5 c 128,-1,31
 167 269 167 269 188 260 c 128,-1,32
 209 251 209 251 234.5 242 c 128,-1,33
 260 233 260 233 281 218 c 128,-1,34
 302 203 302 203 316.5 179.5 c 128,-1,35
 331 156 331 156 331 118 c 0,36,37
 331 87 331 87 318.5 63 c 128,-1,38
 306 39 306 39 285 23 c 128,-1,39
 264 7 264 7 237 -1.5 c 128,-1,40
 210 -10 210 -10 182 -10 c 0,41,42
 131 -10 131 -10 89 10 c 128,-1,43
 47 30 47 30 18 72 c 1,0,-1
EndSplineSet
EndChar

StartChar: t
Encoding: 116 116 87
Width: 221
GlyphClass: 2
Flags: W
LayerCount: 2
Fore
SplineSet
155 404 m 1,0,-1
 210 404 l 1,1,-1
 210 314 l 1,2,-1
 153 314 l 1,3,-1
 153 0 l 1,4,-1
 66 0 l 1,5,-1
 66 314 l 1,6,-1
 12 314 l 1,7,-1
 12 404 l 1,8,-1
 69 404 l 1,9,-1
 69 596 l 1,10,-1
 155 627 l 1,11,-1
 155 404 l 1,12,-1
 155 404 l 1,0,-1
EndSplineSet
EndChar

StartChar: u
Encoding: 117 117 88
Width: 411
GlyphClass: 2
Flags: W
LayerCount: 2
Fore
SplineSet
33 199 m 2,0,-1
 33 410 l 1,1,-1
 119 410 l 1,2,-1
 119 190 l 2,3,4
 119 167 119 167 123 144.5 c 128,-1,5
 127 122 127 122 137 105 c 128,-1,6
 147 88 147 88 165 77.5 c 128,-1,7
 183 67 183 67 210 67 c 0,8,9
 238 67 238 67 255 82.5 c 128,-1,10
 272 98 272 98 280.5 120.5 c 128,-1,11
 289 143 289 143 291.5 169 c 128,-1,12
 294 195 294 195 294 216 c 2,13,-1
 294 410 l 1,14,-1
 374 410 l 1,15,-1
 374 0 l 1,16,-1
 291 0 l 1,17,-1
 291 37 l 1,18,19
 285 20 285 20 272.5 11 c 128,-1,20
 260 2 260 2 244 -3 c 128,-1,21
 228 -8 228 -8 211 -9 c 128,-1,22
 194 -10 194 -10 180 -10 c 0,23,24
 135 -10 135 -10 106 8.5 c 128,-1,25
 77 27 77 27 61 56.5 c 128,-1,26
 45 86 45 86 39 123.5 c 128,-1,27
 33 161 33 161 33 199 c 2,0,-1
EndSplineSet
EndChar

StartChar: v
Encoding: 118 118 89
Width: 412
GlyphClass: 2
Flags: W
LayerCount: 2
Fore
SplineSet
400 402 m 1,0,-1
 202 -42 l 1,1,-1
 12 401 l 1,2,-1
 97 424 l 1,3,-1
 100 422 l 1,4,-1
 203 176 l 1,5,-1
 317 426 l 1,6,-1
 400 402 l 1,7,-1
 400 402 l 1,0,-1
EndSplineSet
EndChar

StartChar: w
Encoding: 119 119 90
Width: 617
GlyphClass: 2
Flags: W
LayerCount: 2
Fore
SplineSet
19 396 m 1,0,-1
 97 423 l 1,1,-1
 208 173 l 1,2,-1
 308 396 l 1,3,-1
 409 173 l 1,4,-1
 523 423 l 1,5,-1
 598 396 l 1,6,-1
 409 -33 l 1,7,-1
 308 180 l 1,8,-1
 208 -33 l 1,9,-1
 19 396 l 1,10,-1
 19 396 l 1,0,-1
EndSplineSet
EndChar

StartChar: x
Encoding: 120 120 91
Width: 426
GlyphClass: 2
Flags: W
LayerCount: 2
Fore
SplineSet
165 228 m 1,0,-1
 48 398 l 1,1,-1
 140 425 l 1,2,-1
 216 303 l 1,3,-1
 296 426 l 1,4,-1
 376 398 l 1,5,-1
 265 229 l 1,6,-1
 400 25 l 2,7,8
 400 24 400 24 389 17.5 c 128,-1,9
 378 11 378 11 365 3.5 c 128,-1,10
 352 -4 352 -4 340.5 -11 c 128,-1,11
 329 -18 329 -18 326 -19 c 1,12,-1
 215 154 l 1,13,-1
 105 -19 l 1,14,-1
 24 24 l 1,15,-1
 165 228 l 1,0,-1
EndSplineSet
EndChar

StartChar: y
Encoding: 121 121 92
Width: 443
GlyphClass: 2
Flags: W
LayerCount: 2
Fore
SplineSet
180 72 m 1,0,-1
 27 402 l 1,1,-1
 113 431 l 1,2,-1
 230 176 l 1,3,-1
 358 432 l 1,4,-1
 437 402 l 1,5,-1
 150 -187 l 1,6,-1
 45 -187 l 1,7,-1
 180 72 l 1,8,-1
 180 72 l 1,0,-1
EndSplineSet
EndChar

StartChar: z
Encoding: 122 122 93
Width: 449
GlyphClass: 2
Flags: W
LayerCount: 2
Fore
SplineSet
81 332 m 1,0,-1
 105 414 l 1,1,-1
 410 414 l 1,2,-1
 188 86 l 1,3,-1
 416 86 l 1,4,-1
 416 0 l 1,5,-1
 23 0 l 1,6,-1
 259 332 l 1,7,-1
 81 332 l 1,8,-1
 81 332 l 1,0,-1
EndSplineSet
EndChar

StartChar: braceleft
Encoding: 123 123 94
Width: 326
GlyphClass: 2
Flags: W
LayerCount: 2
Fore
SplineSet
89 325 m 1,0,1
 139 292 139 292 161.5 261.5 c 128,-1,2
 184 231 184 231 192 202 c 128,-1,3
 200 173 200 173 200 144.5 c 128,-1,4
 200 116 200 116 206 88.5 c 128,-1,5
 212 61 212 61 230 33.5 c 128,-1,6
 248 6 248 6 292 -22 c 1,7,-1
 292 -134 l 1,8,9
 241 -109 241 -109 205.5 -78 c 128,-1,10
 170 -47 170 -47 147.5 -8.5 c 128,-1,11
 125 30 125 30 114.5 76 c 128,-1,12
 104 122 104 122 103 177 c 0,13,14
 103 197 103 197 94 214 c 128,-1,15
 85 231 85 231 71 245 c 128,-1,16
 57 259 57 259 40 270 c 128,-1,17
 23 281 23 281 7 289 c 1,18,-1
 8 366 l 1,19,20
 54 386 54 386 73.5 415.5 c 128,-1,21
 93 445 93 445 100.5 480 c 128,-1,22
 108 515 108 515 111.5 553.5 c 128,-1,23
 115 592 115 592 131 631 c 128,-1,24
 147 670 147 670 183.5 707.5 c 128,-1,25
 220 745 220 745 292 778 c 1,26,-1
 292 675 l 1,27,28
 248 645 248 645 229.5 617 c 128,-1,29
 211 589 211 589 205.5 561.5 c 128,-1,30
 200 534 200 534 200 506 c 128,-1,31
 200 478 200 478 192 449 c 128,-1,32
 184 420 184 420 161.5 389 c 128,-1,33
 139 358 139 358 89 325 c 1,0,1
EndSplineSet
EndChar

StartChar: bar
Encoding: 124 124 95
Width: 163
GlyphClass: 2
Flags: W
LayerCount: 2
Fore
SplineSet
38 -200 m 1,0,-1
 38 782 l 1,1,-1
 127 782 l 1,2,-1
 127 -200 l 1,3,-1
 38 -200 l 1,4,-1
 38 -200 l 1,0,-1
EndSplineSet
EndChar

StartChar: braceright
Encoding: 125 125 96
Width: 327
GlyphClass: 2
Flags: W
LayerCount: 2
Fore
SplineSet
35 675 m 1,0,-1
 35 778 l 1,1,2
 89 753 89 753 122.5 726 c 128,-1,3
 156 699 156 699 175 670 c 128,-1,4
 194 641 194 641 202.5 612 c 128,-1,5
 211 583 211 583 215.5 554 c 128,-1,6
 220 525 220 525 223.5 498 c 128,-1,7
 227 471 227 471 236.5 447 c 128,-1,8
 246 423 246 423 265 402.5 c 128,-1,9
 284 382 284 382 319 366 c 1,10,-1
 320 289 l 1,11,12
 304 281 304 281 287 270 c 128,-1,13
 270 259 270 259 256 245 c 128,-1,14
 242 231 242 231 233 214 c 128,-1,15
 224 197 224 197 224 177 c 0,16,17
 221 69 221 69 178.5 -8 c 128,-1,18
 136 -85 136 -85 35 -134 c 1,19,-1
 35 -22 l 1,20,21
 79 6 79 6 97 33.5 c 128,-1,22
 115 61 115 61 121 88.5 c 128,-1,23
 127 116 127 116 127 144.5 c 128,-1,24
 127 173 127 173 135 202 c 128,-1,25
 143 231 143 231 165.5 261.5 c 128,-1,26
 188 292 188 292 238 325 c 1,27,28
 187 358 187 358 165 389 c 128,-1,29
 143 420 143 420 135 449 c 128,-1,30
 127 478 127 478 127 506 c 128,-1,31
 127 534 127 534 121.5 561.5 c 128,-1,32
 116 589 116 589 97.5 617.5 c 128,-1,33
 79 646 79 646 35 675 c 1,0,-1
EndSplineSet
EndChar

StartChar: asciitilde
Encoding: 126 126 97
Width: 359
GlyphClass: 2
Flags: W
LayerCount: 2
Fore
SplineSet
122 315 m 0,0,1
 108 315 108 315 101 308.5 c 128,-1,2
 94 302 94 302 91.5 293.5 c 128,-1,3
 89 285 89 285 90 277.5 c 128,-1,4
 91 270 91 270 94 269 c 1,5,-1
 39 244 l 1,6,-1
 39 245 l 1,7,8
 35 254 35 254 32.5 264 c 128,-1,9
 30 274 30 274 30 285 c 0,10,11
 30 304 30 304 38.5 319.5 c 128,-1,12
 47 335 47 335 61.5 346 c 128,-1,13
 76 357 76 357 93.5 363 c 128,-1,14
 111 369 111 369 129 369 c 0,15,16
 157 369 157 369 172 358.5 c 128,-1,17
 187 348 187 348 197 335.5 c 128,-1,18
 207 323 207 323 215 312.5 c 128,-1,19
 223 302 223 302 238 302 c 0,20,21
 252 302 252 302 259 308.5 c 128,-1,22
 266 315 266 315 268.5 323.5 c 128,-1,23
 271 332 271 332 269.5 339 c 128,-1,24
 268 346 268 346 265 348 c 1,25,-1
 321 373 l 1,26,-1
 321 372 l 1,27,28
 325 363 325 363 327.5 353 c 128,-1,29
 330 343 330 343 330 332 c 0,30,31
 330 313 330 313 321.5 297.5 c 128,-1,32
 313 282 313 282 298.5 271 c 128,-1,33
 284 260 284 260 266.5 254 c 128,-1,34
 249 248 249 248 231 248 c 0,35,36
 202 248 202 248 187.5 258.5 c 128,-1,37
 173 269 173 269 163 281.5 c 128,-1,38
 153 294 153 294 145 304.5 c 128,-1,39
 137 315 137 315 122 315 c 0,0,1
EndSplineSet
EndChar

StartChar: exclamdown
Encoding: 161 161 98
Width: 161
GlyphClass: 2
Flags: W
LayerCount: 2
Fore
SplineSet
40 0 m 1,0,-1
 40 441 l 1,1,-1
 120 441 l 1,2,-1
 120 0 l 1,3,-1
 40 0 l 1,0,-1
81 576 m 0,4,5
 57 576 57 576 40 593 c 128,-1,6
 23 610 23 610 23 634 c 256,7,8
 23 658 23 658 39.5 677 c 128,-1,9
 56 696 56 696 81 696 c 256,10,11
 106 696 106 696 122.5 676.5 c 128,-1,12
 139 657 139 657 139 633 c 0,13,14
 139 608 139 608 122.5 592 c 128,-1,15
 106 576 106 576 81 576 c 0,4,5
EndSplineSet
EndChar

StartChar: cent
Encoding: 162 162 99
Width: 348
GlyphClass: 2
Flags: W
LayerCount: 2
Fore
SplineSet
329 446 m 1,0,1
 309 460 309 460 287 469 c 128,-1,2
 265 478 265 478 241 478 c 1,3,-1
 241 245 l 1,4,5
 287 255 287 255 329 282 c 1,6,-1
 329 201 l 1,7,8
 309 188 309 188 286.5 180.5 c 128,-1,9
 264 173 264 173 241 173 c 1,10,-1
 241 94 l 1,11,-1
 180 94 l 1,12,-1
 180 174 l 1,13,14
 142 174 142 174 111 189 c 128,-1,15
 80 204 80 204 58 229.5 c 128,-1,16
 36 255 36 255 24.5 288.5 c 128,-1,17
 13 322 13 322 13 358 c 0,18,19
 13 435 13 435 59 485 c 128,-1,20
 105 535 105 535 180 547 c 1,21,-1
 180 610 l 1,22,-1
 241 610 l 1,23,-1
 241 549 l 1,24,25
 264 549 264 549 286 541.5 c 128,-1,26
 308 534 308 534 329 526 c 1,27,-1
 329 446 l 1,0,1
180 478 m 1,28,29
 160 474 160 474 143.5 463 c 128,-1,30
 127 452 127 452 115 436.5 c 128,-1,31
 103 421 103 421 96.5 402 c 128,-1,32
 90 383 90 383 90 363 c 0,33,34
 90 320 90 320 112.5 286.5 c 128,-1,35
 135 253 135 253 180 245 c 1,36,-1
 180 478 l 1,28,29
EndSplineSet
EndChar

StartChar: yen
Encoding: 165 165 100
Width: 609
GlyphClass: 2
Flags: W
LayerCount: 2
Fore
SplineSet
18 692 m 1,0,-1
 124 692 l 1,1,-1
 307 418 l 1,2,-1
 486 692 l 1,3,-1
 592 692 l 1,4,-1
 388 380 l 1,5,-1
 550 380 l 1,6,-1
 550 292 l 1,7,-1
 357 292 l 1,8,-1
 357 200 l 1,9,-1
 553 200 l 1,10,-1
 553 112 l 1,11,-1
 357 112 l 1,12,-1
 357 0 l 1,13,-1
 258 0 l 1,14,-1
 258 112 l 1,15,-1
 50 112 l 1,16,-1
 50 200 l 1,17,-1
 258 200 l 1,18,-1
 258 292 l 1,19,-1
 47 292 l 1,20,-1
 47 380 l 1,21,-1
 226 380 l 1,22,-1
 18 692 l 1,23,-1
 18 692 l 1,0,-1
EndSplineSet
EndChar

StartChar: dieresis
Encoding: 168 168 101
Width: 368
GlyphClass: 2
Flags: W
LayerCount: 2
Fore
SplineSet
32 543 m 256,0,1
 32 569 32 569 48.5 585 c 128,-1,2
 65 601 65 601 91 601 c 0,3,4
 116 601 116 601 132 585.5 c 128,-1,5
 148 570 148 570 148 545 c 0,6,7
 148 519 148 519 132 501.5 c 128,-1,8
 116 484 116 484 90 484 c 256,9,10
 64 484 64 484 48 500.5 c 128,-1,11
 32 517 32 517 32 543 c 256,0,1
219 543 m 256,12,13
 219 569 219 569 235.5 585 c 128,-1,14
 252 601 252 601 278 601 c 0,15,16
 303 601 303 601 319 585.5 c 128,-1,17
 335 570 335 570 335 545 c 0,18,19
 335 519 335 519 319 501.5 c 128,-1,20
 303 484 303 484 277 484 c 256,21,22
 251 484 251 484 235 500.5 c 128,-1,23
 219 517 219 517 219 543 c 256,12,13
EndSplineSet
EndChar

StartChar: guillemotleft
Encoding: 171 171 102
Width: 458
GlyphClass: 2
Flags: W
LayerCount: 2
Fore
SplineSet
422 428 m 1,0,-1
 422 341 l 1,1,-1
 344 288 l 1,2,-1
 422 229 l 1,3,-1
 422 138 l 1,4,-1
 219 289 l 1,5,-1
 422 428 l 1,6,-1
 422 428 l 1,0,-1
215 430 m 1,7,-1
 215 344 l 1,8,-1
 137 290 l 1,9,-1
 215 232 l 1,10,-1
 215 140 l 1,11,-1
 11 292 l 1,12,-1
 215 430 l 1,13,-1
 215 430 l 1,7,-1
EndSplineSet
EndChar

StartChar: macron
Encoding: 175 175 103
Width: 404
GlyphClass: 2
Flags: W
LayerCount: 2
Fore
SplineSet
37 515 m 1,0,-1
 37 570 l 1,1,-1
 368 570 l 1,2,-1
 368 516 l 1,3,-1
 37 515 l 1,4,-1
 37 515 l 1,0,-1
EndSplineSet
EndChar

StartChar: degree
Encoding: 176 176 104
Width: 189
GlyphClass: 2
Flags: W
LayerCount: 2
Fore
SplineSet
71 802 m 256,0,1
 71 791 71 791 78 785 c 128,-1,2
 85 779 85 779 95 779 c 0,3,4
 106 779 106 779 113 785.5 c 128,-1,5
 120 792 120 792 120 803 c 256,6,7
 120 814 120 814 113.5 820.5 c 128,-1,8
 107 827 107 827 96 827 c 256,9,10
 85 827 85 827 78 820 c 128,-1,11
 71 813 71 813 71 802 c 256,0,1
25 801 m 256,12,13
 25 831 25 831 45.5 848.5 c 128,-1,14
 66 866 66 866 95 866 c 0,15,16
 122 866 122 866 143.5 846.5 c 128,-1,17
 165 827 165 827 165 799 c 0,18,19
 165 770 165 770 144.5 750 c 128,-1,20
 124 730 124 730 95 730 c 0,21,22
 65 730 65 730 45 750.5 c 128,-1,23
 25 771 25 771 25 801 c 256,12,13
EndSplineSet
EndChar

StartChar: plusminus
Encoding: 177 177 105
Width: 425
GlyphClass: 2
Flags: W
LayerCount: 2
Fore
SplineSet
407 127 m 1,0,-1
 19 127 l 1,1,-1
 19 218 l 1,2,-1
 407 218 l 1,3,-1
 407 127 l 1,4,-1
 407 127 l 1,0,-1
394 474 m 1,5,-1
 258 474 l 1,6,-1
 258 318 l 1,7,-1
 168 318 l 1,8,-1
 168 473 l 1,9,-1
 27 473 l 1,10,-1
 27 561 l 1,11,-1
 167 561 l 1,12,-1
 167 707 l 1,13,-1
 257 707 l 1,14,-1
 257 564 l 1,15,-1
 394 564 l 1,16,-1
 394 474 l 1,17,-1
 394 474 l 1,5,-1
EndSplineSet
EndChar

StartChar: twosuperior
Encoding: 178 178 106
Width: 303
GlyphClass: 2
Flags: W
LayerCount: 2
Fore
SplineSet
182 728 m 1,0,-1
 181 728 l 1,1,2
 189 741 189 741 195.5 755 c 128,-1,3
 202 769 202 769 202 784 c 0,4,5
 202 801 202 801 191.5 813.5 c 128,-1,6
 181 826 181 826 163 826 c 0,7,8
 144 826 144 826 129 815 c 128,-1,9
 114 804 114 804 108 786 c 1,10,-1
 54 820 l 1,11,12
 69 853 69 853 96.5 868.5 c 128,-1,13
 124 884 124 884 160 884 c 0,14,15
 205 884 205 884 234 862.5 c 128,-1,16
 263 841 263 841 263 793 c 0,17,18
 263 764 263 764 250 734.5 c 128,-1,19
 237 705 237 705 218.5 677.5 c 128,-1,20
 200 650 200 650 179.5 625 c 128,-1,21
 159 600 159 600 143 579 c 1,22,-1
 273 579 l 1,23,-1
 273 517 l 1,24,-1
 20 517 l 1,25,-1
 182 728 l 1,0,-1
EndSplineSet
EndChar

StartChar: threesuperior
Encoding: 179 179 107
Width: 323
GlyphClass: 2
Flags: W
LayerCount: 2
Fore
SplineSet
62 896 m 1,0,-1
 301 896 l 1,1,-1
 198 754 l 1,2,3
 243 742 243 742 262 715 c 128,-1,4
 281 688 281 688 281 641 c 0,5,6
 281 613 281 613 270 590 c 128,-1,7
 259 567 259 567 241 550.5 c 128,-1,8
 223 534 223 534 198.5 525 c 128,-1,9
 174 516 174 516 147 516 c 0,10,11
 115 516 115 516 83.5 525.5 c 128,-1,12
 52 535 52 535 23 550 c 1,13,-1
 62 601 l 1,14,15
 79 593 79 593 98 585 c 128,-1,16
 117 577 117 577 136 577 c 0,17,18
 154 577 154 577 169.5 579.5 c 128,-1,19
 185 582 185 582 196.5 589.5 c 128,-1,20
 208 597 208 597 215 610 c 128,-1,21
 222 623 222 623 222 643 c 0,22,23
 222 665 222 665 207.5 678.5 c 128,-1,24
 193 692 193 692 173 699 c 128,-1,25
 153 706 153 706 131 708 c 128,-1,26
 109 710 109 710 93 710 c 1,27,-1
 187 836 l 1,28,-1
 62 836 l 1,29,-1
 62 896 l 1,0,-1
EndSplineSet
EndChar

StartChar: acute
Encoding: 180 180 108
Width: 219
GlyphClass: 2
Flags: W
LayerCount: 2
Fore
SplineSet
211 579 m 1,0,-1
 59 458 l 1,1,-1
 9 505 l 1,2,-1
 149 652 l 1,3,-1
 211 579 l 1,4,-1
 211 579 l 1,0,-1
EndSplineSet
EndChar

StartChar: cedilla
Encoding: 184 184 109
Width: 156
GlyphClass: 2
Flags: W
LayerCount: 2
Fore
SplineSet
48 -128 m 1,0,1
 56 -138 56 -138 67 -138 c 256,2,3
 78 -138 78 -138 85.5 -130 c 128,-1,4
 93 -122 93 -122 93 -111 c 0,5,6
 93 -94 93 -94 81.5 -89.5 c 128,-1,7
 70 -85 70 -85 56 -90 c 1,8,-1
 56 5 l 1,9,-1
 98 5 l 1,10,-1
 98 -55 l 1,11,12
 116 -64 116 -64 127 -79.5 c 128,-1,13
 138 -95 138 -95 138 -115 c 0,14,15
 138 -145 138 -145 116.5 -164 c 128,-1,16
 95 -183 95 -183 66 -183 c 0,17,18
 49 -183 49 -183 36.5 -176.5 c 128,-1,19
 24 -170 24 -170 13 -158 c 1,20,-1
 48 -128 l 1,0,1
EndSplineSet
EndChar

StartChar: onesuperior
Encoding: 185 185 110
Width: 154
GlyphClass: 2
Flags: W
LayerCount: 2
Fore
SplineSet
51 765 m 1,0,-1
 47 761 l 1,1,-1
 3 800 l 1,2,3
 32 827 32 827 59.5 855 c 128,-1,4
 87 883 87 883 115 911 c 1,5,-1
 117 569 l 1,6,-1
 117 522 l 1,7,-1
 52 522 l 1,8,9
 52 583 52 583 51.5 643.5 c 128,-1,10
 51 704 51 704 51 765 c 1,0,-1
EndSplineSet
EndChar

StartChar: guillemotright
Encoding: 187 187 111
Width: 460
GlyphClass: 2
Flags: W
LayerCount: 2
Fore
SplineSet
37 428 m 1,0,-1
 241 289 l 1,1,-1
 37 138 l 1,2,-1
 37 229 l 1,3,-1
 115 288 l 1,4,-1
 37 341 l 1,5,-1
 37 428 l 1,6,-1
 37 428 l 1,0,-1
245 430 m 1,7,-1
 448 292 l 1,8,-1
 245 140 l 1,9,-1
 245 232 l 1,10,-1
 323 290 l 1,11,-1
 245 344 l 1,12,-1
 245 430 l 1,13,-1
 245 430 l 1,7,-1
EndSplineSet
EndChar

StartChar: questiondown
Encoding: 191 191 112
Width: 379
GlyphClass: 2
Flags: W
LayerCount: 2
Fore
SplineSet
363 70 m 1,0,1
 331 32 331 32 287.5 16 c 128,-1,2
 244 0 244 0 195 0 c 0,3,4
 154 0 154 0 120 13 c 128,-1,5
 86 26 86 26 62 49.5 c 128,-1,6
 38 73 38 73 24.5 106.5 c 128,-1,7
 11 140 11 140 11 181 c 0,8,9
 11 230 11 230 32 263.5 c 128,-1,10
 53 297 53 297 80 324 c 128,-1,11
 107 351 107 351 134 377 c 128,-1,12
 161 403 161 403 173 438 c 0,13,14
 181 460 181 460 179.5 483 c 128,-1,15
 178 506 178 506 182 529 c 1,16,-1
 268 529 l 1,17,-1
 268 501 l 2,18,19
 268 459 268 459 255 426 c 128,-1,20
 242 393 242 393 222.5 367 c 128,-1,21
 203 341 203 341 180.5 319 c 128,-1,22
 158 297 158 297 138.5 277 c 128,-1,23
 119 257 119 257 106 236 c 128,-1,24
 93 215 93 215 93 191 c 0,25,26
 93 77 93 77 208 77 c 0,27,28
 231 77 231 77 246 81 c 128,-1,29
 261 85 261 85 273 92.5 c 128,-1,30
 285 100 285 100 295.5 111.5 c 128,-1,31
 306 123 306 123 321 139 c 1,32,-1
 363 70 l 1,0,1
225 749 m 256,33,34
 250 749 250 749 266.5 731 c 128,-1,35
 283 713 283 713 283 689 c 256,36,37
 283 665 283 665 266 647.5 c 128,-1,38
 249 630 249 630 225 630 c 0,39,40
 200 630 200 630 183.5 646.5 c 128,-1,41
 167 663 167 663 167 688 c 0,42,43
 167 712 167 712 183.5 730.5 c 128,-1,44
 200 749 200 749 225 749 c 256,33,34
EndSplineSet
EndChar

StartChar: Agrave
Encoding: 192 192 113
Width: 657
GlyphClass: 2
Flags: W
LayerCount: 2
Fore
SplineSet
232 266 m 1,0,-1
 433 266 l 1,1,-1
 336 514 l 1,2,-1
 232 266 l 1,0,-1
337 731 m 1,3,4
 407 545 407 545 487 364 c 128,-1,5
 567 183 567 183 645 0 c 1,6,-1
 563 -37 l 1,7,-1
 469 175 l 1,8,-1
 194 175 l 1,9,-1
 98 -37 l 1,10,-1
 13 0 l 1,11,12
 94 184 94 184 174.5 366 c 128,-1,13
 255 548 255 548 337 731 c 1,3,4
289 926 m 1,14,-1
 429 779 l 1,15,-1
 379 732 l 1,16,-1
 227 853 l 1,17,-1
 289 926 l 1,14,-1
EndSplineSet
EndChar

StartChar: Aacute
Encoding: 193 193 114
Width: 657
GlyphClass: 2
Flags: W
LayerCount: 2
Fore
SplineSet
368 926 m 1,0,-1
 430 853 l 1,1,-1
 278 732 l 1,2,-1
 228 779 l 1,3,-1
 368 926 l 1,0,-1
320 731 m 1,4,5
 402 548 402 548 482.5 366 c 128,-1,6
 563 184 563 184 644 0 c 1,7,-1
 559 -37 l 1,8,-1
 463 175 l 1,9,-1
 188 175 l 1,10,-1
 94 -37 l 1,11,-1
 12 0 l 1,12,13
 90 183 90 183 170 364 c 128,-1,14
 250 545 250 545 320 731 c 1,4,5
425 266 m 1,15,-1
 321 514 l 1,16,-1
 224 266 l 1,17,-1
 425 266 l 1,15,-1
EndSplineSet
EndChar

StartChar: Acircumflex
Encoding: 194 194 115
Width: 659
GlyphClass: 2
Flags: W
LayerCount: 2
Fore
SplineSet
322 731 m 1,0,1
 404 548 404 548 484.5 366 c 128,-1,2
 565 184 565 184 646 0 c 1,3,-1
 561 -37 l 1,4,-1
 465 175 l 1,5,-1
 190 175 l 1,6,-1
 96 -37 l 1,7,-1
 14 0 l 1,8,9
 92 183 92 183 172 364 c 128,-1,10
 252 545 252 545 322 731 c 1,0,1
427 266 m 1,11,-1
 323 514 l 1,12,-1
 226 266 l 1,13,-1
 427 266 l 1,11,-1
468 739 m 1,14,-1
 393 739 l 1,15,-1
 328 830 l 1,16,-1
 257 739 l 1,17,-1
 177 739 l 1,18,-1
 329 943 l 1,19,-1
 468 739 l 1,14,-1
EndSplineSet
EndChar

StartChar: Atilde
Encoding: 195 195 116
Width: 651
GlyphClass: 2
Flags: W
LayerCount: 2
Fore
SplineSet
318 731 m 1,0,1
 400 548 400 548 480.5 366 c 128,-1,2
 561 184 561 184 642 0 c 1,3,-1
 557 -37 l 1,4,-1
 461 175 l 1,5,-1
 186 175 l 1,6,-1
 92 -37 l 1,7,-1
 10 0 l 1,8,9
 88 183 88 183 168 364 c 128,-1,10
 248 545 248 545 318 731 c 1,0,1
423 266 m 1,11,-1
 319 514 l 1,12,-1
 222 266 l 1,13,-1
 423 266 l 1,11,-1
274 846 m 256,14,15
 263 846 263 846 258 841 c 128,-1,16
 253 836 253 836 251 829.5 c 128,-1,17
 249 823 249 823 250 817.5 c 128,-1,18
 251 812 251 812 253 811 c 1,19,-1
 211 792 l 1,20,-1
 211 793 l 1,21,22
 204 809 204 809 204 823 c 0,23,24
 204 838 204 838 210.5 849.5 c 128,-1,25
 217 861 217 861 228 869.5 c 128,-1,26
 239 878 239 878 252 882.5 c 128,-1,27
 265 887 265 887 279 887 c 0,28,29
 301 887 301 887 312.5 879 c 128,-1,30
 324 871 324 871 331 861.5 c 128,-1,31
 338 852 338 852 344.5 844 c 128,-1,32
 351 836 351 836 362 836 c 0,33,34
 372 836 372 836 377.5 841 c 128,-1,35
 383 846 383 846 385 852.5 c 128,-1,36
 387 859 387 859 386 864.5 c 128,-1,37
 385 870 385 870 383 871 c 1,38,-1
 425 890 l 1,39,-1
 425 889 l 1,40,41
 432 873 432 873 432 859 c 0,42,43
 432 844 432 844 425.5 832.5 c 128,-1,44
 419 821 419 821 408 812.5 c 128,-1,45
 397 804 397 804 383.5 799.5 c 128,-1,46
 370 795 370 795 357 795 c 0,47,48
 335 795 335 795 323.5 803 c 128,-1,49
 312 811 312 811 305 820.5 c 128,-1,50
 298 830 298 830 291.5 838 c 128,-1,51
 285 846 285 846 274 846 c 256,14,15
EndSplineSet
EndChar

StartChar: Adieresis
Encoding: 196 196 117
Width: 661
GlyphClass: 2
Flags: W
LayerCount: 2
Fore
SplineSet
170 816 m 256,0,1
 170 842 170 842 186.5 858 c 128,-1,2
 203 874 203 874 229 874 c 0,3,4
 254 874 254 874 270 858.5 c 128,-1,5
 286 843 286 843 286 818 c 0,6,7
 286 792 286 792 270 774.5 c 128,-1,8
 254 757 254 757 228 757 c 256,9,10
 202 757 202 757 186 773.5 c 128,-1,11
 170 790 170 790 170 816 c 256,0,1
357 816 m 256,12,13
 357 842 357 842 373.5 858 c 128,-1,14
 390 874 390 874 416 874 c 0,15,16
 441 874 441 874 457 858.5 c 128,-1,17
 473 843 473 843 473 818 c 0,18,19
 473 792 473 792 457 774.5 c 128,-1,20
 441 757 441 757 415 757 c 256,21,22
 389 757 389 757 373 773.5 c 128,-1,23
 357 790 357 790 357 816 c 256,12,13
323 731 m 1,24,25
 405 548 405 548 485.5 366 c 128,-1,26
 566 184 566 184 647 0 c 1,27,-1
 562 -37 l 1,28,-1
 466 175 l 1,29,-1
 191 175 l 1,30,-1
 97 -37 l 1,31,-1
 15 0 l 1,32,33
 93 183 93 183 173 364 c 128,-1,34
 253 545 253 545 323 731 c 1,24,25
428 266 m 1,35,-1
 324 514 l 1,36,-1
 227 266 l 1,37,-1
 428 266 l 1,35,-1
EndSplineSet
EndChar

StartChar: Aring
Encoding: 197 197 118
Width: 659
GlyphClass: 2
Flags: W
LayerCount: 2
Fore
SplineSet
253 787 m 0,0,1
 253 817 253 817 273.5 834.5 c 128,-1,2
 294 852 294 852 323 852 c 0,3,4
 350 852 350 852 371.5 832.5 c 128,-1,5
 393 813 393 813 393 785 c 256,6,7
 393 757 393 757 374.5 738 c 128,-1,8
 356 719 356 719 328 717 c 1,9,10
 409 537 409 537 487.5 358.5 c 128,-1,11
 566 180 566 180 646 0 c 1,12,-1
 561 -37 l 1,13,-1
 465 175 l 1,14,-1
 190 175 l 1,15,-1
 96 -37 l 1,16,-1
 14 0 l 1,17,18
 90 178 90 178 170 356.5 c 128,-1,19
 250 535 250 535 316 717 c 1,20,21
 287 719 287 719 270 739 c 128,-1,22
 253 759 253 759 253 787 c 0,0,1
427 266 m 1,23,-1
 323 514 l 1,24,-1
 226 266 l 1,25,-1
 427 266 l 1,23,-1
348 789 m 256,26,27
 348 800 348 800 341 806.5 c 128,-1,28
 334 813 334 813 323 813 c 256,29,30
 312 813 312 813 305.5 806 c 128,-1,31
 299 799 299 799 299 788 c 256,32,33
 299 777 299 777 305.5 770 c 128,-1,34
 312 763 312 763 323 763 c 256,35,36
 334 763 334 763 341 770.5 c 128,-1,37
 348 778 348 778 348 789 c 256,26,27
EndSplineSet
EndChar

StartChar: AE
Encoding: 198 198 119
Width: 790
Flags: W
LayerCount: 2
Fore
SplineSet
324 731 m 1,0,-1
 341 693 l 1,1,-1
 757 693 l 1,2,-1
 757 608 l 1,3,-1
 378 608 l 1,4,-1
 465 412 l 1,5,-1
 679 412 l 1,6,-1
 679 329 l 1,7,-1
 502 329 l 1,8,-1
 611 82 l 1,9,-1
 766 82 l 1,10,-1
 766 0 l 1,11,-1
 648 0 l 1,12,-1
 563 -37 l 1,13,-1
 467 175 l 1,14,-1
 192 175 l 1,15,-1
 98 -37 l 1,16,-1
 16 0 l 1,17,-1
 324 731 l 1,18,-1
 324 731 l 1,0,-1
429 266 m 1,19,-1
 325 514 l 1,20,-1
 228 266 l 1,21,-1
 429 266 l 1,22,-1
 429 266 l 1,19,-1
EndSplineSet
EndChar

StartChar: Ccedilla
Encoding: 199 199 120
Width: 638
Flags: W
LayerCount: 2
Fore
SplineSet
331 -128 m 1,0,1
 339 -138 339 -138 350 -138 c 256,2,3
 361 -138 361 -138 368.5 -130 c 128,-1,4
 376 -122 376 -122 376 -111 c 0,5,6
 376 -96 376 -96 363.5 -89.5 c 128,-1,7
 351 -83 351 -83 339 -90 c 1,8,-1
 339 -16 l 1,9,10
 269 -9 269 -9 210 22.5 c 128,-1,11
 151 54 151 54 108 103.5 c 128,-1,12
 65 153 65 153 40.5 216.5 c 128,-1,13
 16 280 16 280 16 349 c 0,14,15
 16 431 16 431 44 498 c 128,-1,16
 72 565 72 565 122 613 c 128,-1,17
 172 661 172 661 241 687.5 c 128,-1,18
 310 714 310 714 391 714 c 0,19,20
 454 714 454 714 509 691 c 128,-1,21
 564 668 564 668 612 627 c 1,22,-1
 552 564 l 1,23,24
 522 600 522 600 477.5 614.5 c 128,-1,25
 433 629 433 629 387 629 c 0,26,27
 329 629 329 629 279 606.5 c 128,-1,28
 229 584 229 584 192 546 c 128,-1,29
 155 508 155 508 134 456.5 c 128,-1,30
 113 405 113 405 113 348 c 0,31,32
 113 292 113 292 133.5 241 c 128,-1,33
 154 190 154 190 190.5 151.5 c 128,-1,34
 227 113 227 113 276.5 90.5 c 128,-1,35
 326 68 326 68 383 68 c 0,36,37
 437 68 437 68 483.5 87.5 c 128,-1,38
 530 107 530 107 564 150 c 1,39,-1
 622 82 l 1,40,41
 572 34 572 34 511 9 c 128,-1,42
 450 -16 450 -16 381 -18 c 1,43,-1
 381 -55 l 1,44,45
 398 -64 398 -64 409.5 -79.5 c 128,-1,46
 421 -95 421 -95 421 -115 c 0,47,48
 421 -145 421 -145 399.5 -164 c 128,-1,49
 378 -183 378 -183 349 -183 c 0,50,51
 318 -183 318 -183 296 -158 c 1,52,-1
 331 -128 l 1,0,1
EndSplineSet
EndChar

StartChar: Egrave
Encoding: 200 200 121
Width: 412
GlyphClass: 2
Flags: W
LayerCount: 2
Fore
SplineSet
178 902 m 1,0,-1
 318 755 l 1,1,-1
 268 708 l 1,2,-1
 116 829 l 1,3,-1
 178 902 l 1,0,-1
29 693 m 1,4,-1
 395 693 l 1,5,-1
 395 608 l 1,6,-1
 121 608 l 1,7,-1
 121 412 l 1,8,-1
 317 412 l 1,9,-1
 317 329 l 1,10,-1
 121 329 l 1,11,-1
 121 82 l 1,12,-1
 404 82 l 1,13,-1
 404 0 l 1,14,-1
 29 0 l 1,15,-1
 29 693 l 1,16,-1
 29 693 l 1,4,-1
EndSplineSet
EndChar

StartChar: Eacute
Encoding: 201 201 122
Width: 413
GlyphClass: 2
Flags: W
LayerCount: 2
Fore
SplineSet
255 902 m 1,0,-1
 317 829 l 1,1,-1
 165 708 l 1,2,-1
 115 755 l 1,3,-1
 255 902 l 1,4,-1
 255 902 l 1,0,-1
28 693 m 1,5,-1
 394 693 l 1,6,-1
 394 608 l 1,7,-1
 120 608 l 1,8,-1
 120 412 l 1,9,-1
 316 412 l 1,10,-1
 316 329 l 1,11,-1
 120 329 l 1,12,-1
 120 82 l 1,13,-1
 403 82 l 1,14,-1
 403 0 l 1,15,-1
 28 0 l 1,16,-1
 28 693 l 1,17,-1
 28 693 l 1,5,-1
EndSplineSet
EndChar

StartChar: Ecircumflex
Encoding: 202 202 123
Width: 413
GlyphClass: 2
Flags: W
LayerCount: 2
Fore
SplineSet
28 693 m 1,0,-1
 394 693 l 1,1,-1
 394 608 l 1,2,-1
 120 608 l 1,3,-1
 120 412 l 1,4,-1
 316 412 l 1,5,-1
 316 329 l 1,6,-1
 120 329 l 1,7,-1
 120 82 l 1,8,-1
 403 82 l 1,9,-1
 403 0 l 1,10,-1
 28 0 l 1,11,-1
 28 693 l 1,12,-1
 28 693 l 1,0,-1
358 768 m 1,13,-1
 283 768 l 1,14,-1
 218 859 l 1,15,-1
 147 768 l 1,16,-1
 67 768 l 1,17,-1
 219 972 l 1,18,-1
 358 768 l 1,19,-1
 358 768 l 1,13,-1
EndSplineSet
EndChar

StartChar: Edieresis
Encoding: 203 203 124
Width: 424
GlyphClass: 2
Flags: W
LayerCount: 2
Fore
SplineSet
66 773 m 256,0,1
 66 799 66 799 82.5 815 c 128,-1,2
 99 831 99 831 125 831 c 0,3,4
 150 831 150 831 166 815.5 c 128,-1,5
 182 800 182 800 182 775 c 0,6,7
 182 749 182 749 166 731.5 c 128,-1,8
 150 714 150 714 124 714 c 256,9,10
 98 714 98 714 82 730.5 c 128,-1,11
 66 747 66 747 66 773 c 256,0,1
253 773 m 256,12,13
 253 799 253 799 269.5 815 c 128,-1,14
 286 831 286 831 312 831 c 0,15,16
 337 831 337 831 353 815.5 c 128,-1,17
 369 800 369 800 369 775 c 0,18,19
 369 749 369 749 353 731.5 c 128,-1,20
 337 714 337 714 311 714 c 256,21,22
 285 714 285 714 269 730.5 c 128,-1,23
 253 747 253 747 253 773 c 256,12,13
35 693 m 1,24,-1
 401 693 l 1,25,-1
 401 608 l 1,26,-1
 127 608 l 1,27,-1
 127 412 l 1,28,-1
 323 412 l 1,29,-1
 323 329 l 1,30,-1
 127 329 l 1,31,-1
 127 82 l 1,32,-1
 410 82 l 1,33,-1
 410 0 l 1,34,-1
 35 0 l 1,35,-1
 35 693 l 1,24,-1
EndSplineSet
EndChar

StartChar: Igrave
Encoding: 204 204 125
Width: 225
GlyphClass: 2
Flags: W
LayerCount: 2
Fore
SplineSet
215 755 m 1,0,-1
 165 708 l 1,1,-1
 13 829 l 1,2,-1
 75 902 l 1,3,-1
 215 755 l 1,4,-1
 215 755 l 1,0,-1
160 0 m 1,5,-1
 70 0 l 1,6,-1
 70 696 l 1,7,-1
 160 696 l 1,8,-1
 160 0 l 1,9,-1
 160 0 l 1,5,-1
EndSplineSet
EndChar

StartChar: Iacute
Encoding: 205 205 126
Width: 225
GlyphClass: 2
Flags: W
LayerCount: 2
Fore
SplineSet
65 696 m 1,0,-1
 155 696 l 1,1,-1
 155 0 l 1,2,-1
 65 0 l 1,3,-1
 65 696 l 1,4,-1
 65 696 l 1,0,-1
150 902 m 1,5,-1
 212 829 l 1,6,-1
 60 708 l 1,7,-1
 10 755 l 1,8,-1
 150 902 l 1,9,-1
 150 902 l 1,5,-1
EndSplineSet
EndChar

StartChar: Icircumflex
Encoding: 206 206 127
Width: 306
GlyphClass: 2
Flags: W
LayerCount: 2
Fore
SplineSet
107 696 m 1,0,-1
 197 696 l 1,1,-1
 197 0 l 1,2,-1
 107 0 l 1,3,-1
 107 696 l 1,4,-1
 107 696 l 1,0,-1
298 768 m 1,5,-1
 223 768 l 1,6,-1
 158 859 l 1,7,-1
 87 768 l 1,8,-1
 7 768 l 1,9,-1
 159 972 l 1,10,-1
 298 768 l 1,11,-1
 298 768 l 1,5,-1
EndSplineSet
EndChar

StartChar: Idieresis
Encoding: 207 207 128
Width: 323
GlyphClass: 2
Flags: W
LayerCount: 2
Fore
SplineSet
111 696 m 1,0,-1
 201 696 l 1,1,-1
 201 0 l 1,2,-1
 111 0 l 1,3,-1
 111 696 l 1,0,-1
11 830 m 256,4,5
 11 856 11 856 27.5 872 c 128,-1,6
 44 888 44 888 70 888 c 0,7,8
 95 888 95 888 111 872.5 c 128,-1,9
 127 857 127 857 127 832 c 0,10,11
 127 806 127 806 111 788.5 c 128,-1,12
 95 771 95 771 69 771 c 256,13,14
 43 771 43 771 27 787.5 c 128,-1,15
 11 804 11 804 11 830 c 256,4,5
198 830 m 256,16,17
 198 856 198 856 214.5 872 c 128,-1,18
 231 888 231 888 257 888 c 0,19,20
 282 888 282 888 298 872.5 c 128,-1,21
 314 857 314 857 314 832 c 0,22,23
 314 806 314 806 298 788.5 c 128,-1,24
 282 771 282 771 256 771 c 256,25,26
 230 771 230 771 214 787.5 c 128,-1,27
 198 804 198 804 198 830 c 256,16,17
EndSplineSet
EndChar

StartChar: Eth
Encoding: 208 208 129
Width: 588
Flags: W
LayerCount: 2
Fore
SplineSet
59 691 m 1,0,1
 127 690 127 690 191.5 691.5 c 128,-1,2
 256 693 256 693 312 688 c 128,-1,3
 368 683 368 683 414.5 667.5 c 128,-1,4
 461 652 461 652 494 616.5 c 128,-1,5
 527 581 527 581 545.5 521.5 c 128,-1,6
 564 462 564 462 564 369 c 0,7,8
 564 303 564 303 553.5 237 c 128,-1,9
 543 171 543 171 514.5 118.5 c 128,-1,10
 486 66 486 66 435.5 33 c 128,-1,11
 385 0 385 0 305 0 c 2,12,-1
 59 0 l 1,13,-1
 59 298 l 1,14,-1
 29 298 l 1,15,-1
 29 379 l 1,16,-1
 59 379 l 1,17,-1
 59 691 l 1,0,1
318 298 m 1,18,-1
 148 298 l 1,19,-1
 148 84 l 1,20,-1
 206 83 l 2,21,22
 229 83 229 83 252.5 83 c 128,-1,23
 276 83 276 83 299 84 c 0,24,25
 354 85 354 85 387.5 110 c 128,-1,26
 421 135 421 135 439.5 173 c 128,-1,27
 458 211 458 211 464.5 257.5 c 128,-1,28
 471 304 471 304 471 349 c 0,29,30
 471 393 471 393 465 439.5 c 128,-1,31
 459 486 459 486 440.5 524 c 128,-1,32
 422 562 422 562 388 586 c 128,-1,33
 354 610 354 610 299 610 c 2,34,-1
 148 610 l 1,35,-1
 148 379 l 1,36,-1
 318 379 l 1,37,-1
 318 298 l 1,18,-1
EndSplineSet
EndChar

StartChar: Ntilde
Encoding: 209 209 130
Width: 593
Flags: W
LayerCount: 2
Fore
SplineSet
254 750 m 1,0,-1
 241 758 l 1,1,2
 236 758 236 758 234 754.5 c 128,-1,3
 232 751 232 751 232.5 746 c 128,-1,4
 233 741 233 741 234.5 736 c 128,-1,5
 236 731 236 731 237 729 c 1,6,-1
 172 701 l 1,7,8
 167 712 167 712 163 723.5 c 128,-1,9
 159 735 159 735 159 747 c 0,10,11
 159 764 159 764 166.5 778 c 128,-1,12
 174 792 174 792 186.5 802 c 128,-1,13
 199 812 199 812 214.5 817.5 c 128,-1,14
 230 823 230 823 246 823 c 0,15,16
 269 823 269 823 287.5 811.5 c 128,-1,17
 306 800 306 800 316 780 c 1,18,-1
 329 772 l 1,19,20
 334 772 334 772 336 775.5 c 128,-1,21
 338 779 338 779 337.5 784 c 128,-1,22
 337 789 337 789 335.5 794 c 128,-1,23
 334 799 334 799 333 801 c 1,24,-1
 398 829 l 1,25,26
 411 808 411 808 411 783 c 0,27,28
 411 766 411 766 403.5 752 c 128,-1,29
 396 738 396 738 383.5 728 c 128,-1,30
 371 718 371 718 355.5 712.5 c 128,-1,31
 340 707 340 707 324 707 c 0,32,33
 301 707 301 707 282.5 718.5 c 128,-1,34
 264 730 264 730 254 750 c 1,0,-1
119 467 m 1,35,-1
 119 3 l 1,36,-1
 32 3 l 1,37,-1
 32 700 l 1,38,-1
 474 204 l 1,39,-1
 474 696 l 1,40,-1
 562 696 l 1,41,-1
 562 -28 l 1,42,-1
 119 467 l 1,35,-1
EndSplineSet
EndChar

StartChar: Ograve
Encoding: 210 210 131
Width: 743
GlyphClass: 2
Flags: W
LayerCount: 2
Fore
SplineSet
384 704 m 256,0,1
 462 704 462 704 525.5 677 c 128,-1,2
 589 650 589 650 634 602.5 c 128,-1,3
 679 555 679 555 703 489.5 c 128,-1,4
 727 424 727 424 727 347 c 256,5,6
 727 270 727 270 702 204.5 c 128,-1,7
 677 139 677 139 631.5 91.5 c 128,-1,8
 586 44 586 44 522 17 c 128,-1,9
 458 -10 458 -10 380 -10 c 0,10,11
 303 -10 303 -10 237 16 c 128,-1,12
 171 42 171 42 122.5 89.5 c 128,-1,13
 74 137 74 137 46.5 202 c 128,-1,14
 19 267 19 267 19 345 c 0,15,16
 19 424 19 424 46.5 490.5 c 128,-1,17
 74 557 74 557 123 604 c 128,-1,18
 172 651 172 651 239 677.5 c 128,-1,19
 306 704 306 704 384 704 c 256,0,1
122 349 m 0,20,21
 122 293 122 293 140 243.5 c 128,-1,22
 158 194 158 194 191.5 157 c 128,-1,23
 225 120 225 120 272.5 99 c 128,-1,24
 320 78 320 78 378 78 c 0,25,26
 437 78 437 78 483.5 100.5 c 128,-1,27
 530 123 530 123 562 161 c 128,-1,28
 594 199 594 199 611 249 c 128,-1,29
 628 299 628 299 628 355 c 0,30,31
 628 409 628 409 612.5 457.5 c 128,-1,32
 597 506 597 506 566.5 542 c 128,-1,33
 536 578 536 578 491.5 599 c 128,-1,34
 447 620 447 620 390 620 c 0,35,36
 330 620 330 620 281 600 c 128,-1,37
 232 580 232 580 196.5 544 c 128,-1,38
 161 508 161 508 141.5 458.5 c 128,-1,39
 122 409 122 409 122 349 c 0,20,21
438 815 m 1,40,-1
 388 768 l 1,41,-1
 236 889 l 1,42,-1
 298 962 l 1,43,-1
 438 815 l 1,40,-1
EndSplineSet
EndChar

StartChar: Oacute
Encoding: 211 211 132
Width: 744
GlyphClass: 2
Flags: W
LayerCount: 2
Fore
SplineSet
446 962 m 1,0,-1
 508 889 l 1,1,-1
 356 768 l 1,2,-1
 306 815 l 1,3,-1
 446 962 l 1,0,-1
354 620 m 0,4,5
 297 620 297 620 252.5 599 c 128,-1,6
 208 578 208 578 177.5 542 c 128,-1,7
 147 506 147 506 131.5 457.5 c 128,-1,8
 116 409 116 409 116 355 c 0,9,10
 116 299 116 299 133 249 c 128,-1,11
 150 199 150 199 182 161 c 128,-1,12
 214 123 214 123 260 100.5 c 128,-1,13
 306 78 306 78 365 78 c 0,14,15
 423 78 423 78 470.5 99 c 128,-1,16
 518 120 518 120 551.5 157 c 128,-1,17
 585 194 585 194 603.5 243.5 c 128,-1,18
 622 293 622 293 622 349 c 0,19,20
 622 409 622 409 602.5 458.5 c 128,-1,21
 583 508 583 508 548 544 c 128,-1,22
 513 580 513 580 463.5 600 c 128,-1,23
 414 620 414 620 354 620 c 0,4,5
360 704 m 256,24,25
 438 704 438 704 505 677.5 c 128,-1,26
 572 651 572 651 620.5 603.5 c 128,-1,27
 669 556 669 556 697 490 c 128,-1,28
 725 424 725 424 725 345 c 0,29,30
 725 267 725 267 697.5 202 c 128,-1,31
 670 137 670 137 621.5 89.5 c 128,-1,32
 573 42 573 42 507 16 c 128,-1,33
 441 -10 441 -10 364 -10 c 0,34,35
 286 -10 286 -10 222 17 c 128,-1,36
 158 44 158 44 112.5 91.5 c 128,-1,37
 67 139 67 139 42 204.5 c 128,-1,38
 17 270 17 270 17 347 c 256,39,40
 17 424 17 424 41 489.5 c 128,-1,41
 65 555 65 555 110 602.5 c 128,-1,42
 155 650 155 650 218.5 677 c 128,-1,43
 282 704 282 704 360 704 c 256,24,25
EndSplineSet
EndChar

StartChar: Ocircumflex
Encoding: 212 212 133
Width: 744
GlyphClass: 2
Flags: W
LayerCount: 2
Fore
SplineSet
356 620 m 0,0,1
 299 620 299 620 254.5 599 c 128,-1,2
 210 578 210 578 179.5 542 c 128,-1,3
 149 506 149 506 133.5 457.5 c 128,-1,4
 118 409 118 409 118 355 c 0,5,6
 118 299 118 299 135 249 c 128,-1,7
 152 199 152 199 184 161 c 128,-1,8
 216 123 216 123 262 100.5 c 128,-1,9
 308 78 308 78 367 78 c 0,10,11
 425 78 425 78 472.5 99 c 128,-1,12
 520 120 520 120 553.5 157 c 128,-1,13
 587 194 587 194 605.5 243.5 c 128,-1,14
 624 293 624 293 624 349 c 0,15,16
 624 409 624 409 604.5 458.5 c 128,-1,17
 585 508 585 508 550 544 c 128,-1,18
 515 580 515 580 465.5 600 c 128,-1,19
 416 620 416 620 356 620 c 0,0,1
362 704 m 256,20,21
 440 704 440 704 507 677.5 c 128,-1,22
 574 651 574 651 622.5 603.5 c 128,-1,23
 671 556 671 556 699 490 c 128,-1,24
 727 424 727 424 727 345 c 0,25,26
 727 267 727 267 699.5 202 c 128,-1,27
 672 137 672 137 623.5 89.5 c 128,-1,28
 575 42 575 42 509 16 c 128,-1,29
 443 -10 443 -10 366 -10 c 0,30,31
 288 -10 288 -10 224 17 c 128,-1,32
 160 44 160 44 114.5 91.5 c 128,-1,33
 69 139 69 139 44 204.5 c 128,-1,34
 19 270 19 270 19 347 c 256,35,36
 19 424 19 424 43 489.5 c 128,-1,37
 67 555 67 555 112 602.5 c 128,-1,38
 157 650 157 650 220.5 677 c 128,-1,39
 284 704 284 704 362 704 c 256,20,21
504 768 m 1,40,-1
 429 768 l 1,41,-1
 364 859 l 1,42,-1
 293 768 l 1,43,-1
 213 768 l 1,44,-1
 365 972 l 1,45,-1
 504 768 l 1,40,-1
EndSplineSet
EndChar

StartChar: Otilde
Encoding: 213 213 134
Width: 748
GlyphClass: 2
Flags: W
LayerCount: 2
Fore
SplineSet
325 812 m 1,0,-1
 312 820 l 1,1,2
 307 820 307 820 305 816.5 c 128,-1,3
 303 813 303 813 303.5 808 c 128,-1,4
 304 803 304 803 305.5 798 c 128,-1,5
 307 793 307 793 308 791 c 1,6,-1
 243 763 l 1,7,8
 238 774 238 774 234 785.5 c 128,-1,9
 230 797 230 797 230 809 c 0,10,11
 230 826 230 826 237.5 840 c 128,-1,12
 245 854 245 854 257.5 864 c 128,-1,13
 270 874 270 874 285.5 879.5 c 128,-1,14
 301 885 301 885 317 885 c 0,15,16
 340 885 340 885 358.5 873.5 c 128,-1,17
 377 862 377 862 387 842 c 1,18,-1
 400 834 l 1,19,20
 405 834 405 834 407 837.5 c 128,-1,21
 409 841 409 841 408.5 846 c 128,-1,22
 408 851 408 851 406.5 856 c 128,-1,23
 405 861 405 861 404 863 c 1,24,-1
 469 891 l 1,25,26
 474 880 474 880 478 868.5 c 128,-1,27
 482 857 482 857 482 845 c 0,28,29
 482 828 482 828 474.5 814 c 128,-1,30
 467 800 467 800 454.5 790 c 128,-1,31
 442 780 442 780 426.5 774.5 c 128,-1,32
 411 769 411 769 395 769 c 0,33,34
 372 769 372 769 353.5 780.5 c 128,-1,35
 335 792 335 792 325 812 c 1,0,-1
358 620 m 0,36,37
 301 620 301 620 256.5 599 c 128,-1,38
 212 578 212 578 181.5 542 c 128,-1,39
 151 506 151 506 135.5 457.5 c 128,-1,40
 120 409 120 409 120 355 c 0,41,42
 120 299 120 299 137 249 c 128,-1,43
 154 199 154 199 186 161 c 128,-1,44
 218 123 218 123 264 100.5 c 128,-1,45
 310 78 310 78 369 78 c 0,46,47
 427 78 427 78 474.5 99 c 128,-1,48
 522 120 522 120 555.5 157 c 128,-1,49
 589 194 589 194 607.5 243.5 c 128,-1,50
 626 293 626 293 626 349 c 0,51,52
 626 409 626 409 606.5 458.5 c 128,-1,53
 587 508 587 508 552 544 c 128,-1,54
 517 580 517 580 467.5 600 c 128,-1,55
 418 620 418 620 358 620 c 0,36,37
364 704 m 256,56,57
 442 704 442 704 509 677.5 c 128,-1,58
 576 651 576 651 624.5 603.5 c 128,-1,59
 673 556 673 556 701 490 c 128,-1,60
 729 424 729 424 729 345 c 0,61,62
 729 267 729 267 701.5 202 c 128,-1,63
 674 137 674 137 625.5 89.5 c 128,-1,64
 577 42 577 42 511 16 c 128,-1,65
 445 -10 445 -10 368 -10 c 0,66,67
 290 -10 290 -10 226 17 c 128,-1,68
 162 44 162 44 116.5 91.5 c 128,-1,69
 71 139 71 139 46 204.5 c 128,-1,70
 21 270 21 270 21 347 c 256,71,72
 21 424 21 424 45 489.5 c 128,-1,73
 69 555 69 555 114 602.5 c 128,-1,74
 159 650 159 650 222.5 677 c 128,-1,75
 286 704 286 704 364 704 c 256,56,57
EndSplineSet
EndChar

StartChar: Odieresis
Encoding: 214 214 135
Width: 749
GlyphClass: 2
Flags: W
LayerCount: 2
Fore
SplineSet
224 824 m 256,0,1
 224 850 224 850 240.5 866 c 128,-1,2
 257 882 257 882 283 882 c 0,3,4
 308 882 308 882 324 866.5 c 128,-1,5
 340 851 340 851 340 826 c 0,6,7
 340 800 340 800 324 782.5 c 128,-1,8
 308 765 308 765 282 765 c 256,9,10
 256 765 256 765 240 781.5 c 128,-1,11
 224 798 224 798 224 824 c 256,0,1
411 824 m 256,12,13
 411 850 411 850 427.5 866 c 128,-1,14
 444 882 444 882 470 882 c 0,15,16
 495 882 495 882 511 866.5 c 128,-1,17
 527 851 527 851 527 826 c 0,18,19
 527 800 527 800 511 782.5 c 128,-1,20
 495 765 495 765 469 765 c 256,21,22
 443 765 443 765 427 781.5 c 128,-1,23
 411 798 411 798 411 824 c 256,12,13
358 620 m 0,24,25
 301 620 301 620 256.5 599 c 128,-1,26
 212 578 212 578 181.5 542 c 128,-1,27
 151 506 151 506 135.5 457.5 c 128,-1,28
 120 409 120 409 120 355 c 0,29,30
 120 299 120 299 137 249 c 128,-1,31
 154 199 154 199 186 161 c 128,-1,32
 218 123 218 123 264 100.5 c 128,-1,33
 310 78 310 78 369 78 c 0,34,35
 427 78 427 78 474.5 99 c 128,-1,36
 522 120 522 120 555.5 157 c 128,-1,37
 589 194 589 194 607.5 243.5 c 128,-1,38
 626 293 626 293 626 349 c 0,39,40
 626 409 626 409 606.5 458.5 c 128,-1,41
 587 508 587 508 552 544 c 128,-1,42
 517 580 517 580 467.5 600 c 128,-1,43
 418 620 418 620 358 620 c 0,24,25
364 704 m 256,44,45
 442 704 442 704 509 677.5 c 128,-1,46
 576 651 576 651 624.5 603.5 c 128,-1,47
 673 556 673 556 701 490 c 128,-1,48
 729 424 729 424 729 345 c 0,49,50
 729 267 729 267 701.5 202 c 128,-1,51
 674 137 674 137 625.5 89.5 c 128,-1,52
 577 42 577 42 511 16 c 128,-1,53
 445 -10 445 -10 368 -10 c 0,54,55
 290 -10 290 -10 226 17 c 128,-1,56
 162 44 162 44 116.5 91.5 c 128,-1,57
 71 139 71 139 46 204.5 c 128,-1,58
 21 270 21 270 21 347 c 256,59,60
 21 424 21 424 45 489.5 c 128,-1,61
 69 555 69 555 114 602.5 c 128,-1,62
 159 650 159 650 222.5 677 c 128,-1,63
 286 704 286 704 364 704 c 256,44,45
EndSplineSet
EndChar

StartChar: multiply
Encoding: 215 215 136
Width: 385
GlyphClass: 2
Flags: W
LayerCount: 2
Fore
SplineSet
349 457 m 1,0,-1
 253 360 l 1,1,-1
 363 251 l 1,2,-1
 299 187 l 1,3,-1
 189 296 l 1,4,-1
 91 196 l 1,5,-1
 27 260 l 1,6,-1
 128 361 l 1,7,-1
 23 461 l 1,8,-1
 87 525 l 1,9,-1
 189 424 l 1,10,-1
 285 521 l 1,11,-1
 349 457 l 1,12,-1
 349 457 l 1,0,-1
EndSplineSet
EndChar

StartChar: Oslash
Encoding: 216 216 137
Width: 763
Flags: W
LayerCount: 2
Fore
SplineSet
167 4 m 1,0,-1
 45 4 l 1,1,-1
 118 96 l 1,2,3
 29 207 29 207 29 350 c 0,4,5
 29 426 29 426 53 491 c 128,-1,6
 77 556 77 556 122 603.5 c 128,-1,7
 167 651 167 651 230 677.5 c 128,-1,8
 293 704 293 704 371 704 c 0,9,10
 422 704 422 704 471.5 692.5 c 128,-1,11
 521 681 521 681 565 654 c 1,12,-1
 597 694 l 1,13,-1
 712 694 l 1,14,-1
 637 599 l 1,15,16
 685 544 685 544 710 482 c 128,-1,17
 735 420 735 420 735 346 c 0,18,19
 735 268 735 268 708 202.5 c 128,-1,20
 681 137 681 137 633 89.5 c 128,-1,21
 585 42 585 42 519 16 c 128,-1,22
 453 -10 453 -10 375 -10 c 0,23,24
 325 -10 325 -10 280 0.5 c 128,-1,25
 235 11 235 11 192 36 c 1,26,-1
 167 4 l 1,0,-1
365 620 m 0,27,28
 307 620 307 620 262.5 598.5 c 128,-1,29
 218 577 218 577 187.5 540.5 c 128,-1,30
 157 504 157 504 141.5 455.5 c 128,-1,31
 126 407 126 407 126 352 c 0,32,33
 126 256 126 256 181 175 c 1,34,-1
 508 583 l 1,35,36
 475 602 475 602 439 611 c 128,-1,37
 403 620 403 620 365 620 c 0,27,28
373 78 m 0,38,39
 432 78 432 78 480 99 c 128,-1,40
 528 120 528 120 562.5 156.5 c 128,-1,41
 597 193 597 193 615.5 242.5 c 128,-1,42
 634 292 634 292 634 350 c 0,43,44
 634 396 634 396 620 441 c 128,-1,45
 606 486 606 486 577 523 c 1,46,-1
 251 111 l 1,47,48
 278 94 278 94 309.5 86 c 128,-1,49
 341 78 341 78 373 78 c 0,38,39
EndSplineSet
EndChar

StartChar: Ugrave
Encoding: 217 217 138
Width: 546
Flags: W
LayerCount: 2
Fore
SplineSet
125 685 m 1,0,-1
 125 266 l 2,1,2
 125 233 125 233 134.5 201 c 128,-1,3
 144 169 144 169 162.5 144 c 128,-1,4
 181 119 181 119 209 103.5 c 128,-1,5
 237 88 237 88 274 88 c 256,6,7
 311 88 311 88 339 104 c 128,-1,8
 367 120 367 120 386 145.5 c 128,-1,9
 405 171 405 171 414 203.5 c 128,-1,10
 423 236 423 236 423 270 c 1,11,-1
 424 268 l 1,12,-1
 424 682 l 1,13,-1
 515 682 l 1,14,-1
 515 265 l 2,15,16
 515 209 515 209 499.5 160.5 c 128,-1,17
 484 112 484 112 453.5 76.5 c 128,-1,18
 423 41 423 41 377.5 20.5 c 128,-1,19
 332 0 332 0 273 0 c 0,20,21
 217 0 217 0 172.5 21.5 c 128,-1,22
 128 43 128 43 96.5 79 c 128,-1,23
 65 115 65 115 48.5 163 c 128,-1,24
 32 211 32 211 32 264 c 2,25,-1
 32 683 l 1,26,-1
 125 685 l 1,0,-1
223 735 m 1,27,-1
 363 588 l 1,28,-1
 313 541 l 1,29,-1
 161 662 l 1,30,-1
 223 735 l 1,27,-1
EndSplineSet
EndChar

StartChar: Uacute
Encoding: 218 218 139
Width: 530
Flags: W
LayerCount: 2
Fore
SplineSet
340 912 m 1,0,-1
 402 839 l 1,1,-1
 250 718 l 1,2,-1
 200 765 l 1,3,-1
 340 912 l 1,0,-1
114 685 m 1,4,-1
 114 266 l 2,5,6
 114 233 114 233 123.5 201 c 128,-1,7
 133 169 133 169 151.5 144 c 128,-1,8
 170 119 170 119 198 103.5 c 128,-1,9
 226 88 226 88 263 88 c 256,10,11
 300 88 300 88 328 104 c 128,-1,12
 356 120 356 120 375 145.5 c 128,-1,13
 394 171 394 171 403 203.5 c 128,-1,14
 412 236 412 236 412 270 c 1,15,-1
 413 268 l 1,16,-1
 413 682 l 1,17,-1
 504 682 l 1,18,-1
 504 265 l 2,19,20
 504 209 504 209 488.5 160.5 c 128,-1,21
 473 112 473 112 442.5 76.5 c 128,-1,22
 412 41 412 41 366.5 20.5 c 128,-1,23
 321 0 321 0 262 0 c 0,24,25
 206 0 206 0 161.5 21.5 c 128,-1,26
 117 43 117 43 85.5 79 c 128,-1,27
 54 115 54 115 37.5 163 c 128,-1,28
 21 211 21 211 21 264 c 2,29,-1
 21 683 l 1,30,-1
 114 685 l 1,4,-1
EndSplineSet
EndChar

StartChar: Ucircumflex
Encoding: 219 219 140
Width: 533
GlyphClass: 2
Flags: W
LayerCount: 2
Fore
SplineSet
118 685 m 1,0,-1
 118 266 l 2,1,2
 118 233 118 233 127.5 201 c 128,-1,3
 137 169 137 169 155.5 144 c 128,-1,4
 174 119 174 119 202 103.5 c 128,-1,5
 230 88 230 88 267 88 c 256,6,7
 304 88 304 88 332 104 c 128,-1,8
 360 120 360 120 379 145.5 c 128,-1,9
 398 171 398 171 407 203.5 c 128,-1,10
 416 236 416 236 416 270 c 1,11,-1
 417 268 l 1,12,-1
 417 682 l 1,13,-1
 508 682 l 1,14,-1
 508 265 l 2,15,16
 508 209 508 209 492.5 160.5 c 128,-1,17
 477 112 477 112 446.5 76.5 c 128,-1,18
 416 41 416 41 370.5 20.5 c 128,-1,19
 325 0 325 0 266 0 c 0,20,21
 210 0 210 0 165.5 21.5 c 128,-1,22
 121 43 121 43 89.5 79 c 128,-1,23
 58 115 58 115 41.5 163 c 128,-1,24
 25 211 25 211 25 264 c 2,25,-1
 25 683 l 1,26,-1
 118 685 l 1,0,-1
413 707 m 1,27,-1
 338 707 l 1,28,-1
 273 798 l 1,29,-1
 202 707 l 1,30,-1
 122 707 l 1,31,-1
 274 911 l 1,32,-1
 413 707 l 1,27,-1
EndSplineSet
EndChar

StartChar: Udieresis
Encoding: 220 220 141
Width: 538
GlyphClass: 2
Flags: W
LayerCount: 2
Fore
SplineSet
125 810 m 256,0,1
 125 836 125 836 141.5 852 c 128,-1,2
 158 868 158 868 184 868 c 0,3,4
 209 868 209 868 225 852.5 c 128,-1,5
 241 837 241 837 241 812 c 0,6,7
 241 786 241 786 225 768.5 c 128,-1,8
 209 751 209 751 183 751 c 256,9,10
 157 751 157 751 141 767.5 c 128,-1,11
 125 784 125 784 125 810 c 256,0,1
312 810 m 256,12,13
 312 836 312 836 328.5 852 c 128,-1,14
 345 868 345 868 371 868 c 0,15,16
 396 868 396 868 412 852.5 c 128,-1,17
 428 837 428 837 428 812 c 0,18,19
 428 786 428 786 412 768.5 c 128,-1,20
 396 751 396 751 370 751 c 256,21,22
 344 751 344 751 328 767.5 c 128,-1,23
 312 784 312 784 312 810 c 256,12,13
120 685 m 1,24,-1
 120 266 l 2,25,26
 120 233 120 233 129.5 201 c 128,-1,27
 139 169 139 169 157.5 144 c 128,-1,28
 176 119 176 119 204 103.5 c 128,-1,29
 232 88 232 88 269 88 c 256,30,31
 306 88 306 88 334 104 c 128,-1,32
 362 120 362 120 381 145.5 c 128,-1,33
 400 171 400 171 409 203.5 c 128,-1,34
 418 236 418 236 418 270 c 1,35,-1
 419 268 l 1,36,-1
 419 682 l 1,37,-1
 510 682 l 1,38,-1
 510 265 l 2,39,40
 510 209 510 209 494.5 160.5 c 128,-1,41
 479 112 479 112 448.5 76.5 c 128,-1,42
 418 41 418 41 372.5 20.5 c 128,-1,43
 327 0 327 0 268 0 c 0,44,45
 212 0 212 0 167.5 21.5 c 128,-1,46
 123 43 123 43 91.5 79 c 128,-1,47
 60 115 60 115 43.5 163 c 128,-1,48
 27 211 27 211 27 264 c 2,49,-1
 27 683 l 1,50,-1
 120 685 l 1,24,-1
EndSplineSet
EndChar

StartChar: Yacute
Encoding: 221 221 142
Width: 587
Flags: W
LayerCount: 2
Fore
SplineSet
383 885 m 1,0,-1
 445 812 l 1,1,-1
 293 691 l 1,2,-1
 243 738 l 1,3,-1
 383 885 l 1,4,-1
 383 885 l 1,0,-1
6 692 m 1,5,-1
 82 736 l 1,6,-1
 294 418 l 1,7,-1
 506 736 l 1,8,-1
 578 692 l 1,9,-1
 344 334 l 1,10,-1
 344 3 l 1,11,-1
 245 3 l 1,12,-1
 245 330 l 1,13,-1
 246 330 l 1,14,-1
 6 692 l 1,15,-1
 6 692 l 1,5,-1
EndSplineSet
EndChar

StartChar: Thorn
Encoding: 222 222 143
Width: 419
GlyphClass: 2
Flags: W
LayerCount: 2
Fore
SplineSet
38 1 m 1,0,-1
 38 692 l 1,1,-1
 119 692 l 1,2,-1
 119 535 l 1,3,4
 173 535 173 535 226 532 c 128,-1,5
 279 529 279 529 321 510.5 c 128,-1,6
 363 492 363 492 389.5 453 c 128,-1,7
 416 414 416 414 416 343 c 0,8,9
 416 273 416 273 389.5 233.5 c 128,-1,10
 363 194 363 194 321 175 c 128,-1,11
 279 156 279 156 226 151.5 c 128,-1,12
 173 147 173 147 119 147 c 1,13,-1
 119 1 l 1,14,-1
 38 1 l 1,0,-1
119 461 m 1,15,-1
 119 231 l 1,16,-1
 230 231 l 2,17,18
 255 231 255 231 275 241 c 128,-1,19
 295 251 295 251 309 267.5 c 128,-1,20
 323 284 323 284 330.5 305.5 c 128,-1,21
 338 327 338 327 338 351 c 0,22,23
 338 398 338 398 311 429.5 c 128,-1,24
 284 461 284 461 236 461 c 2,25,-1
 119 461 l 1,15,-1
EndSplineSet
EndChar

StartChar: germandbls
Encoding: 223 223 144
Width: 352
GlyphClass: 2
Flags: W
LayerCount: 2
Fore
SplineSet
199 642 m 0,0,1
 219 642 219 642 241.5 636 c 128,-1,2
 264 630 264 630 280 616 c 1,3,-1
 232 547 l 1,4,-1
 213 556 l 1,5,6
 180 556 180 556 161 545 c 128,-1,7
 142 534 142 534 133 515.5 c 128,-1,8
 124 497 124 497 122 472.5 c 128,-1,9
 120 448 120 448 120 420 c 1,10,-1
 330 420 l 1,11,-1
 330 344 l 1,12,-1
 268 245 l 1,13,14
 297 218 297 218 311 181 c 128,-1,15
 325 144 325 144 325 105 c 0,16,17
 325 50 325 50 303.5 11.5 c 128,-1,18
 282 -27 282 -27 238 -59 c 1,19,-1
 135 -59 l 1,20,21
 155 -44 155 -44 173.5 -25.5 c 128,-1,22
 192 -7 192 -7 206 14.5 c 128,-1,23
 220 36 220 36 228.5 60 c 128,-1,24
 237 84 237 84 237 110 c 0,25,26
 237 150 237 150 217 184.5 c 128,-1,27
 197 219 197 219 169 245 c 1,28,-1
 232 344 l 1,29,-1
 116 344 l 1,30,-1
 116 0 l 1,31,-1
 32 0 l 1,32,-1
 32 424 l 2,33,34
 32 461 32 461 42 500 c 128,-1,35
 52 539 52 539 72.5 570.5 c 128,-1,36
 93 602 93 602 124.5 622 c 128,-1,37
 156 642 156 642 199 642 c 0,0,1
EndSplineSet
EndChar

StartChar: agrave
Encoding: 224 224 145
Width: 388
GlyphClass: 2
Flags: W
LayerCount: 2
Fore
SplineSet
364 0 m 1,0,-1
 277 0 l 1,1,-1
 277 41 l 1,2,3
 259 20 259 20 236 5 c 128,-1,4
 213 -10 213 -10 184 -10 c 0,5,6
 149 -10 149 -10 118.5 -3 c 128,-1,7
 88 4 88 4 65 19.5 c 128,-1,8
 42 35 42 35 28.5 61.5 c 128,-1,9
 15 88 15 88 15 127 c 0,10,11
 15 165 15 165 29.5 193.5 c 128,-1,12
 44 222 44 222 69 240.5 c 128,-1,13
 94 259 94 259 126 268.5 c 128,-1,14
 158 278 158 278 193 278 c 0,15,16
 223 278 223 278 245 263 c 128,-1,17
 267 248 267 248 281 222 c 1,18,19
 281 244 281 244 279.5 266.5 c 128,-1,20
 278 289 278 289 270.5 307.5 c 128,-1,21
 263 326 263 326 247 337.5 c 128,-1,22
 231 349 231 349 202 349 c 0,23,24
 179 349 179 349 156 341.5 c 128,-1,25
 133 334 133 334 113 323 c 1,26,-1
 82 389 l 1,27,28
 110 406 110 406 142.5 417 c 128,-1,29
 175 428 175 428 208 428 c 0,30,31
 281 428 281 428 322.5 384 c 128,-1,32
 364 340 364 340 364 268 c 2,33,-1
 364 0 l 1,0,-1
283 132 m 0,34,35
 283 152 283 152 273.5 165.5 c 128,-1,36
 264 179 264 179 249.5 187.5 c 128,-1,37
 235 196 235 196 217.5 199.5 c 128,-1,38
 200 203 200 203 184 203 c 0,39,40
 147 203 147 203 119.5 186.5 c 128,-1,41
 92 170 92 170 92 129 c 0,42,43
 92 109 92 109 100 96.5 c 128,-1,44
 108 84 108 84 121.5 77 c 128,-1,45
 135 70 135 70 151 67.5 c 128,-1,46
 167 65 167 65 184 65 c 0,47,48
 199 65 199 65 216.5 68.5 c 128,-1,49
 234 72 234 72 248.5 79.5 c 128,-1,50
 263 87 263 87 273 100 c 128,-1,51
 283 113 283 113 283 132 c 0,34,35
181 643 m 1,52,-1
 321 496 l 1,53,-1
 271 449 l 1,54,-1
 119 570 l 1,55,-1
 181 643 l 1,52,-1
EndSplineSet
EndChar

StartChar: aacute
Encoding: 225 225 146
Width: 389
GlyphClass: 2
Flags: W
LayerCount: 2
Fore
SplineSet
226 629 m 1,0,-1
 288 556 l 1,1,-1
 136 435 l 1,2,-1
 86 482 l 1,3,-1
 226 629 l 1,0,-1
364 0 m 1,4,-1
 277 0 l 1,5,-1
 277 41 l 1,6,7
 259 20 259 20 236 5 c 128,-1,8
 213 -10 213 -10 184 -10 c 0,9,10
 149 -10 149 -10 118.5 -3 c 128,-1,11
 88 4 88 4 65 19.5 c 128,-1,12
 42 35 42 35 28.5 61.5 c 128,-1,13
 15 88 15 88 15 127 c 0,14,15
 15 165 15 165 29.5 193.5 c 128,-1,16
 44 222 44 222 69 240.5 c 128,-1,17
 94 259 94 259 126 268.5 c 128,-1,18
 158 278 158 278 193 278 c 0,19,20
 223 278 223 278 245 263 c 128,-1,21
 267 248 267 248 281 222 c 1,22,23
 281 244 281 244 279.5 266.5 c 128,-1,24
 278 289 278 289 270.5 307.5 c 128,-1,25
 263 326 263 326 247 337.5 c 128,-1,26
 231 349 231 349 202 349 c 0,27,28
 179 349 179 349 156 341.5 c 128,-1,29
 133 334 133 334 113 323 c 1,30,-1
 82 389 l 1,31,32
 110 406 110 406 142.5 417 c 128,-1,33
 175 428 175 428 208 428 c 0,34,35
 281 428 281 428 322.5 384 c 128,-1,36
 364 340 364 340 364 268 c 2,37,-1
 364 0 l 1,4,-1
283 132 m 0,38,39
 283 152 283 152 273.5 165.5 c 128,-1,40
 264 179 264 179 249.5 187.5 c 128,-1,41
 235 196 235 196 217.5 199.5 c 128,-1,42
 200 203 200 203 184 203 c 0,43,44
 147 203 147 203 119.5 186.5 c 128,-1,45
 92 170 92 170 92 129 c 0,46,47
 92 109 92 109 100 96.5 c 128,-1,48
 108 84 108 84 121.5 77 c 128,-1,49
 135 70 135 70 151 67.5 c 128,-1,50
 167 65 167 65 184 65 c 0,51,52
 199 65 199 65 216.5 68.5 c 128,-1,53
 234 72 234 72 248.5 79.5 c 128,-1,54
 263 87 263 87 273 100 c 128,-1,55
 283 113 283 113 283 132 c 0,38,39
EndSplineSet
EndChar

StartChar: acircumflex
Encoding: 226 226 147
Width: 390
GlyphClass: 2
Flags: W
LayerCount: 2
Fore
SplineSet
364 0 m 1,0,-1
 277 0 l 1,1,-1
 277 41 l 1,2,3
 259 20 259 20 236 5 c 128,-1,4
 213 -10 213 -10 184 -10 c 0,5,6
 149 -10 149 -10 118.5 -3 c 128,-1,7
 88 4 88 4 65 19.5 c 128,-1,8
 42 35 42 35 28.5 61.5 c 128,-1,9
 15 88 15 88 15 127 c 0,10,11
 15 165 15 165 29.5 193.5 c 128,-1,12
 44 222 44 222 69 240.5 c 128,-1,13
 94 259 94 259 126 268.5 c 128,-1,14
 158 278 158 278 193 278 c 0,15,16
 223 278 223 278 245 263 c 128,-1,17
 267 248 267 248 281 222 c 1,18,19
 281 244 281 244 279.5 266.5 c 128,-1,20
 278 289 278 289 270.5 307.5 c 128,-1,21
 263 326 263 326 247 337.5 c 128,-1,22
 231 349 231 349 202 349 c 0,23,24
 179 349 179 349 156 341.5 c 128,-1,25
 133 334 133 334 113 323 c 1,26,-1
 82 389 l 1,27,28
 110 406 110 406 142.5 417 c 128,-1,29
 175 428 175 428 208 428 c 0,30,31
 281 428 281 428 322.5 384 c 128,-1,32
 364 340 364 340 364 268 c 2,33,-1
 364 0 l 1,0,-1
283 132 m 0,34,35
 283 152 283 152 273.5 165.5 c 128,-1,36
 264 179 264 179 249.5 187.5 c 128,-1,37
 235 196 235 196 217.5 199.5 c 128,-1,38
 200 203 200 203 184 203 c 0,39,40
 147 203 147 203 119.5 186.5 c 128,-1,41
 92 170 92 170 92 129 c 0,42,43
 92 109 92 109 100 96.5 c 128,-1,44
 108 84 108 84 121.5 77 c 128,-1,45
 135 70 135 70 151 67.5 c 128,-1,46
 167 65 167 65 184 65 c 0,47,48
 199 65 199 65 216.5 68.5 c 128,-1,49
 234 72 234 72 248.5 79.5 c 128,-1,50
 263 87 263 87 273 100 c 128,-1,51
 283 113 283 113 283 132 c 0,34,35
354 460 m 1,52,-1
 279 460 l 1,53,-1
 214 551 l 1,54,-1
 143 460 l 1,55,-1
 63 460 l 1,56,-1
 215 664 l 1,57,-1
 354 460 l 1,52,-1
EndSplineSet
EndChar

StartChar: atilde
Encoding: 227 227 148
Width: 402
GlyphClass: 2
Flags: W
LayerCount: 2
Fore
SplineSet
167 505 m 1,0,-1
 154 513 l 1,1,2
 149 513 149 513 147 509.5 c 128,-1,3
 145 506 145 506 145.5 501 c 128,-1,4
 146 496 146 496 147.5 491 c 128,-1,5
 149 486 149 486 150 484 c 1,6,-1
 85 456 l 1,7,8
 80 467 80 467 76 478.5 c 128,-1,9
 72 490 72 490 72 502 c 0,10,11
 72 519 72 519 79.5 533 c 128,-1,12
 87 547 87 547 99.5 557 c 128,-1,13
 112 567 112 567 127.5 572.5 c 128,-1,14
 143 578 143 578 159 578 c 0,15,16
 182 578 182 578 200.5 566.5 c 128,-1,17
 219 555 219 555 229 535 c 1,18,-1
 242 527 l 1,19,20
 247 527 247 527 249 530.5 c 128,-1,21
 251 534 251 534 250.5 539 c 128,-1,22
 250 544 250 544 248.5 549 c 128,-1,23
 247 554 247 554 246 556 c 1,24,-1
 311 584 l 1,25,26
 316 573 316 573 320 561.5 c 128,-1,27
 324 550 324 550 324 538 c 0,28,29
 324 521 324 521 316.5 507 c 128,-1,30
 309 493 309 493 296.5 483 c 128,-1,31
 284 473 284 473 268.5 467.5 c 128,-1,32
 253 462 253 462 237 462 c 0,33,34
 214 462 214 462 195.5 473.5 c 128,-1,35
 177 485 177 485 167 505 c 1,0,-1
371 0 m 1,36,-1
 284 0 l 1,37,-1
 284 41 l 1,38,39
 266 20 266 20 243 5 c 128,-1,40
 220 -10 220 -10 191 -10 c 0,41,42
 156 -10 156 -10 125.5 -3 c 128,-1,43
 95 4 95 4 72 19.5 c 128,-1,44
 49 35 49 35 35.5 61.5 c 128,-1,45
 22 88 22 88 22 127 c 0,46,47
 22 165 22 165 36.5 193.5 c 128,-1,48
 51 222 51 222 76 240.5 c 128,-1,49
 101 259 101 259 133 268.5 c 128,-1,50
 165 278 165 278 200 278 c 0,51,52
 230 278 230 278 252 263 c 128,-1,53
 274 248 274 248 288 222 c 1,54,55
 288 244 288 244 286.5 266.5 c 128,-1,56
 285 289 285 289 277.5 307.5 c 128,-1,57
 270 326 270 326 254 337.5 c 128,-1,58
 238 349 238 349 209 349 c 0,59,60
 186 349 186 349 163 341.5 c 128,-1,61
 140 334 140 334 120 323 c 1,62,-1
 89 389 l 1,63,64
 117 406 117 406 149.5 417 c 128,-1,65
 182 428 182 428 215 428 c 0,66,67
 288 428 288 428 329.5 384 c 128,-1,68
 371 340 371 340 371 268 c 2,69,-1
 371 0 l 1,36,-1
290 132 m 0,70,71
 290 152 290 152 280.5 165.5 c 128,-1,72
 271 179 271 179 256.5 187.5 c 128,-1,73
 242 196 242 196 224.5 199.5 c 128,-1,74
 207 203 207 203 191 203 c 0,75,76
 154 203 154 203 126.5 186.5 c 128,-1,77
 99 170 99 170 99 129 c 0,78,79
 99 109 99 109 107 96.5 c 128,-1,80
 115 84 115 84 128.5 77 c 128,-1,81
 142 70 142 70 158 67.5 c 128,-1,82
 174 65 174 65 191 65 c 0,83,84
 206 65 206 65 223.5 68.5 c 128,-1,85
 241 72 241 72 255.5 79.5 c 128,-1,86
 270 87 270 87 280 100 c 128,-1,87
 290 113 290 113 290 132 c 0,70,71
EndSplineSet
EndChar

StartChar: adieresis
Encoding: 228 228 149
Width: 411
GlyphClass: 2
Flags: W
LayerCount: 2
Fore
SplineSet
73 540 m 256,0,1
 73 566 73 566 89.5 582 c 128,-1,2
 106 598 106 598 132 598 c 0,3,4
 157 598 157 598 173 582.5 c 128,-1,5
 189 567 189 567 189 542 c 0,6,7
 189 516 189 516 173 498.5 c 128,-1,8
 157 481 157 481 131 481 c 256,9,10
 105 481 105 481 89 497.5 c 128,-1,11
 73 514 73 514 73 540 c 256,0,1
260 540 m 256,12,13
 260 566 260 566 276.5 582 c 128,-1,14
 293 598 293 598 319 598 c 0,15,16
 344 598 344 598 360 582.5 c 128,-1,17
 376 567 376 567 376 542 c 0,18,19
 376 516 376 516 360 498.5 c 128,-1,20
 344 481 344 481 318 481 c 256,21,22
 292 481 292 481 276 497.5 c 128,-1,23
 260 514 260 514 260 540 c 256,12,13
373 0 m 1,24,-1
 286 0 l 1,25,-1
 286 41 l 1,26,27
 268 20 268 20 245 5 c 128,-1,28
 222 -10 222 -10 193 -10 c 0,29,30
 158 -10 158 -10 127.5 -3 c 128,-1,31
 97 4 97 4 74 19.5 c 128,-1,32
 51 35 51 35 37.5 61.5 c 128,-1,33
 24 88 24 88 24 127 c 0,34,35
 24 165 24 165 38.5 193.5 c 128,-1,36
 53 222 53 222 78 240.5 c 128,-1,37
 103 259 103 259 135 268.5 c 128,-1,38
 167 278 167 278 202 278 c 0,39,40
 232 278 232 278 254 263 c 128,-1,41
 276 248 276 248 290 222 c 1,42,43
 290 244 290 244 288.5 266.5 c 128,-1,44
 287 289 287 289 279.5 307.5 c 128,-1,45
 272 326 272 326 256 337.5 c 128,-1,46
 240 349 240 349 211 349 c 0,47,48
 188 349 188 349 165 341.5 c 128,-1,49
 142 334 142 334 122 323 c 1,50,-1
 91 389 l 1,51,52
 119 406 119 406 151.5 417 c 128,-1,53
 184 428 184 428 217 428 c 0,54,55
 290 428 290 428 331.5 384 c 128,-1,56
 373 340 373 340 373 268 c 2,57,-1
 373 0 l 1,24,-1
292 132 m 0,58,59
 292 152 292 152 282.5 165.5 c 128,-1,60
 273 179 273 179 258.5 187.5 c 128,-1,61
 244 196 244 196 226.5 199.5 c 128,-1,62
 209 203 209 203 193 203 c 0,63,64
 156 203 156 203 128.5 186.5 c 128,-1,65
 101 170 101 170 101 129 c 0,66,67
 101 109 101 109 109 96.5 c 128,-1,68
 117 84 117 84 130.5 77 c 128,-1,69
 144 70 144 70 160 67.5 c 128,-1,70
 176 65 176 65 193 65 c 0,71,72
 208 65 208 65 225.5 68.5 c 128,-1,73
 243 72 243 72 257.5 79.5 c 128,-1,74
 272 87 272 87 282 100 c 128,-1,75
 292 113 292 113 292 132 c 0,58,59
EndSplineSet
EndChar

StartChar: aring
Encoding: 229 229 150
Width: 391
GlyphClass: 2
Flags: W
LayerCount: 2
Fore
SplineSet
236 534 m 256,0,1
 236 545 236 545 229 551.5 c 128,-1,2
 222 558 222 558 211 558 c 256,3,4
 200 558 200 558 193.5 551 c 128,-1,5
 187 544 187 544 187 533 c 256,6,7
 187 522 187 522 193.5 515 c 128,-1,8
 200 508 200 508 211 508 c 256,9,10
 222 508 222 508 229 515.5 c 128,-1,11
 236 523 236 523 236 534 c 256,0,1
141 532 m 0,12,13
 141 562 141 562 161.5 579.5 c 128,-1,14
 182 597 182 597 211 597 c 0,15,16
 238 597 238 597 259.5 577.5 c 128,-1,17
 281 558 281 558 281 530 c 0,18,19
 281 500 281 500 260 481.5 c 128,-1,20
 239 463 239 463 210 463 c 0,21,22
 180 463 180 463 160.5 482 c 128,-1,23
 141 501 141 501 141 532 c 0,12,13
365 0 m 1,24,-1
 278 0 l 1,25,-1
 278 41 l 1,26,27
 260 20 260 20 237 5 c 128,-1,28
 214 -10 214 -10 185 -10 c 0,29,30
 150 -10 150 -10 119.5 -3 c 128,-1,31
 89 4 89 4 66 19.5 c 128,-1,32
 43 35 43 35 29.5 61.5 c 128,-1,33
 16 88 16 88 16 127 c 0,34,35
 16 165 16 165 30.5 193.5 c 128,-1,36
 45 222 45 222 70 240.5 c 128,-1,37
 95 259 95 259 127 268.5 c 128,-1,38
 159 278 159 278 194 278 c 0,39,40
 224 278 224 278 246 263 c 128,-1,41
 268 248 268 248 282 222 c 1,42,43
 282 244 282 244 280.5 266.5 c 128,-1,44
 279 289 279 289 271.5 307.5 c 128,-1,45
 264 326 264 326 248 337.5 c 128,-1,46
 232 349 232 349 203 349 c 0,47,48
 180 349 180 349 157 341.5 c 128,-1,49
 134 334 134 334 114 323 c 1,50,-1
 83 389 l 1,51,52
 111 406 111 406 143.5 417 c 128,-1,53
 176 428 176 428 209 428 c 0,54,55
 282 428 282 428 323.5 384 c 128,-1,56
 365 340 365 340 365 268 c 2,57,-1
 365 0 l 1,24,-1
284 132 m 0,58,59
 284 152 284 152 274.5 165.5 c 128,-1,60
 265 179 265 179 250.5 187.5 c 128,-1,61
 236 196 236 196 218.5 199.5 c 128,-1,62
 201 203 201 203 185 203 c 0,63,64
 148 203 148 203 120.5 186.5 c 128,-1,65
 93 170 93 170 93 129 c 0,66,67
 93 109 93 109 101 96.5 c 128,-1,68
 109 84 109 84 122.5 77 c 128,-1,69
 136 70 136 70 152 67.5 c 128,-1,70
 168 65 168 65 185 65 c 0,71,72
 200 65 200 65 217.5 68.5 c 128,-1,73
 235 72 235 72 249.5 79.5 c 128,-1,74
 264 87 264 87 274 100 c 128,-1,75
 284 113 284 113 284 132 c 0,58,59
EndSplineSet
EndChar

StartChar: ae
Encoding: 230 230 151
Width: 709
Flags: W
LayerCount: 2
Fore
SplineSet
377 165 m 1,0,1
 388 116 388 116 419.5 93 c 128,-1,2
 451 70 451 70 500 70 c 0,3,4
 527 70 527 70 551.5 82 c 128,-1,5
 576 94 576 94 595 113 c 1,6,-1
 649 59 l 1,7,8
 620 22 620 22 580.5 6 c 128,-1,9
 541 -10 541 -10 495 -10 c 0,10,11
 446 -10 446 -10 410.5 5 c 128,-1,12
 375 20 375 20 344 59 c 1,13,14
 315 29 315 29 278 9.5 c 128,-1,15
 241 -10 241 -10 198 -10 c 0,16,17
 163 -10 163 -10 132.5 -3 c 128,-1,18
 102 4 102 4 79 19.5 c 128,-1,19
 56 35 56 35 42.5 61.5 c 128,-1,20
 29 88 29 88 29 127 c 0,21,22
 29 165 29 165 43.5 193.5 c 128,-1,23
 58 222 58 222 83 240.5 c 128,-1,24
 108 259 108 259 140 268.5 c 128,-1,25
 172 278 172 278 207 278 c 0,26,27
 237 278 237 278 259 263 c 128,-1,28
 281 248 281 248 295 222 c 1,29,30
 295 244 295 244 293.5 266.5 c 128,-1,31
 292 289 292 289 284.5 307.5 c 128,-1,32
 277 326 277 326 261 337.5 c 128,-1,33
 245 349 245 349 216 349 c 0,34,35
 193 349 193 349 170 341.5 c 128,-1,36
 147 334 147 334 127 323 c 1,37,-1
 96 389 l 1,38,39
 124 407 124 407 155.5 417 c 128,-1,40
 187 427 187 427 220 427 c 0,41,42
 261 427 261 427 297.5 412 c 128,-1,43
 334 397 334 397 354 359 c 1,44,45
 382 390 382 390 419 404.5 c 128,-1,46
 456 419 456 419 498 419 c 256,47,48
 540 419 540 419 573.5 402.5 c 128,-1,49
 607 386 607 386 631 358.5 c 128,-1,50
 655 331 655 331 668 294.5 c 128,-1,51
 681 258 681 258 681 219 c 0,52,53
 681 205 681 205 680 192 c 128,-1,54
 679 179 679 179 677 165 c 1,55,-1
 377 165 l 1,0,1
297 132 m 0,56,57
 297 152 297 152 287.5 165.5 c 128,-1,58
 278 179 278 179 263.5 187.5 c 128,-1,59
 249 196 249 196 231.5 199.5 c 128,-1,60
 214 203 214 203 198 203 c 0,61,62
 161 203 161 203 133.5 186.5 c 128,-1,63
 106 170 106 170 106 129 c 0,64,65
 106 109 106 109 114 96.5 c 128,-1,66
 122 84 122 84 135.5 77 c 128,-1,67
 149 70 149 70 165 67.5 c 128,-1,68
 181 65 181 65 198 65 c 0,69,70
 213 65 213 65 230.5 68.5 c 128,-1,71
 248 72 248 72 262.5 79.5 c 128,-1,72
 277 87 277 87 287 100 c 128,-1,73
 297 113 297 113 297 132 c 0,56,57
609 245 m 1,74,75
 601 290 601 290 573 316 c 128,-1,76
 545 342 545 342 497 342 c 256,77,78
 449 342 449 342 420 316 c 128,-1,79
 391 290 391 290 379 245 c 1,80,-1
 609 245 l 1,74,75
EndSplineSet
EndChar

StartChar: ccedilla
Encoding: 231 231 152
Width: 387
Flags: W
LayerCount: 2
Fore
SplineSet
193 -128 m 1,0,1
 201 -138 201 -138 212 -138 c 256,2,3
 223 -138 223 -138 230.5 -130 c 128,-1,4
 238 -122 238 -122 238 -111 c 0,5,6
 238 -95 238 -95 226 -90 c 128,-1,7
 214 -85 214 -85 201 -90 c 1,8,-1
 201 -9 l 1,9,10
 158 -4 158 -4 123.5 15 c 128,-1,11
 89 34 89 34 64.5 63 c 128,-1,12
 40 92 40 92 27 129.5 c 128,-1,13
 14 167 14 167 14 209 c 0,14,15
 14 255 14 255 27.5 296 c 128,-1,16
 41 337 41 337 67 368.5 c 128,-1,17
 93 400 93 400 130.5 418.5 c 128,-1,18
 168 437 168 437 217 437 c 0,19,20
 257 437 257 437 297.5 427 c 128,-1,21
 338 417 338 417 367 388 c 1,22,-1
 321 322 l 1,23,24
 300 345 300 345 272 350 c 128,-1,25
 244 355 244 355 215 355 c 256,26,27
 186 355 186 355 164 341.5 c 128,-1,28
 142 328 142 328 127 306 c 128,-1,29
 112 284 112 284 104.5 257.5 c 128,-1,30
 97 231 97 231 97 206 c 0,31,32
 97 180 97 180 105.5 156.5 c 128,-1,33
 114 133 114 133 129 115 c 128,-1,34
 144 97 144 97 166 86 c 128,-1,35
 188 75 188 75 215 75 c 256,36,37
 242 75 242 75 269.5 78 c 128,-1,38
 297 81 297 81 320 99 c 1,39,-1
 364 33 l 1,40,41
 350 19 350 19 336.5 11 c 128,-1,42
 323 3 323 3 309 -1.5 c 128,-1,43
 295 -6 295 -6 279 -7.5 c 128,-1,44
 263 -9 263 -9 243 -9 c 1,45,-1
 243 -55 l 1,46,47
 261 -64 261 -64 272 -79.5 c 128,-1,48
 283 -95 283 -95 283 -115 c 0,49,50
 283 -145 283 -145 261.5 -164 c 128,-1,51
 240 -183 240 -183 211 -183 c 0,52,53
 194 -183 194 -183 181.5 -176.5 c 128,-1,54
 169 -170 169 -170 158 -158 c 1,55,-1
 193 -128 l 1,0,1
EndSplineSet
EndChar

StartChar: egrave
Encoding: 232 232 153
Width: 420
GlyphClass: 2
Flags: W
LayerCount: 2
Fore
SplineSet
174 635 m 1,0,-1
 314 488 l 1,1,-1
 264 441 l 1,2,-1
 112 562 l 1,3,-1
 174 635 l 1,0,-1
101 165 m 1,4,5
 112 116 112 116 143.5 93 c 128,-1,6
 175 70 175 70 224 70 c 0,7,8
 251 70 251 70 275.5 82 c 128,-1,9
 300 94 300 94 319 113 c 1,10,-1
 373 59 l 1,11,12
 344 22 344 22 304.5 6 c 128,-1,13
 265 -10 265 -10 219 -10 c 256,14,15
 173 -10 173 -10 136 6 c 128,-1,16
 99 22 99 22 73 50.5 c 128,-1,17
 47 79 47 79 33 118 c 128,-1,18
 19 157 19 157 19 202 c 256,19,20
 19 247 19 247 33.5 286.5 c 128,-1,21
 48 326 48 326 74 355.5 c 128,-1,22
 100 385 100 385 137.5 402 c 128,-1,23
 175 419 175 419 222 419 c 0,24,25
 264 419 264 419 297.5 402.5 c 128,-1,26
 331 386 331 386 355 358.5 c 128,-1,27
 379 331 379 331 392 294.5 c 128,-1,28
 405 258 405 258 405 219 c 0,29,30
 405 205 405 205 404 192 c 128,-1,31
 403 179 403 179 401 165 c 1,32,-1
 101 165 l 1,4,5
333 245 m 1,33,34
 325 290 325 290 297 316 c 128,-1,35
 269 342 269 342 221 342 c 256,36,37
 173 342 173 342 144 316 c 128,-1,38
 115 290 115 290 103 245 c 1,39,-1
 333 245 l 1,33,34
EndSplineSet
EndChar

StartChar: eacute
Encoding: 233 233 154
Width: 420
GlyphClass: 2
Flags: W
LayerCount: 2
Fore
SplineSet
249 628 m 1,0,-1
 311 555 l 1,1,-1
 159 434 l 1,2,-1
 109 481 l 1,3,-1
 249 628 l 1,0,-1
98 165 m 1,4,5
 109 116 109 116 140.5 93 c 128,-1,6
 172 70 172 70 221 70 c 0,7,8
 248 70 248 70 272.5 82 c 128,-1,9
 297 94 297 94 316 113 c 1,10,-1
 370 59 l 1,11,12
 341 22 341 22 301.5 6 c 128,-1,13
 262 -10 262 -10 216 -10 c 256,14,15
 170 -10 170 -10 133 6 c 128,-1,16
 96 22 96 22 70 50.5 c 128,-1,17
 44 79 44 79 30 118 c 128,-1,18
 16 157 16 157 16 202 c 256,19,20
 16 247 16 247 30.5 286.5 c 128,-1,21
 45 326 45 326 71 355.5 c 128,-1,22
 97 385 97 385 134.5 402 c 128,-1,23
 172 419 172 419 219 419 c 0,24,25
 261 419 261 419 294.5 402.5 c 128,-1,26
 328 386 328 386 352 358.5 c 128,-1,27
 376 331 376 331 389 294.5 c 128,-1,28
 402 258 402 258 402 219 c 0,29,30
 402 205 402 205 401 192 c 128,-1,31
 400 179 400 179 398 165 c 1,32,-1
 98 165 l 1,4,5
330 245 m 1,33,34
 322 290 322 290 294 316 c 128,-1,35
 266 342 266 342 218 342 c 256,36,37
 170 342 170 342 141 316 c 128,-1,38
 112 290 112 290 100 245 c 1,39,-1
 330 245 l 1,33,34
EndSplineSet
EndChar

StartChar: ecircumflex
Encoding: 234 234 155
Width: 421
GlyphClass: 2
Flags: W
LayerCount: 2
Fore
SplineSet
99 165 m 1,0,1
 110 116 110 116 141.5 93 c 128,-1,2
 173 70 173 70 222 70 c 0,3,4
 249 70 249 70 273.5 82 c 128,-1,5
 298 94 298 94 317 113 c 1,6,-1
 371 59 l 1,7,8
 342 22 342 22 302.5 6 c 128,-1,9
 263 -10 263 -10 217 -10 c 256,10,11
 171 -10 171 -10 134 6 c 128,-1,12
 97 22 97 22 71 50.5 c 128,-1,13
 45 79 45 79 31 118 c 128,-1,14
 17 157 17 157 17 202 c 256,15,16
 17 247 17 247 31.5 286.5 c 128,-1,17
 46 326 46 326 72 355.5 c 128,-1,18
 98 385 98 385 135.5 402 c 128,-1,19
 173 419 173 419 220 419 c 0,20,21
 262 419 262 419 295.5 402.5 c 128,-1,22
 329 386 329 386 353 358.5 c 128,-1,23
 377 331 377 331 390 294.5 c 128,-1,24
 403 258 403 258 403 219 c 0,25,26
 403 205 403 205 402 192 c 128,-1,27
 401 179 401 179 399 165 c 1,28,-1
 99 165 l 1,0,1
331 245 m 1,29,30
 323 290 323 290 295 316 c 128,-1,31
 267 342 267 342 219 342 c 256,32,33
 171 342 171 342 142 316 c 128,-1,34
 113 290 113 290 101 245 c 1,35,-1
 331 245 l 1,29,30
364 454 m 1,36,-1
 289 454 l 1,37,-1
 224 545 l 1,38,-1
 153 454 l 1,39,-1
 73 454 l 1,40,-1
 225 658 l 1,41,-1
 364 454 l 1,36,-1
EndSplineSet
EndChar

StartChar: edieresis
Encoding: 235 235 156
Width: 436
GlyphClass: 2
Flags: W
LayerCount: 2
Fore
SplineSet
81 551 m 256,0,1
 81 577 81 577 97.5 593 c 128,-1,2
 114 609 114 609 140 609 c 0,3,4
 165 609 165 609 181 593.5 c 128,-1,5
 197 578 197 578 197 553 c 0,6,7
 197 527 197 527 181 509.5 c 128,-1,8
 165 492 165 492 139 492 c 256,9,10
 113 492 113 492 97 508.5 c 128,-1,11
 81 525 81 525 81 551 c 256,0,1
268 551 m 256,12,13
 268 577 268 577 284.5 593 c 128,-1,14
 301 609 301 609 327 609 c 0,15,16
 352 609 352 609 368 593.5 c 128,-1,17
 384 578 384 578 384 553 c 0,18,19
 384 527 384 527 368 509.5 c 128,-1,20
 352 492 352 492 326 492 c 256,21,22
 300 492 300 492 284 508.5 c 128,-1,23
 268 525 268 525 268 551 c 256,12,13
106 165 m 1,24,25
 117 116 117 116 148.5 93 c 128,-1,26
 180 70 180 70 229 70 c 0,27,28
 256 70 256 70 280.5 82 c 128,-1,29
 305 94 305 94 324 113 c 1,30,-1
 378 59 l 1,31,32
 349 22 349 22 309.5 6 c 128,-1,33
 270 -10 270 -10 224 -10 c 256,34,35
 178 -10 178 -10 141 6 c 128,-1,36
 104 22 104 22 78 50.5 c 128,-1,37
 52 79 52 79 38 118 c 128,-1,38
 24 157 24 157 24 202 c 256,39,40
 24 247 24 247 38.5 286.5 c 128,-1,41
 53 326 53 326 79 355.5 c 128,-1,42
 105 385 105 385 142.5 402 c 128,-1,43
 180 419 180 419 227 419 c 0,44,45
 269 419 269 419 302.5 402.5 c 128,-1,46
 336 386 336 386 360 358.5 c 128,-1,47
 384 331 384 331 397 294.5 c 128,-1,48
 410 258 410 258 410 219 c 0,49,50
 410 205 410 205 409 192 c 128,-1,51
 408 179 408 179 406 165 c 1,52,-1
 106 165 l 1,24,25
338 245 m 1,53,54
 330 290 330 290 302 316 c 128,-1,55
 274 342 274 342 226 342 c 256,56,57
 178 342 178 342 149 316 c 128,-1,58
 120 290 120 290 108 245 c 1,59,-1
 338 245 l 1,53,54
EndSplineSet
EndChar

StartChar: igrave
Encoding: 236 236 157
Width: 230
Flags: W
LayerCount: 2
Fore
SplineSet
102 422 m 1,0,-1
 194 422 l 1,1,-1
 194 0 l 1,2,-1
 103 0 l 1,3,-1
 102 422 l 1,4,-1
 102 422 l 1,0,-1
70 673 m 1,5,-1
 210 526 l 1,6,-1
 160 479 l 1,7,-1
 8 600 l 1,8,-1
 70 673 l 1,9,-1
 70 673 l 1,5,-1
EndSplineSet
EndChar

StartChar: iacute
Encoding: 237 237 158
Width: 232
Flags: W
LayerCount: 2
Fore
SplineSet
29 422 m 1,0,-1
 121 422 l 1,1,-1
 121 0 l 1,2,-1
 30 0 l 1,3,-1
 29 422 l 1,4,-1
 29 422 l 1,0,-1
164 658 m 1,5,-1
 226 585 l 1,6,-1
 74 464 l 1,7,-1
 24 511 l 1,8,-1
 164 658 l 1,9,-1
 164 658 l 1,5,-1
EndSplineSet
EndChar

StartChar: icircumflex
Encoding: 238 238 159
Width: 305
Flags: W
LayerCount: 2
Fore
SplineSet
103 422 m 1,0,-1
 195 422 l 1,1,-1
 195 0 l 1,2,-1
 104 0 l 1,3,-1
 103 422 l 1,4,-1
 103 422 l 1,0,-1
298 459 m 1,5,-1
 223 459 l 1,6,-1
 158 550 l 1,7,-1
 87 459 l 1,8,-1
 7 459 l 1,9,-1
 159 663 l 1,10,-1
 298 459 l 1,11,-1
 298 459 l 1,5,-1
EndSplineSet
EndChar

StartChar: idieresis
Encoding: 239 239 160
Width: 271
Flags: W
LayerCount: 2
Fore
SplineSet
147 535 m 256,0,1
 147 558 147 558 162.5 571.5 c 128,-1,2
 178 585 178 585 200 585 c 256,3,4
 222 585 222 585 237 572 c 128,-1,5
 252 559 252 559 252 536 c 256,6,7
 252 513 252 513 237 498 c 128,-1,8
 222 483 222 483 199 483 c 256,9,10
 176 483 176 483 161.5 497.5 c 128,-1,11
 147 512 147 512 147 535 c 256,0,1
91 422 m 1,12,-1
 183 422 l 1,13,-1
 183 0 l 1,14,-1
 92 0 l 1,15,-1
 91 422 l 1,12,-1
18 535 m 256,16,17
 18 558 18 558 33.5 571.5 c 128,-1,18
 49 585 49 585 71 585 c 256,19,20
 93 585 93 585 108 572 c 128,-1,21
 123 559 123 559 123 536 c 256,22,23
 123 513 123 513 108 498 c 128,-1,24
 93 483 93 483 70 483 c 256,25,26
 47 483 47 483 32.5 497.5 c 128,-1,27
 18 512 18 512 18 535 c 256,16,17
EndSplineSet
EndChar

StartChar: eth
Encoding: 240 240 161
Width: 449
GlyphClass: 2
Flags: W
LayerCount: 2
Fore
SplineSet
274 577 m 1,0,-1
 212 520 l 1,1,-1
 394 326 l 2,2,3
 403 316 403 316 411 300.5 c 128,-1,4
 419 285 419 285 424 268 c 128,-1,5
 429 251 429 251 432 234 c 128,-1,6
 435 217 435 217 435 203 c 0,7,8
 435 161 435 161 418.5 124 c 128,-1,9
 402 87 402 87 374 59.5 c 128,-1,10
 346 32 346 32 309 15.5 c 128,-1,11
 272 -1 272 -1 230 -1 c 0,12,13
 187 -1 187 -1 149.5 15.5 c 128,-1,14
 112 32 112 32 84.5 60.5 c 128,-1,15
 57 89 57 89 41.5 126.5 c 128,-1,16
 26 164 26 164 26 207 c 0,17,18
 26 244 26 244 41 280.5 c 128,-1,19
 56 317 56 317 82.5 345.5 c 128,-1,20
 109 374 109 374 144 391 c 128,-1,21
 179 408 179 408 218 406 c 1,22,-1
 157 469 l 1,23,-1
 99 416 l 1,24,-1
 50 469 l 1,25,-1
 107 521 l 1,26,-1
 39 592 l 1,27,-1
 98 641 l 1,28,-1
 162 572 l 1,29,-1
 225 630 l 1,30,-1
 274 577 l 1,0,-1
237 328 m 0,31,32
 211 328 211 328 187.5 319 c 128,-1,33
 164 310 164 310 146 293.5 c 128,-1,34
 128 277 128 277 117 255 c 128,-1,35
 106 233 106 233 106 206 c 0,36,37
 106 180 106 180 115 157 c 128,-1,38
 124 134 124 134 140.5 117 c 128,-1,39
 157 100 157 100 179.5 90 c 128,-1,40
 202 80 202 80 228 80 c 0,41,42
 253 80 253 80 276 89.5 c 128,-1,43
 299 99 299 99 317 115.5 c 128,-1,44
 335 132 335 132 345.5 154.5 c 128,-1,45
 356 177 356 177 356 203 c 0,46,47
 356 228 356 228 347 250.5 c 128,-1,48
 338 273 338 273 322 290 c 128,-1,49
 306 307 306 307 284 317.5 c 128,-1,50
 262 328 262 328 237 328 c 0,31,32
EndSplineSet
EndChar

StartChar: ntilde
Encoding: 241 241 162
Width: 405
Flags: W
LayerCount: 2
Fore
SplineSet
166 531 m 1,0,-1
 153 539 l 1,1,2
 148 539 148 539 146 535.5 c 128,-1,3
 144 532 144 532 144.5 527 c 128,-1,4
 145 522 145 522 146.5 517 c 128,-1,5
 148 512 148 512 149 510 c 1,6,-1
 84 482 l 1,7,8
 79 493 79 493 75 504.5 c 128,-1,9
 71 516 71 516 71 528 c 0,10,11
 71 545 71 545 78.5 559 c 128,-1,12
 86 573 86 573 98.5 583 c 128,-1,13
 111 593 111 593 126.5 598.5 c 128,-1,14
 142 604 142 604 158 604 c 0,15,16
 181 604 181 604 199.5 592.5 c 128,-1,17
 218 581 218 581 228 561 c 1,18,-1
 241 553 l 1,19,20
 246 553 246 553 248 556.5 c 128,-1,21
 250 560 250 560 249.5 565 c 128,-1,22
 249 570 249 570 247.5 575 c 128,-1,23
 246 580 246 580 245 582 c 1,24,-1
 310 610 l 1,25,26
 315 599 315 599 319 587.5 c 128,-1,27
 323 576 323 576 323 564 c 0,28,29
 323 547 323 547 315.5 533 c 128,-1,30
 308 519 308 519 295.5 509 c 128,-1,31
 283 499 283 499 267.5 493.5 c 128,-1,32
 252 488 252 488 236 488 c 0,33,34
 213 488 213 488 194.5 499.5 c 128,-1,35
 176 511 176 511 166 531 c 1,0,-1
292 0 m 1,36,-1
 292 226 l 2,37,38
 292 247 292 247 288.5 266.5 c 128,-1,39
 285 286 285 286 276 302 c 128,-1,40
 267 318 267 318 251.5 327.5 c 128,-1,41
 236 337 236 337 211 337 c 0,42,43
 158 337 158 337 137 305.5 c 128,-1,44
 116 274 116 274 116 226 c 2,45,-1
 116 0 l 1,46,-1
 32 0 l 1,47,-1
 32 410 l 1,48,-1
 113 410 l 1,49,-1
 113 353 l 1,50,51
 122 391 122 391 147.5 409 c 128,-1,52
 173 427 173 427 211 427 c 0,53,54
 258 427 258 427 289.5 411.5 c 128,-1,55
 321 396 321 396 340 368.5 c 128,-1,56
 359 341 359 341 367 304.5 c 128,-1,57
 375 268 375 268 375 226 c 2,58,-1
 375 0 l 1,59,-1
 292 0 l 1,36,-1
EndSplineSet
EndChar

StartChar: ograve
Encoding: 242 242 163
Width: 495
GlyphClass: 2
Flags: W
LayerCount: 2
Fore
SplineSet
253 357 m 0,0,1
 223 357 223 357 196.5 346 c 128,-1,2
 170 335 170 335 150.5 316 c 128,-1,3
 131 297 131 297 120 271 c 128,-1,4
 109 245 109 245 109 215 c 0,5,6
 109 149 109 149 144.5 105.5 c 128,-1,7
 180 62 180 62 250 62 c 0,8,9
 318 62 318 62 358.5 103.5 c 128,-1,10
 399 145 399 145 399 213 c 0,11,12
 399 278 399 278 358.5 317.5 c 128,-1,13
 318 357 318 357 253 357 c 0,0,1
482 211 m 0,14,15
 482 160 482 160 464.5 119 c 128,-1,16
 447 78 447 78 416 48.5 c 128,-1,17
 385 19 385 19 342.5 3 c 128,-1,18
 300 -13 300 -13 250 -13 c 256,19,20
 200 -13 200 -13 158 2.5 c 128,-1,21
 116 18 116 18 86 47.5 c 128,-1,22
 56 77 56 77 39 118 c 128,-1,23
 22 159 22 159 22 210 c 0,24,25
 22 260 22 260 40 301 c 128,-1,26
 58 342 58 342 89 371.5 c 128,-1,27
 120 401 120 401 162.5 417 c 128,-1,28
 205 433 205 433 255 433 c 0,29,30
 304 433 304 433 346 417 c 128,-1,31
 388 401 388 401 418 372 c 128,-1,32
 448 343 448 343 465 302 c 128,-1,33
 482 261 482 261 482 211 c 0,14,15
166 656 m 1,34,-1
 306 509 l 1,35,-1
 256 462 l 1,36,-1
 104 583 l 1,37,-1
 166 656 l 1,34,-1
EndSplineSet
EndChar

StartChar: oacute
Encoding: 243 243 164
Width: 496
GlyphClass: 2
Flags: W
LayerCount: 2
Fore
SplineSet
282 643 m 1,0,-1
 344 570 l 1,1,-1
 192 449 l 1,2,-1
 142 496 l 1,3,-1
 282 643 l 1,0,-1
248 357 m 0,4,5
 218 357 218 357 191.5 346 c 128,-1,6
 165 335 165 335 145.5 316 c 128,-1,7
 126 297 126 297 115 271 c 128,-1,8
 104 245 104 245 104 215 c 0,9,10
 104 149 104 149 139.5 105.5 c 128,-1,11
 175 62 175 62 245 62 c 0,12,13
 313 62 313 62 353.5 103.5 c 128,-1,14
 394 145 394 145 394 213 c 0,15,16
 394 278 394 278 353.5 317.5 c 128,-1,17
 313 357 313 357 248 357 c 0,4,5
477 211 m 0,18,19
 477 160 477 160 459.5 119 c 128,-1,20
 442 78 442 78 411 48.5 c 128,-1,21
 380 19 380 19 337.5 3 c 128,-1,22
 295 -13 295 -13 245 -13 c 256,23,24
 195 -13 195 -13 153 2.5 c 128,-1,25
 111 18 111 18 81 47.5 c 128,-1,26
 51 77 51 77 34 118 c 128,-1,27
 17 159 17 159 17 210 c 0,28,29
 17 260 17 260 35 301 c 128,-1,30
 53 342 53 342 84 371.5 c 128,-1,31
 115 401 115 401 157.5 417 c 128,-1,32
 200 433 200 433 250 433 c 0,33,34
 299 433 299 433 341 417 c 128,-1,35
 383 401 383 401 413 372 c 128,-1,36
 443 343 443 343 460 302 c 128,-1,37
 477 261 477 261 477 211 c 0,18,19
EndSplineSet
EndChar

StartChar: ocircumflex
Encoding: 244 244 165
Width: 495
GlyphClass: 2
Flags: W
LayerCount: 2
Fore
SplineSet
248 357 m 0,0,1
 218 357 218 357 191.5 346 c 128,-1,2
 165 335 165 335 145.5 316 c 128,-1,3
 126 297 126 297 115 271 c 128,-1,4
 104 245 104 245 104 215 c 0,5,6
 104 149 104 149 139.5 105.5 c 128,-1,7
 175 62 175 62 245 62 c 0,8,9
 313 62 313 62 353.5 103.5 c 128,-1,10
 394 145 394 145 394 213 c 0,11,12
 394 278 394 278 353.5 317.5 c 128,-1,13
 313 357 313 357 248 357 c 0,0,1
477 211 m 0,14,15
 477 160 477 160 459.5 119 c 128,-1,16
 442 78 442 78 411 48.5 c 128,-1,17
 380 19 380 19 337.5 3 c 128,-1,18
 295 -13 295 -13 245 -13 c 256,19,20
 195 -13 195 -13 153 2.5 c 128,-1,21
 111 18 111 18 81 47.5 c 128,-1,22
 51 77 51 77 34 118 c 128,-1,23
 17 159 17 159 17 210 c 0,24,25
 17 260 17 260 35 301 c 128,-1,26
 53 342 53 342 84 371.5 c 128,-1,27
 115 401 115 401 157.5 417 c 128,-1,28
 200 433 200 433 250 433 c 0,29,30
 299 433 299 433 341 417 c 128,-1,31
 383 401 383 401 413 372 c 128,-1,32
 443 343 443 343 460 302 c 128,-1,33
 477 261 477 261 477 211 c 0,14,15
396 496 m 1,34,-1
 321 496 l 1,35,-1
 256 587 l 1,36,-1
 185 496 l 1,37,-1
 105 496 l 1,38,-1
 257 700 l 1,39,-1
 396 496 l 1,34,-1
EndSplineSet
EndChar

StartChar: otilde
Encoding: 245 245 166
Width: 503
Flags: W
LayerCount: 2
Fore
SplineSet
210 531 m 1,0,-1
 197 539 l 1,1,2
 192 539 192 539 190 535.5 c 128,-1,3
 188 532 188 532 188.5 527 c 128,-1,4
 189 522 189 522 190.5 517 c 128,-1,5
 192 512 192 512 193 510 c 1,6,-1
 128 482 l 1,7,8
 123 493 123 493 119 504.5 c 128,-1,9
 115 516 115 516 115 528 c 0,10,11
 115 545 115 545 122.5 559 c 128,-1,12
 130 573 130 573 142.5 583 c 128,-1,13
 155 593 155 593 170.5 598.5 c 128,-1,14
 186 604 186 604 202 604 c 0,15,16
 225 604 225 604 243.5 592.5 c 128,-1,17
 262 581 262 581 272 561 c 1,18,-1
 285 553 l 1,19,20
 290 553 290 553 292 556.5 c 128,-1,21
 294 560 294 560 293.5 565 c 128,-1,22
 293 570 293 570 291.5 575 c 128,-1,23
 290 580 290 580 289 582 c 1,24,-1
 354 610 l 1,25,26
 359 599 359 599 363 587.5 c 128,-1,27
 367 576 367 576 367 564 c 0,28,29
 367 547 367 547 359.5 533 c 128,-1,30
 352 519 352 519 339.5 509 c 128,-1,31
 327 499 327 499 311.5 493.5 c 128,-1,32
 296 488 296 488 280 488 c 0,33,34
 257 488 257 488 238.5 499.5 c 128,-1,35
 220 511 220 511 210 531 c 1,0,-1
253 357 m 0,36,37
 223 357 223 357 196.5 346 c 128,-1,38
 170 335 170 335 150.5 316 c 128,-1,39
 131 297 131 297 120 271 c 128,-1,40
 109 245 109 245 109 215 c 0,41,42
 109 149 109 149 144.5 105.5 c 128,-1,43
 180 62 180 62 250 62 c 0,44,45
 318 62 318 62 358.5 103.5 c 128,-1,46
 399 145 399 145 399 213 c 0,47,48
 399 278 399 278 358.5 317.5 c 128,-1,49
 318 357 318 357 253 357 c 0,36,37
482 211 m 0,50,51
 482 160 482 160 464.5 119 c 128,-1,52
 447 78 447 78 416 48.5 c 128,-1,53
 385 19 385 19 342.5 3 c 128,-1,54
 300 -13 300 -13 250 -13 c 256,55,56
 200 -13 200 -13 158 2.5 c 128,-1,57
 116 18 116 18 86 47.5 c 128,-1,58
 56 77 56 77 39 118 c 128,-1,59
 22 159 22 159 22 210 c 0,60,61
 22 260 22 260 40 301 c 128,-1,62
 58 342 58 342 89 371.5 c 128,-1,63
 120 401 120 401 162.5 417 c 128,-1,64
 205 433 205 433 255 433 c 0,65,66
 304 433 304 433 346 417 c 128,-1,67
 388 401 388 401 418 372 c 128,-1,68
 448 343 448 343 465 302 c 128,-1,69
 482 261 482 261 482 211 c 0,50,51
EndSplineSet
EndChar

StartChar: odieresis
Encoding: 246 246 167
Width: 507
GlyphClass: 2
Flags: W
LayerCount: 2
Fore
SplineSet
95 561 m 256,0,1
 95 587 95 587 111.5 603 c 128,-1,2
 128 619 128 619 154 619 c 0,3,4
 179 619 179 619 195 603.5 c 128,-1,5
 211 588 211 588 211 563 c 0,6,7
 211 537 211 537 195 519.5 c 128,-1,8
 179 502 179 502 153 502 c 256,9,10
 127 502 127 502 111 518.5 c 128,-1,11
 95 535 95 535 95 561 c 256,0,1
282 561 m 256,12,13
 282 587 282 587 298.5 603 c 128,-1,14
 315 619 315 619 341 619 c 0,15,16
 366 619 366 619 382 603.5 c 128,-1,17
 398 588 398 588 398 563 c 0,18,19
 398 537 398 537 382 519.5 c 128,-1,20
 366 502 366 502 340 502 c 256,21,22
 314 502 314 502 298 518.5 c 128,-1,23
 282 535 282 535 282 561 c 256,12,13
255 357 m 0,24,25
 225 357 225 357 198.5 346 c 128,-1,26
 172 335 172 335 152.5 316 c 128,-1,27
 133 297 133 297 122 271 c 128,-1,28
 111 245 111 245 111 215 c 0,29,30
 111 149 111 149 146.5 105.5 c 128,-1,31
 182 62 182 62 252 62 c 0,32,33
 320 62 320 62 360.5 103.5 c 128,-1,34
 401 145 401 145 401 213 c 0,35,36
 401 278 401 278 360.5 317.5 c 128,-1,37
 320 357 320 357 255 357 c 0,24,25
484 211 m 0,38,39
 484 160 484 160 466.5 119 c 128,-1,40
 449 78 449 78 418 48.5 c 128,-1,41
 387 19 387 19 344.5 3 c 128,-1,42
 302 -13 302 -13 252 -13 c 256,43,44
 202 -13 202 -13 160 2.5 c 128,-1,45
 118 18 118 18 88 47.5 c 128,-1,46
 58 77 58 77 41 118 c 128,-1,47
 24 159 24 159 24 210 c 0,48,49
 24 260 24 260 42 301 c 128,-1,50
 60 342 60 342 91 371.5 c 128,-1,51
 122 401 122 401 164.5 417 c 128,-1,52
 207 433 207 433 257 433 c 0,53,54
 306 433 306 433 348 417 c 128,-1,55
 390 401 390 401 420 372 c 128,-1,56
 450 343 450 343 467 302 c 128,-1,57
 484 261 484 261 484 211 c 0,38,39
EndSplineSet
EndChar

StartChar: divide
Encoding: 247 247 168
Width: 309
GlyphClass: 2
Flags: W
LayerCount: 2
Fore
SplineSet
299 222 m 1,0,-1
 10 222 l 1,1,-1
 10 303 l 1,2,-1
 299 303 l 1,3,-1
 299 222 l 1,0,-1
92 402 m 0,4,5
 92 427 92 427 110 441.5 c 128,-1,6
 128 456 128 456 151 456 c 0,7,8
 175 456 175 456 192 442 c 128,-1,9
 209 428 209 428 209 403 c 0,10,11
 209 377 209 377 192 361 c 128,-1,12
 175 345 175 345 150 345 c 256,13,14
 125 345 125 345 108.5 360.5 c 128,-1,15
 92 376 92 376 92 402 c 0,4,5
102 116 m 256,16,17
 102 142 102 142 118.5 158 c 128,-1,18
 135 174 135 174 161 174 c 0,19,20
 186 174 186 174 202 158.5 c 128,-1,21
 218 143 218 143 218 118 c 0,22,23
 218 92 218 92 202 74.5 c 128,-1,24
 186 57 186 57 160 57 c 256,25,26
 134 57 134 57 118 73.5 c 128,-1,27
 102 90 102 90 102 116 c 256,16,17
EndSplineSet
EndChar

StartChar: oslash
Encoding: 248 248 169
Width: 520
Flags: W
LayerCount: 2
Fore
SplineSet
135 0 m 1,0,-1
 32 0 l 1,1,-1
 81 58 l 1,2,3
 54 89 54 89 41.5 128.5 c 128,-1,4
 29 168 29 168 29 210 c 0,5,6
 29 260 29 260 47 301 c 128,-1,7
 65 342 65 342 96 371.5 c 128,-1,8
 127 401 127 401 169.5 417 c 128,-1,9
 212 433 212 433 262 433 c 0,10,11
 291 433 291 433 319 427.5 c 128,-1,12
 347 422 347 422 373 408 c 1,13,-1
 394 433 l 1,14,-1
 491 433 l 1,15,-1
 434 363 l 1,16,17
 463 334 463 334 476 292.5 c 128,-1,18
 489 251 489 251 489 211 c 0,19,20
 489 160 489 160 471.5 119 c 128,-1,21
 454 78 454 78 423 48.5 c 128,-1,22
 392 19 392 19 349.5 3 c 128,-1,23
 307 -13 307 -13 257 -13 c 0,24,25
 228 -13 228 -13 199 -7.5 c 128,-1,26
 170 -2 170 -2 144 11 c 1,27,-1
 135 0 l 1,0,-1
257 62 m 0,28,29
 325 62 325 62 365.5 103.5 c 128,-1,30
 406 145 406 145 406 213 c 0,31,32
 406 236 406 236 400.5 258 c 128,-1,33
 395 280 395 280 381 299 c 1,34,-1
 195 73 l 1,35,36
 226 62 226 62 257 62 c 0,28,29
260 357 m 0,37,38
 230 357 230 357 203.5 346 c 128,-1,39
 177 335 177 335 157.5 316 c 128,-1,40
 138 297 138 297 127 271 c 128,-1,41
 116 245 116 245 116 215 c 0,42,43
 116 165 116 165 136 125 c 1,44,-1
 321 346 l 1,45,46
 307 352 307 352 291.5 354.5 c 128,-1,47
 276 357 276 357 260 357 c 0,37,38
EndSplineSet
EndChar

StartChar: ugrave
Encoding: 249 249 170
Width: 388
GlyphClass: 2
Flags: W
LayerCount: 2
Fore
SplineSet
24 199 m 2,0,-1
 24 410 l 1,1,-1
 110 410 l 1,2,-1
 110 190 l 2,3,4
 110 167 110 167 114 144.5 c 128,-1,5
 118 122 118 122 128 105 c 128,-1,6
 138 88 138 88 156 77.5 c 128,-1,7
 174 67 174 67 201 67 c 0,8,9
 229 67 229 67 246 82.5 c 128,-1,10
 263 98 263 98 271.5 120.5 c 128,-1,11
 280 143 280 143 282.5 169 c 128,-1,12
 285 195 285 195 285 216 c 2,13,-1
 285 410 l 1,14,-1
 365 410 l 1,15,-1
 365 0 l 1,16,-1
 282 0 l 1,17,-1
 282 37 l 1,18,19
 276 20 276 20 263.5 11 c 128,-1,20
 251 2 251 2 235 -3 c 128,-1,21
 219 -8 219 -8 202 -9 c 128,-1,22
 185 -10 185 -10 171 -10 c 0,23,24
 126 -10 126 -10 97 8.5 c 128,-1,25
 68 27 68 27 52 56.5 c 128,-1,26
 36 86 36 86 30 123.5 c 128,-1,27
 24 161 24 161 24 199 c 2,0,-1
157 638 m 1,28,-1
 297 491 l 1,29,-1
 247 444 l 1,30,-1
 95 565 l 1,31,-1
 157 638 l 1,28,-1
EndSplineSet
EndChar

StartChar: uacute
Encoding: 250 250 171
Width: 389
Flags: W
LayerCount: 2
Fore
SplineSet
236 629 m 1,0,-1
 298 556 l 1,1,-1
 146 435 l 1,2,-1
 96 482 l 1,3,-1
 236 629 l 1,0,-1
20 199 m 2,4,-1
 20 410 l 1,5,-1
 106 410 l 1,6,-1
 106 190 l 2,7,8
 106 167 106 167 110 144.5 c 128,-1,9
 114 122 114 122 124 105 c 128,-1,10
 134 88 134 88 152 77.5 c 128,-1,11
 170 67 170 67 197 67 c 0,12,13
 225 67 225 67 242 82.5 c 128,-1,14
 259 98 259 98 267.5 120.5 c 128,-1,15
 276 143 276 143 278.5 169 c 128,-1,16
 281 195 281 195 281 216 c 2,17,-1
 281 410 l 1,18,-1
 361 410 l 1,19,-1
 361 0 l 1,20,-1
 278 0 l 1,21,-1
 278 37 l 1,22,23
 272 20 272 20 259.5 11 c 128,-1,24
 247 2 247 2 231 -3 c 128,-1,25
 215 -8 215 -8 198 -9 c 128,-1,26
 181 -10 181 -10 167 -10 c 0,27,28
 122 -10 122 -10 93 8.5 c 128,-1,29
 64 27 64 27 48 56.5 c 128,-1,30
 32 86 32 86 26 123.5 c 128,-1,31
 20 161 20 161 20 199 c 2,4,-1
EndSplineSet
EndChar

StartChar: ucircumflex
Encoding: 251 251 172
Width: 389
GlyphClass: 2
Flags: W
LayerCount: 2
Fore
SplineSet
22 199 m 2,0,-1
 22 410 l 1,1,-1
 108 410 l 1,2,-1
 108 190 l 2,3,4
 108 167 108 167 112 144.5 c 128,-1,5
 116 122 116 122 126 105 c 128,-1,6
 136 88 136 88 154 77.5 c 128,-1,7
 172 67 172 67 199 67 c 0,8,9
 227 67 227 67 244 82.5 c 128,-1,10
 261 98 261 98 269.5 120.5 c 128,-1,11
 278 143 278 143 280.5 169 c 128,-1,12
 283 195 283 195 283 216 c 2,13,-1
 283 410 l 1,14,-1
 363 410 l 1,15,-1
 363 0 l 1,16,-1
 280 0 l 1,17,-1
 280 37 l 1,18,19
 274 20 274 20 261.5 11 c 128,-1,20
 249 2 249 2 233 -3 c 128,-1,21
 217 -8 217 -8 200 -9 c 128,-1,22
 183 -10 183 -10 169 -10 c 0,23,24
 124 -10 124 -10 95 8.5 c 128,-1,25
 66 27 66 27 50 56.5 c 128,-1,26
 34 86 34 86 28 123.5 c 128,-1,27
 22 161 22 161 22 199 c 2,0,-1
342 467 m 1,28,-1
 267 467 l 1,29,-1
 202 558 l 1,30,-1
 131 467 l 1,31,-1
 51 467 l 1,32,-1
 203 671 l 1,33,-1
 342 467 l 1,28,-1
EndSplineSet
EndChar

StartChar: udieresis
Encoding: 252 252 173
Width: 407
GlyphClass: 2
Flags: W
LayerCount: 2
Fore
SplineSet
58 534 m 256,0,1
 58 560 58 560 74.5 576 c 128,-1,2
 91 592 91 592 117 592 c 0,3,4
 142 592 142 592 158 576.5 c 128,-1,5
 174 561 174 561 174 536 c 0,6,7
 174 510 174 510 158 492.5 c 128,-1,8
 142 475 142 475 116 475 c 256,9,10
 90 475 90 475 74 491.5 c 128,-1,11
 58 508 58 508 58 534 c 256,0,1
245 534 m 256,12,13
 245 560 245 560 261.5 576 c 128,-1,14
 278 592 278 592 304 592 c 0,15,16
 329 592 329 592 345 576.5 c 128,-1,17
 361 561 361 561 361 536 c 0,18,19
 361 510 361 510 345 492.5 c 128,-1,20
 329 475 329 475 303 475 c 256,21,22
 277 475 277 475 261 491.5 c 128,-1,23
 245 508 245 508 245 534 c 256,12,13
31 199 m 2,24,-1
 31 410 l 1,25,-1
 117 410 l 1,26,-1
 117 190 l 2,27,28
 117 167 117 167 121 144.5 c 128,-1,29
 125 122 125 122 135 105 c 128,-1,30
 145 88 145 88 163 77.5 c 128,-1,31
 181 67 181 67 208 67 c 0,32,33
 236 67 236 67 253 82.5 c 128,-1,34
 270 98 270 98 278.5 120.5 c 128,-1,35
 287 143 287 143 289.5 169 c 128,-1,36
 292 195 292 195 292 216 c 2,37,-1
 292 410 l 1,38,-1
 372 410 l 1,39,-1
 372 0 l 1,40,-1
 289 0 l 1,41,-1
 289 37 l 1,42,43
 283 20 283 20 270.5 11 c 128,-1,44
 258 2 258 2 242 -3 c 128,-1,45
 226 -8 226 -8 209 -9 c 128,-1,46
 192 -10 192 -10 178 -10 c 0,47,48
 133 -10 133 -10 104 8.5 c 128,-1,49
 75 27 75 27 59 56.5 c 128,-1,50
 43 86 43 86 37 123.5 c 128,-1,51
 31 161 31 161 31 199 c 2,24,-1
EndSplineSet
EndChar

StartChar: yacute
Encoding: 253 253 174
Width: 428
GlyphClass: 2
Flags: W
LayerCount: 2
Fore
SplineSet
289 665 m 1,0,-1
 351 592 l 1,1,-1
 199 471 l 1,2,-1
 149 518 l 1,3,-1
 289 665 l 1,4,-1
 289 665 l 1,0,-1
165 72 m 1,5,-1
 12 402 l 1,6,-1
 98 431 l 1,7,-1
 215 176 l 1,8,-1
 343 432 l 1,9,-1
 422 402 l 1,10,-1
 135 -187 l 1,11,-1
 30 -187 l 1,12,-1
 165 72 l 1,13,-1
 165 72 l 1,5,-1
EndSplineSet
EndChar

StartChar: thorn
Encoding: 254 254 175
Width: 428
GlyphClass: 2
Flags: W
LayerCount: 2
Fore
SplineSet
212 -10 m 0,0,1
 180 -10 180 -10 155 3.5 c 128,-1,2
 130 17 130 17 118 48 c 1,3,-1
 118 -201 l 1,4,-1
 38 -201 l 1,5,-1
 38 764 l 1,6,-1
 119 764 l 1,7,-1
 119 363 l 1,8,9
 136 390 136 390 161.5 405 c 128,-1,10
 187 420 187 420 219 420 c 0,11,12
 428 420 428 420 428 210 c 0,13,14
 428 101 428 101 375 45.5 c 128,-1,15
 322 -10 322 -10 212 -10 c 0,0,1
219 70 m 0,16,17
 286 70 286 70 314.5 108 c 128,-1,18
 343 146 343 146 343 209 c 256,19,20
 343 272 343 272 315 310.5 c 128,-1,21
 287 349 287 349 219 349 c 0,22,23
 188 349 188 349 168.5 337 c 128,-1,24
 149 325 149 325 138 305 c 128,-1,25
 127 285 127 285 123 260 c 128,-1,26
 119 235 119 235 119 209 c 256,27,28
 119 183 119 183 123 158 c 128,-1,29
 127 133 127 133 138 113.5 c 128,-1,30
 149 94 149 94 168.5 82 c 128,-1,31
 188 70 188 70 219 70 c 0,16,17
EndSplineSet
EndChar

StartChar: Amacron
Encoding: 256 256 176
Width: 653
Flags: W
LayerCount: 2
Fore
SplineSet
319 731 m 1,0,1
 401 548 401 548 481.5 366 c 128,-1,2
 562 184 562 184 643 0 c 1,3,-1
 558 -37 l 1,4,-1
 462 175 l 1,5,-1
 187 175 l 1,6,-1
 93 -37 l 1,7,-1
 11 0 l 1,8,9
 89 183 89 183 169 364 c 128,-1,10
 249 545 249 545 319 731 c 1,0,1
424 266 m 1,11,-1
 320 514 l 1,12,-1
 223 266 l 1,13,-1
 424 266 l 1,11,-1
161 779 m 1,14,-1
 161 834 l 1,15,-1
 492 834 l 1,16,-1
 492 780 l 1,17,-1
 161 779 l 1,14,-1
EndSplineSet
EndChar

StartChar: amacron
Encoding: 257 257 177
Width: 395
Flags: W
LayerCount: 2
Fore
SplineSet
366 0 m 1,0,-1
 279 0 l 1,1,-1
 279 41 l 1,2,3
 261 20 261 20 238 5 c 128,-1,4
 215 -10 215 -10 186 -10 c 0,5,6
 151 -10 151 -10 120.5 -3 c 128,-1,7
 90 4 90 4 67 19.5 c 128,-1,8
 44 35 44 35 30.5 61.5 c 128,-1,9
 17 88 17 88 17 127 c 0,10,11
 17 165 17 165 31.5 193.5 c 128,-1,12
 46 222 46 222 71 240.5 c 128,-1,13
 96 259 96 259 128 268.5 c 128,-1,14
 160 278 160 278 195 278 c 0,15,16
 225 278 225 278 247 263 c 128,-1,17
 269 248 269 248 283 222 c 1,18,19
 283 244 283 244 281.5 266.5 c 128,-1,20
 280 289 280 289 272.5 307.5 c 128,-1,21
 265 326 265 326 249 337.5 c 128,-1,22
 233 349 233 349 204 349 c 0,23,24
 181 349 181 349 158 341.5 c 128,-1,25
 135 334 135 334 115 323 c 1,26,-1
 84 389 l 1,27,28
 112 406 112 406 144.5 417 c 128,-1,29
 177 428 177 428 210 428 c 0,30,31
 283 428 283 428 324.5 384 c 128,-1,32
 366 340 366 340 366 268 c 2,33,-1
 366 0 l 1,0,-1
285 132 m 0,34,35
 285 152 285 152 275.5 165.5 c 128,-1,36
 266 179 266 179 251.5 187.5 c 128,-1,37
 237 196 237 196 219.5 199.5 c 128,-1,38
 202 203 202 203 186 203 c 0,39,40
 149 203 149 203 121.5 186.5 c 128,-1,41
 94 170 94 170 94 129 c 0,42,43
 94 109 94 109 102 96.5 c 128,-1,44
 110 84 110 84 123.5 77 c 128,-1,45
 137 70 137 70 153 67.5 c 128,-1,46
 169 65 169 65 186 65 c 0,47,48
 201 65 201 65 218.5 68.5 c 128,-1,49
 236 72 236 72 250.5 79.5 c 128,-1,50
 265 87 265 87 275 100 c 128,-1,51
 285 113 285 113 285 132 c 0,34,35
82 508 m 1,52,-1
 82 570 l 1,53,-1
 357 570 l 1,54,-1
 357 509 l 1,55,-1
 82 508 l 1,52,-1
EndSplineSet
EndChar

StartChar: Abreve
Encoding: 258 258 178
Width: 663
Flags: W
LayerCount: 2
Fore
SplineSet
323 731 m 1,0,1
 405 548 405 548 485.5 366 c 128,-1,2
 566 184 566 184 647 0 c 1,3,-1
 562 -37 l 1,4,-1
 466 175 l 1,5,-1
 191 175 l 1,6,-1
 97 -37 l 1,7,-1
 15 0 l 1,8,9
 93 183 93 183 173 364 c 128,-1,10
 253 545 253 545 323 731 c 1,0,1
428 266 m 1,11,-1
 324 514 l 1,12,-1
 227 266 l 1,13,-1
 428 266 l 1,11,-1
478 900 m 1,14,15
 473 870 473 870 461.5 843.5 c 128,-1,16
 450 817 450 817 431.5 797.5 c 128,-1,17
 413 778 413 778 387.5 766.5 c 128,-1,18
 362 755 362 755 329 755 c 0,19,20
 264 755 264 755 228.5 795 c 128,-1,21
 193 835 193 835 183 895 c 1,22,-1
 241 895 l 1,23,24
 245 860 245 860 269 836.5 c 128,-1,25
 293 813 293 813 329 813 c 0,26,27
 369 813 369 813 393 837.5 c 128,-1,28
 417 862 417 862 423 900 c 1,29,-1
 478 900 l 1,14,15
EndSplineSet
EndChar

StartChar: abreve
Encoding: 259 259 179
Width: 405
Flags: W
LayerCount: 2
Fore
SplineSet
372 0 m 1,0,-1
 285 0 l 1,1,-1
 285 41 l 1,2,3
 267 20 267 20 244 5 c 128,-1,4
 221 -10 221 -10 192 -10 c 0,5,6
 157 -10 157 -10 126.5 -3 c 128,-1,7
 96 4 96 4 73 19.5 c 128,-1,8
 50 35 50 35 36.5 61.5 c 128,-1,9
 23 88 23 88 23 127 c 0,10,11
 23 165 23 165 37.5 193.5 c 128,-1,12
 52 222 52 222 77 240.5 c 128,-1,13
 102 259 102 259 134 268.5 c 128,-1,14
 166 278 166 278 201 278 c 0,15,16
 231 278 231 278 253 263 c 128,-1,17
 275 248 275 248 289 222 c 1,18,19
 289 244 289 244 287.5 266.5 c 128,-1,20
 286 289 286 289 278.5 307.5 c 128,-1,21
 271 326 271 326 255 337.5 c 128,-1,22
 239 349 239 349 210 349 c 0,23,24
 187 349 187 349 164 341.5 c 128,-1,25
 141 334 141 334 121 323 c 1,26,-1
 90 389 l 1,27,28
 118 406 118 406 150.5 417 c 128,-1,29
 183 428 183 428 216 428 c 0,30,31
 289 428 289 428 330.5 384 c 128,-1,32
 372 340 372 340 372 268 c 2,33,-1
 372 0 l 1,0,-1
291 132 m 0,34,35
 291 152 291 152 281.5 165.5 c 128,-1,36
 272 179 272 179 257.5 187.5 c 128,-1,37
 243 196 243 196 225.5 199.5 c 128,-1,38
 208 203 208 203 192 203 c 0,39,40
 155 203 155 203 127.5 186.5 c 128,-1,41
 100 170 100 170 100 129 c 0,42,43
 100 109 100 109 108 96.5 c 128,-1,44
 116 84 116 84 129.5 77 c 128,-1,45
 143 70 143 70 159 67.5 c 128,-1,46
 175 65 175 65 192 65 c 0,47,48
 207 65 207 65 224.5 68.5 c 128,-1,49
 242 72 242 72 256.5 79.5 c 128,-1,50
 271 87 271 87 281 100 c 128,-1,51
 291 113 291 113 291 132 c 0,34,35
358 623 m 1,52,53
 353 593 353 593 341.5 566.5 c 128,-1,54
 330 540 330 540 311.5 520.5 c 128,-1,55
 293 501 293 501 267.5 489.5 c 128,-1,56
 242 478 242 478 209 478 c 0,57,58
 144 478 144 478 108.5 518 c 128,-1,59
 73 558 73 558 63 618 c 1,60,-1
 121 618 l 1,61,62
 125 583 125 583 149 559.5 c 128,-1,63
 173 536 173 536 209 536 c 0,64,65
 249 536 249 536 273 560.5 c 128,-1,66
 297 585 297 585 303 623 c 1,67,-1
 358 623 l 1,52,53
EndSplineSet
EndChar

StartChar: Aogonek
Encoding: 260 260 180
Width: 653
Flags: W
LayerCount: 2
Fore
SplineSet
639 -160 m 1,0,1
 621 -176 621 -176 600 -176 c 0,2,3
 543 -176 543 -176 516 -145.5 c 128,-1,4
 489 -115 489 -115 489 -59 c 0,5,6
 489 -45 489 -45 502 -27.5 c 128,-1,7
 515 -10 515 -10 523 0 c 1,8,-1
 537 0 l 1,9,-1
 458 175 l 1,10,-1
 183 175 l 1,11,-1
 89 -37 l 1,12,-1
 7 0 l 1,13,14
 85 183 85 183 165 364 c 128,-1,15
 245 545 245 545 315 731 c 1,16,17
 397 548 397 548 477.5 366 c 128,-1,18
 558 184 558 184 639 0 c 1,19,-1
 554 -37 l 1,20,-1
 551 -30 l 1,21,22
 549 -34 549 -34 544.5 -43.5 c 128,-1,23
 540 -53 540 -53 540 -57 c 0,24,25
 540 -86 540 -86 556 -99 c 128,-1,26
 572 -112 572 -112 600 -112 c 0,27,28
 611 -112 611 -112 621 -110 c 128,-1,29
 631 -108 631 -108 639 -102 c 1,30,-1
 639 -160 l 1,0,1
420 266 m 1,31,-1
 316 514 l 1,32,-1
 219 266 l 1,33,-1
 420 266 l 1,31,-1
EndSplineSet
EndChar

StartChar: aogonek
Encoding: 261 261 181
Width: 413
Flags: W
LayerCount: 2
Fore
SplineSet
387 -160 m 1,0,1
 369 -176 369 -176 348 -176 c 0,2,3
 291 -176 291 -176 264 -145.5 c 128,-1,4
 237 -115 237 -115 237 -59 c 0,5,6
 237 -45 237 -45 250 -27.5 c 128,-1,7
 263 -10 263 -10 271 0 c 1,8,-1
 271 41 l 1,9,10
 253 20 253 20 230 5 c 128,-1,11
 207 -10 207 -10 178 -10 c 0,12,13
 143 -10 143 -10 112.5 -3 c 128,-1,14
 82 4 82 4 59 19.5 c 128,-1,15
 36 35 36 35 22.5 61.5 c 128,-1,16
 9 88 9 88 9 127 c 0,17,18
 9 165 9 165 23.5 193.5 c 128,-1,19
 38 222 38 222 63 240.5 c 128,-1,20
 88 259 88 259 120 268.5 c 128,-1,21
 152 278 152 278 187 278 c 0,22,23
 217 278 217 278 239 263 c 128,-1,24
 261 248 261 248 275 222 c 1,25,26
 275 244 275 244 273.5 266.5 c 128,-1,27
 272 289 272 289 264.5 307.5 c 128,-1,28
 257 326 257 326 241 337.5 c 128,-1,29
 225 349 225 349 196 349 c 0,30,31
 173 349 173 349 150 341.5 c 128,-1,32
 127 334 127 334 107 323 c 1,33,-1
 76 389 l 1,34,35
 104 406 104 406 136.5 417 c 128,-1,36
 169 428 169 428 202 428 c 0,37,38
 275 428 275 428 316.5 384 c 128,-1,39
 358 340 358 340 358 268 c 2,40,-1
 358 0 l 1,41,-1
 323 0 l 1,42,43
 319 -5 319 -5 313 -12 c 128,-1,44
 307 -19 307 -19 301.5 -27 c 128,-1,45
 296 -35 296 -35 292 -43 c 128,-1,46
 288 -51 288 -51 288 -57 c 0,47,48
 288 -86 288 -86 304 -99 c 128,-1,49
 320 -112 320 -112 348 -112 c 0,50,51
 359 -112 359 -112 369 -110 c 128,-1,52
 379 -108 379 -108 387 -102 c 1,53,-1
 387 -160 l 1,0,1
277 132 m 0,54,55
 277 152 277 152 267.5 165.5 c 128,-1,56
 258 179 258 179 243.5 187.5 c 128,-1,57
 229 196 229 196 211.5 199.5 c 128,-1,58
 194 203 194 203 178 203 c 0,59,60
 141 203 141 203 113.5 186.5 c 128,-1,61
 86 170 86 170 86 129 c 0,62,63
 86 109 86 109 94 96.5 c 128,-1,64
 102 84 102 84 115.5 77 c 128,-1,65
 129 70 129 70 145 67.5 c 128,-1,66
 161 65 161 65 178 65 c 0,67,68
 193 65 193 65 210.5 68.5 c 128,-1,69
 228 72 228 72 242.5 79.5 c 128,-1,70
 257 87 257 87 267 100 c 128,-1,71
 277 113 277 113 277 132 c 0,54,55
EndSplineSet
EndChar

StartChar: Cacute
Encoding: 262 262 182
Width: 638
Flags: W
LayerCount: 2
Fore
SplineSet
623 82 m 1,0,1
 572 34 572 34 509 8 c 128,-1,2
 446 -18 446 -18 376 -18 c 0,3,4
 301 -18 301 -18 235.5 11.5 c 128,-1,5
 170 41 170 41 121.5 91 c 128,-1,6
 73 141 73 141 45 207.5 c 128,-1,7
 17 274 17 274 17 349 c 0,8,9
 17 431 17 431 45 498.5 c 128,-1,10
 73 566 73 566 123.5 614 c 128,-1,11
 174 662 174 662 242.5 688 c 128,-1,12
 311 714 311 714 392 714 c 0,13,14
 455 714 455 714 510 691 c 128,-1,15
 565 668 565 668 613 627 c 1,16,-1
 553 564 l 1,17,18
 523 600 523 600 478.5 614.5 c 128,-1,19
 434 629 434 629 388 629 c 0,20,21
 330 629 330 629 280 606.5 c 128,-1,22
 230 584 230 584 193 546 c 128,-1,23
 156 508 156 508 135 456.5 c 128,-1,24
 114 405 114 405 114 348 c 0,25,26
 114 292 114 292 134.5 241 c 128,-1,27
 155 190 155 190 191.5 151.5 c 128,-1,28
 228 113 228 113 277.5 90.5 c 128,-1,29
 327 68 327 68 384 68 c 0,30,31
 438 68 438 68 484.5 87.5 c 128,-1,32
 531 107 531 107 565 150 c 1,33,-1
 623 82 l 1,0,1
420 843 m 1,34,-1
 268 722 l 1,35,-1
 218 769 l 1,36,-1
 358 916 l 1,37,-1
 420 843 l 1,34,-1
EndSplineSet
EndChar

StartChar: cacute
Encoding: 263 263 183
Width: 391
Flags: W
LayerCount: 2
Fore
SplineSet
11 209 m 0,0,1
 11 255 11 255 24.5 296 c 128,-1,2
 38 337 38 337 64 368.5 c 128,-1,3
 90 400 90 400 127.5 418.5 c 128,-1,4
 165 437 165 437 214 437 c 0,5,6
 254 437 254 437 294.5 427 c 128,-1,7
 335 417 335 417 364 388 c 1,8,-1
 318 322 l 1,9,10
 297 345 297 345 269 350 c 128,-1,11
 241 355 241 355 212 355 c 256,12,13
 183 355 183 355 161 341.5 c 128,-1,14
 139 328 139 328 124 306 c 128,-1,15
 109 284 109 284 101.5 257.5 c 128,-1,16
 94 231 94 231 94 206 c 0,17,18
 94 180 94 180 102.5 156.5 c 128,-1,19
 111 133 111 133 126 115 c 128,-1,20
 141 97 141 97 163 86 c 128,-1,21
 185 75 185 75 212 75 c 256,22,23
 239 75 239 75 267 78 c 128,-1,24
 295 81 295 81 317 99 c 1,25,-1
 361 33 l 1,26,27
 344 17 344 17 328 8 c 128,-1,28
 312 -1 312 -1 294.5 -5 c 128,-1,29
 277 -9 277 -9 258 -9.5 c 128,-1,30
 239 -10 239 -10 217 -10 c 0,31,32
 172 -10 172 -10 134 8 c 128,-1,33
 96 26 96 26 68.5 56 c 128,-1,34
 41 86 41 86 26 125.5 c 128,-1,35
 11 165 11 165 11 209 c 0,0,1
361 579 m 1,36,-1
 209 458 l 1,37,-1
 159 505 l 1,38,-1
 299 652 l 1,39,-1
 361 579 l 1,36,-1
EndSplineSet
EndChar

StartChar: Ccircumflex
Encoding: 264 264 184
Width: 640
GlyphClass: 2
Flags: W
LayerCount: 2
Fore
SplineSet
622 82 m 1,0,1
 571 34 571 34 508 8 c 128,-1,2
 445 -18 445 -18 375 -18 c 0,3,4
 300 -18 300 -18 234.5 11.5 c 128,-1,5
 169 41 169 41 120.5 91 c 128,-1,6
 72 141 72 141 44 207.5 c 128,-1,7
 16 274 16 274 16 349 c 0,8,9
 16 431 16 431 44 498.5 c 128,-1,10
 72 566 72 566 122.5 614 c 128,-1,11
 173 662 173 662 241.5 688 c 128,-1,12
 310 714 310 714 391 714 c 0,13,14
 454 714 454 714 509 691 c 128,-1,15
 564 668 564 668 612 627 c 1,16,-1
 552 564 l 1,17,18
 522 600 522 600 477.5 614.5 c 128,-1,19
 433 629 433 629 387 629 c 0,20,21
 329 629 329 629 279 606.5 c 128,-1,22
 229 584 229 584 192 546 c 128,-1,23
 155 508 155 508 134 456.5 c 128,-1,24
 113 405 113 405 113 348 c 0,25,26
 113 292 113 292 133.5 241 c 128,-1,27
 154 190 154 190 190.5 151.5 c 128,-1,28
 227 113 227 113 276.5 90.5 c 128,-1,29
 326 68 326 68 383 68 c 0,30,31
 437 68 437 68 483.5 87.5 c 128,-1,32
 530 107 530 107 564 150 c 1,33,-1
 622 82 l 1,0,1
515 743 m 1,34,-1
 440 743 l 1,35,-1
 375 834 l 1,36,-1
 304 743 l 1,37,-1
 224 743 l 1,38,-1
 376 947 l 1,39,-1
 515 743 l 1,34,-1
EndSplineSet
EndChar

StartChar: ccircumflex
Encoding: 265 265 185
Width: 389
GlyphClass: 2
Flags: W
LayerCount: 2
Fore
SplineSet
16 209 m 0,0,1
 16 255 16 255 29.5 296 c 128,-1,2
 43 337 43 337 69 368.5 c 128,-1,3
 95 400 95 400 132.5 418.5 c 128,-1,4
 170 437 170 437 219 437 c 0,5,6
 259 437 259 437 299.5 427 c 128,-1,7
 340 417 340 417 369 388 c 1,8,-1
 323 322 l 1,9,10
 302 345 302 345 274 350 c 128,-1,11
 246 355 246 355 217 355 c 256,12,13
 188 355 188 355 166 341.5 c 128,-1,14
 144 328 144 328 129 306 c 128,-1,15
 114 284 114 284 106.5 257.5 c 128,-1,16
 99 231 99 231 99 206 c 0,17,18
 99 180 99 180 107.5 156.5 c 128,-1,19
 116 133 116 133 131 115 c 128,-1,20
 146 97 146 97 168 86 c 128,-1,21
 190 75 190 75 217 75 c 256,22,23
 244 75 244 75 272 78 c 128,-1,24
 300 81 300 81 322 99 c 1,25,-1
 366 33 l 1,26,27
 349 17 349 17 333 8 c 128,-1,28
 317 -1 317 -1 299.5 -5 c 128,-1,29
 282 -9 282 -9 263 -9.5 c 128,-1,30
 244 -10 244 -10 222 -10 c 0,31,32
 177 -10 177 -10 139 8 c 128,-1,33
 101 26 101 26 73.5 56 c 128,-1,34
 46 86 46 86 31 125.5 c 128,-1,35
 16 165 16 165 16 209 c 0,0,1
362 466 m 1,36,-1
 287 466 l 1,37,-1
 222 557 l 1,38,-1
 151 466 l 1,39,-1
 71 466 l 1,40,-1
 223 670 l 1,41,-1
 362 466 l 1,36,-1
EndSplineSet
EndChar

StartChar: Cdotaccent
Encoding: 266 266 186
Width: 636
GlyphClass: 2
Flags: W
LayerCount: 2
Fore
SplineSet
622 82 m 1,0,1
 571 34 571 34 508 8 c 128,-1,2
 445 -18 445 -18 375 -18 c 0,3,4
 300 -18 300 -18 234.5 11.5 c 128,-1,5
 169 41 169 41 120.5 91 c 128,-1,6
 72 141 72 141 44 207.5 c 128,-1,7
 16 274 16 274 16 349 c 0,8,9
 16 431 16 431 44 498.5 c 128,-1,10
 72 566 72 566 122.5 614 c 128,-1,11
 173 662 173 662 241.5 688 c 128,-1,12
 310 714 310 714 391 714 c 0,13,14
 454 714 454 714 509 691 c 128,-1,15
 564 668 564 668 612 627 c 1,16,-1
 552 564 l 1,17,18
 522 600 522 600 477.5 614.5 c 128,-1,19
 433 629 433 629 387 629 c 0,20,21
 329 629 329 629 279 606.5 c 128,-1,22
 229 584 229 584 192 546 c 128,-1,23
 155 508 155 508 134 456.5 c 128,-1,24
 113 405 113 405 113 348 c 0,25,26
 113 292 113 292 133.5 241 c 128,-1,27
 154 190 154 190 190.5 151.5 c 128,-1,28
 227 113 227 113 276.5 90.5 c 128,-1,29
 326 68 326 68 383 68 c 0,30,31
 437 68 437 68 483.5 87.5 c 128,-1,32
 530 107 530 107 564 150 c 1,33,-1
 622 82 l 1,0,1
316 817 m 256,34,35
 316 843 316 843 332.5 859 c 128,-1,36
 349 875 349 875 375 875 c 0,37,38
 399 875 399 875 415.5 859.5 c 128,-1,39
 432 844 432 844 432 819 c 0,40,41
 432 793 432 793 416 775.5 c 128,-1,42
 400 758 400 758 374 758 c 256,43,44
 348 758 348 758 332 774.5 c 128,-1,45
 316 791 316 791 316 817 c 256,34,35
EndSplineSet
EndChar

StartChar: cdotaccent
Encoding: 267 267 187
Width: 388
GlyphClass: 2
Flags: W
LayerCount: 2
Fore
SplineSet
16 209 m 0,0,1
 16 255 16 255 29.5 296 c 128,-1,2
 43 337 43 337 69 368.5 c 128,-1,3
 95 400 95 400 132.5 418.5 c 128,-1,4
 170 437 170 437 219 437 c 0,5,6
 259 437 259 437 299.5 427 c 128,-1,7
 340 417 340 417 369 388 c 1,8,-1
 323 322 l 1,9,10
 302 345 302 345 274 350 c 128,-1,11
 246 355 246 355 217 355 c 256,12,13
 188 355 188 355 166 341.5 c 128,-1,14
 144 328 144 328 129 306 c 128,-1,15
 114 284 114 284 106.5 257.5 c 128,-1,16
 99 231 99 231 99 206 c 0,17,18
 99 180 99 180 107.5 156.5 c 128,-1,19
 116 133 116 133 131 115 c 128,-1,20
 146 97 146 97 168 86 c 128,-1,21
 190 75 190 75 217 75 c 256,22,23
 244 75 244 75 272 78 c 128,-1,24
 300 81 300 81 322 99 c 1,25,-1
 366 33 l 1,26,27
 349 17 349 17 333 8 c 128,-1,28
 317 -1 317 -1 299.5 -5 c 128,-1,29
 282 -9 282 -9 263 -9.5 c 128,-1,30
 244 -10 244 -10 222 -10 c 0,31,32
 177 -10 177 -10 139 8 c 128,-1,33
 101 26 101 26 73.5 56 c 128,-1,34
 46 86 46 86 31 125.5 c 128,-1,35
 16 165 16 165 16 209 c 0,0,1
159 538 m 256,36,37
 159 564 159 564 175.5 580 c 128,-1,38
 192 596 192 596 218 596 c 0,39,40
 242 596 242 596 258.5 580.5 c 128,-1,41
 275 565 275 565 275 540 c 0,42,43
 275 514 275 514 259 496.5 c 128,-1,44
 243 479 243 479 217 479 c 256,45,46
 191 479 191 479 175 495.5 c 128,-1,47
 159 512 159 512 159 538 c 256,36,37
EndSplineSet
EndChar

StartChar: Ccaron
Encoding: 268 268 188
Width: 641
Flags: W
LayerCount: 2
Fore
SplineSet
623 82 m 1,0,1
 572 34 572 34 509 8 c 128,-1,2
 446 -18 446 -18 376 -18 c 0,3,4
 301 -18 301 -18 235.5 11.5 c 128,-1,5
 170 41 170 41 121.5 91 c 128,-1,6
 73 141 73 141 45 207.5 c 128,-1,7
 17 274 17 274 17 349 c 0,8,9
 17 431 17 431 45 498.5 c 128,-1,10
 73 566 73 566 123.5 614 c 128,-1,11
 174 662 174 662 242.5 688 c 128,-1,12
 311 714 311 714 392 714 c 0,13,14
 455 714 455 714 510 691 c 128,-1,15
 565 668 565 668 613 627 c 1,16,-1
 553 564 l 1,17,18
 523 600 523 600 478.5 614.5 c 128,-1,19
 434 629 434 629 388 629 c 0,20,21
 330 629 330 629 280 606.5 c 128,-1,22
 230 584 230 584 193 546 c 128,-1,23
 156 508 156 508 135 456.5 c 128,-1,24
 114 405 114 405 114 348 c 0,25,26
 114 292 114 292 134.5 241 c 128,-1,27
 155 190 155 190 191.5 151.5 c 128,-1,28
 228 113 228 113 277.5 90.5 c 128,-1,29
 327 68 327 68 384 68 c 0,30,31
 438 68 438 68 484.5 87.5 c 128,-1,32
 531 107 531 107 565 150 c 1,33,-1
 623 82 l 1,0,1
362 746 m 1,34,-1
 210 950 l 1,35,-1
 290 950 l 1,36,-1
 361 859 l 1,37,-1
 426 950 l 1,38,-1
 501 950 l 1,39,-1
 362 746 l 1,34,-1
EndSplineSet
EndChar

StartChar: ccaron
Encoding: 269 269 189
Width: 396
Flags: W
LayerCount: 2
Fore
SplineSet
19 209 m 0,0,1
 19 255 19 255 32.5 296 c 128,-1,2
 46 337 46 337 72 368.5 c 128,-1,3
 98 400 98 400 135.5 418.5 c 128,-1,4
 173 437 173 437 222 437 c 0,5,6
 262 437 262 437 302.5 427 c 128,-1,7
 343 417 343 417 372 388 c 1,8,-1
 326 322 l 1,9,10
 305 345 305 345 277 350 c 128,-1,11
 249 355 249 355 220 355 c 256,12,13
 191 355 191 355 169 341.5 c 128,-1,14
 147 328 147 328 132 306 c 128,-1,15
 117 284 117 284 109.5 257.5 c 128,-1,16
 102 231 102 231 102 206 c 0,17,18
 102 180 102 180 110.5 156.5 c 128,-1,19
 119 133 119 133 134 115 c 128,-1,20
 149 97 149 97 171 86 c 128,-1,21
 193 75 193 75 220 75 c 256,22,23
 247 75 247 75 275 78 c 128,-1,24
 303 81 303 81 325 99 c 1,25,-1
 369 33 l 1,26,27
 352 17 352 17 336 8 c 128,-1,28
 320 -1 320 -1 302.5 -5 c 128,-1,29
 285 -9 285 -9 266 -9.5 c 128,-1,30
 247 -10 247 -10 225 -10 c 0,31,32
 180 -10 180 -10 142 8 c 128,-1,33
 104 26 104 26 76.5 56 c 128,-1,34
 49 86 49 86 34 125.5 c 128,-1,35
 19 165 19 165 19 209 c 0,0,1
227 482 m 1,36,-1
 75 686 l 1,37,-1
 155 686 l 1,38,-1
 226 595 l 1,39,-1
 291 686 l 1,40,-1
 366 686 l 1,41,-1
 227 482 l 1,36,-1
EndSplineSet
EndChar

StartChar: Dcaron
Encoding: 270 270 190
Width: 556
Flags: W
LayerCount: 2
Fore
SplineSet
32 691 m 1,0,1
 100 690 100 690 164.5 691.5 c 128,-1,2
 229 693 229 693 285 688 c 128,-1,3
 341 683 341 683 387.5 667.5 c 128,-1,4
 434 652 434 652 467 616.5 c 128,-1,5
 500 581 500 581 518.5 521.5 c 128,-1,6
 537 462 537 462 537 369 c 0,7,8
 537 303 537 303 526.5 237 c 128,-1,9
 516 171 516 171 487.5 118.5 c 128,-1,10
 459 66 459 66 408.5 33 c 128,-1,11
 358 0 358 0 278 0 c 2,12,-1
 32 0 l 1,13,-1
 32 691 l 1,0,1
272 610 m 2,14,-1
 121 610 l 1,15,-1
 121 84 l 1,16,-1
 179 83 l 2,17,18
 202 83 202 83 225.5 83 c 128,-1,19
 249 83 249 83 272 84 c 0,20,21
 327 85 327 85 360.5 110 c 128,-1,22
 394 135 394 135 412.5 173 c 128,-1,23
 431 211 431 211 437.5 257.5 c 128,-1,24
 444 304 444 304 444 349 c 0,25,26
 444 393 444 393 438 439.5 c 128,-1,27
 432 486 432 486 413.5 524 c 128,-1,28
 395 562 395 562 361 586 c 128,-1,29
 327 610 327 610 272 610 c 2,14,-1
236 746 m 1,30,-1
 84 950 l 1,31,-1
 164 950 l 1,32,-1
 235 859 l 1,33,-1
 300 950 l 1,34,-1
 375 950 l 1,35,-1
 236 746 l 1,30,-1
EndSplineSet
EndChar

StartChar: dcaron
Encoding: 271 271 191
Width: 564
Flags: W
LayerCount: 2
Fore
SplineSet
209 -10 m 0,0,1
 105 -10 105 -10 58.5 47.5 c 128,-1,2
 12 105 12 105 12 205 c 0,3,4
 12 308 12 308 60 364.5 c 128,-1,5
 108 421 108 421 214 421 c 0,6,7
 227 421 227 421 243 419.5 c 128,-1,8
 259 418 259 418 274 413.5 c 128,-1,9
 289 409 289 409 300.5 400 c 128,-1,10
 312 391 312 391 317 376 c 1,11,-1
 317 748 l 1,12,-1
 404 748 l 1,13,-1
 404 0 l 1,14,-1
 319 0 l 1,15,-1
 319 39 l 1,16,17
 303 9 303 9 271.5 -0.5 c 128,-1,18
 240 -10 240 -10 209 -10 c 0,0,1
212 342 m 0,19,20
 148 342 148 342 121.5 305.5 c 128,-1,21
 95 269 95 269 95 209 c 0,22,23
 95 179 95 179 101 153 c 128,-1,24
 107 127 107 127 120.5 108.5 c 128,-1,25
 134 90 134 90 157 79 c 128,-1,26
 180 68 180 68 213 68 c 256,27,28
 246 68 246 68 267 79.5 c 128,-1,29
 288 91 288 91 301 110.5 c 128,-1,30
 314 130 314 130 319 155.5 c 128,-1,31
 324 181 324 181 324 210 c 0,32,33
 324 267 324 267 299 304.5 c 128,-1,34
 274 342 274 342 212 342 c 0,19,20
457 690 m 0,35,36
 457 708 457 708 470.5 723.5 c 128,-1,37
 484 739 484 739 502 739 c 0,38,39
 514 739 514 739 522 732.5 c 128,-1,40
 530 726 530 726 535 716 c 128,-1,41
 540 706 540 706 542 694.5 c 128,-1,42
 544 683 544 683 544 674 c 0,43,44
 544 660 544 660 539.5 642 c 128,-1,45
 535 624 535 624 526.5 607.5 c 128,-1,46
 518 591 518 591 506.5 577.5 c 128,-1,47
 495 564 495 564 481 558 c 1,48,49
 486 570 486 570 487 584 c 128,-1,50
 488 598 488 598 488 611 c 0,51,52
 488 634 488 634 483 643 c 128,-1,53
 478 652 478 652 472.5 657.5 c 128,-1,54
 467 663 467 663 462 668.5 c 128,-1,55
 457 674 457 674 457 690 c 0,35,36
EndSplineSet
EndChar

StartChar: Dcroat
Encoding: 272 272 192
Width: 591
Flags: W
LayerCount: 2
Fore
SplineSet
28 332 m 1,0,-1
 28 387 l 1,1,-1
 62 387 l 1,2,-1
 62 691 l 1,3,4
 130 690 130 690 194.5 691.5 c 128,-1,5
 259 693 259 693 315 688 c 128,-1,6
 371 683 371 683 417.5 667.5 c 128,-1,7
 464 652 464 652 497 616.5 c 128,-1,8
 530 581 530 581 548.5 521.5 c 128,-1,9
 567 462 567 462 567 369 c 0,10,11
 567 303 567 303 556.5 237 c 128,-1,12
 546 171 546 171 517.5 118.5 c 128,-1,13
 489 66 489 66 438.5 33 c 128,-1,14
 388 0 388 0 308 0 c 2,15,-1
 62 0 l 1,16,-1
 62 332 l 1,17,-1
 28 332 l 1,0,-1
302 610 m 2,18,-1
 151 610 l 1,19,-1
 151 387 l 1,20,-1
 359 387 l 1,21,-1
 359 333 l 1,22,-1
 151 332 l 1,23,-1
 151 84 l 1,24,-1
 209 83 l 2,25,26
 232 83 232 83 255.5 83 c 128,-1,27
 279 83 279 83 302 84 c 0,28,29
 357 85 357 85 390.5 110 c 128,-1,30
 424 135 424 135 442.5 173 c 128,-1,31
 461 211 461 211 467.5 257.5 c 128,-1,32
 474 304 474 304 474 349 c 0,33,34
 474 393 474 393 468 439.5 c 128,-1,35
 462 486 462 486 443.5 524 c 128,-1,36
 425 562 425 562 391 586 c 128,-1,37
 357 610 357 610 302 610 c 2,18,-1
EndSplineSet
EndChar

StartChar: dcroat
Encoding: 273 273 193
Width: 482
Flags: W
LayerCount: 2
Fore
SplineSet
458 539 m 1,0,-1
 403 539 l 1,1,-1
 403 0 l 1,2,-1
 318 0 l 1,3,-1
 318 39 l 1,4,5
 302 9 302 9 270.5 -0.5 c 128,-1,6
 239 -10 239 -10 208 -10 c 0,7,8
 104 -10 104 -10 57.5 47.5 c 128,-1,9
 11 105 11 105 11 205 c 0,10,11
 11 308 11 308 59 364.5 c 128,-1,12
 107 421 107 421 213 421 c 0,13,14
 226 421 226 421 242 419.5 c 128,-1,15
 258 418 258 418 273 413.5 c 128,-1,16
 288 409 288 409 299.5 400 c 128,-1,17
 311 391 311 391 316 376 c 1,18,-1
 316 539 l 1,19,-1
 169 539 l 1,20,-1
 169 620 l 1,21,-1
 316 620 l 1,22,-1
 316 748 l 1,23,-1
 403 748 l 1,24,-1
 403 620 l 1,25,-1
 458 620 l 1,26,-1
 458 539 l 1,0,-1
211 342 m 0,27,28
 147 342 147 342 120.5 305.5 c 128,-1,29
 94 269 94 269 94 209 c 0,30,31
 94 179 94 179 100 153 c 128,-1,32
 106 127 106 127 119.5 108.5 c 128,-1,33
 133 90 133 90 156 79 c 128,-1,34
 179 68 179 68 212 68 c 256,35,36
 245 68 245 68 266 79.5 c 128,-1,37
 287 91 287 91 300 110.5 c 128,-1,38
 313 130 313 130 318 155.5 c 128,-1,39
 323 181 323 181 323 210 c 0,40,41
 323 267 323 267 298 304.5 c 128,-1,42
 273 342 273 342 211 342 c 0,27,28
EndSplineSet
EndChar

StartChar: Emacron
Encoding: 274 274 194
Width: 411
Flags: W
LayerCount: 2
Fore
SplineSet
30 693 m 1,0,-1
 396 693 l 1,1,-1
 396 608 l 1,2,-1
 122 608 l 1,3,-1
 122 412 l 1,4,-1
 318 412 l 1,5,-1
 318 329 l 1,6,-1
 122 329 l 1,7,-1
 122 82 l 1,8,-1
 405 82 l 1,9,-1
 405 0 l 1,10,-1
 30 0 l 1,11,-1
 30 693 l 1,12,-1
 30 693 l 1,0,-1
52 779 m 1,13,-1
 52 834 l 1,14,-1
 383 834 l 1,15,-1
 383 780 l 1,16,-1
 52 779 l 1,17,-1
 52 779 l 1,13,-1
EndSplineSet
EndChar

StartChar: emacron
Encoding: 275 275 195
Width: 424
Flags: W
LayerCount: 2
Fore
SplineSet
102 165 m 1,0,1
 113 116 113 116 144.5 93 c 128,-1,2
 176 70 176 70 225 70 c 0,3,4
 252 70 252 70 276.5 82 c 128,-1,5
 301 94 301 94 320 113 c 1,6,-1
 374 59 l 1,7,8
 345 22 345 22 305.5 6 c 128,-1,9
 266 -10 266 -10 220 -10 c 256,10,11
 174 -10 174 -10 137 6 c 128,-1,12
 100 22 100 22 74 50.5 c 128,-1,13
 48 79 48 79 34 118 c 128,-1,14
 20 157 20 157 20 202 c 256,15,16
 20 247 20 247 34.5 286.5 c 128,-1,17
 49 326 49 326 75 355.5 c 128,-1,18
 101 385 101 385 138.5 402 c 128,-1,19
 176 419 176 419 223 419 c 0,20,21
 265 419 265 419 298.5 402.5 c 128,-1,22
 332 386 332 386 356 358.5 c 128,-1,23
 380 331 380 331 393 294.5 c 128,-1,24
 406 258 406 258 406 219 c 0,25,26
 406 205 406 205 405 192 c 128,-1,27
 404 179 404 179 402 165 c 1,28,-1
 102 165 l 1,0,1
334 245 m 1,29,30
 326 290 326 290 298 316 c 128,-1,31
 270 342 270 342 222 342 c 256,32,33
 174 342 174 342 145 316 c 128,-1,34
 116 290 116 290 104 245 c 1,35,-1
 334 245 l 1,29,30
45 515 m 1,36,-1
 45 570 l 1,37,-1
 376 570 l 1,38,-1
 376 516 l 1,39,-1
 45 515 l 1,36,-1
EndSplineSet
EndChar

StartChar: Ebreve
Encoding: 276 276 196
Width: 422
Flags: W
LayerCount: 2
Fore
SplineSet
33 693 m 1,0,-1
 399 693 l 1,1,-1
 399 608 l 1,2,-1
 125 608 l 1,3,-1
 125 412 l 1,4,-1
 321 412 l 1,5,-1
 321 329 l 1,6,-1
 125 329 l 1,7,-1
 125 82 l 1,8,-1
 408 82 l 1,9,-1
 408 0 l 1,10,-1
 33 0 l 1,11,-1
 33 693 l 1,0,-1
368 900 m 1,12,13
 363 870 363 870 351.5 843.5 c 128,-1,14
 340 817 340 817 321.5 797.5 c 128,-1,15
 303 778 303 778 277.5 766.5 c 128,-1,16
 252 755 252 755 219 755 c 0,17,18
 154 755 154 755 118.5 795 c 128,-1,19
 83 835 83 835 73 895 c 1,20,-1
 131 895 l 1,21,22
 135 860 135 860 159 836.5 c 128,-1,23
 183 813 183 813 219 813 c 0,24,25
 259 813 259 813 283 837.5 c 128,-1,26
 307 862 307 862 313 900 c 1,27,-1
 368 900 l 1,12,13
EndSplineSet
EndChar

StartChar: ebreve
Encoding: 277 277 197
Width: 432
Flags: W
LayerCount: 2
Fore
SplineSet
106 165 m 1,0,1
 117 116 117 116 148.5 93 c 128,-1,2
 180 70 180 70 229 70 c 0,3,4
 256 70 256 70 280.5 82 c 128,-1,5
 305 94 305 94 324 113 c 1,6,-1
 378 59 l 1,7,8
 349 22 349 22 309.5 6 c 128,-1,9
 270 -10 270 -10 224 -10 c 256,10,11
 178 -10 178 -10 141 6 c 128,-1,12
 104 22 104 22 78 50.5 c 128,-1,13
 52 79 52 79 38 118 c 128,-1,14
 24 157 24 157 24 202 c 256,15,16
 24 247 24 247 38.5 286.5 c 128,-1,17
 53 326 53 326 79 355.5 c 128,-1,18
 105 385 105 385 142.5 402 c 128,-1,19
 180 419 180 419 227 419 c 0,20,21
 269 419 269 419 302.5 402.5 c 128,-1,22
 336 386 336 386 360 358.5 c 128,-1,23
 384 331 384 331 397 294.5 c 128,-1,24
 410 258 410 258 410 219 c 0,25,26
 410 205 410 205 409 192 c 128,-1,27
 408 179 408 179 406 165 c 1,28,-1
 106 165 l 1,0,1
338 245 m 1,29,30
 330 290 330 290 302 316 c 128,-1,31
 274 342 274 342 226 342 c 256,32,33
 178 342 178 342 149 316 c 128,-1,34
 120 290 120 290 108 245 c 1,35,-1
 338 245 l 1,29,30
362 636 m 1,36,37
 357 606 357 606 345.5 579.5 c 128,-1,38
 334 553 334 553 315.5 533.5 c 128,-1,39
 297 514 297 514 271.5 502.5 c 128,-1,40
 246 491 246 491 213 491 c 0,41,42
 148 491 148 491 112.5 531 c 128,-1,43
 77 571 77 571 67 631 c 1,44,-1
 125 631 l 1,45,46
 129 596 129 596 153 572.5 c 128,-1,47
 177 549 177 549 213 549 c 0,48,49
 253 549 253 549 277 573.5 c 128,-1,50
 301 598 301 598 307 636 c 1,51,-1
 362 636 l 1,36,37
EndSplineSet
EndChar

StartChar: Edotaccent
Encoding: 278 278 198
Width: 409
GlyphClass: 2
Flags: W
LayerCount: 2
Fore
SplineSet
27 693 m 1,0,-1
 393 693 l 1,1,-1
 393 608 l 1,2,-1
 119 608 l 1,3,-1
 119 412 l 1,4,-1
 315 412 l 1,5,-1
 315 329 l 1,6,-1
 119 329 l 1,7,-1
 119 82 l 1,8,-1
 402 82 l 1,9,-1
 402 0 l 1,10,-1
 27 0 l 1,11,-1
 27 693 l 1,0,-1
152 827 m 256,12,13
 152 853 152 853 168.5 869 c 128,-1,14
 185 885 185 885 211 885 c 0,15,16
 235 885 235 885 251.5 869.5 c 128,-1,17
 268 854 268 854 268 829 c 0,18,19
 268 803 268 803 252 785.5 c 128,-1,20
 236 768 236 768 210 768 c 256,21,22
 184 768 184 768 168 784.5 c 128,-1,23
 152 801 152 801 152 827 c 256,12,13
EndSplineSet
EndChar

StartChar: edotaccent
Encoding: 279 279 199
Width: 421
GlyphClass: 2
Flags: W
LayerCount: 2
Fore
SplineSet
100 165 m 1,0,1
 111 116 111 116 142.5 93 c 128,-1,2
 174 70 174 70 223 70 c 0,3,4
 250 70 250 70 274.5 82 c 128,-1,5
 299 94 299 94 318 113 c 1,6,-1
 372 59 l 1,7,8
 343 22 343 22 303.5 6 c 128,-1,9
 264 -10 264 -10 218 -10 c 256,10,11
 172 -10 172 -10 135 6 c 128,-1,12
 98 22 98 22 72 50.5 c 128,-1,13
 46 79 46 79 32 118 c 128,-1,14
 18 157 18 157 18 202 c 256,15,16
 18 247 18 247 32.5 286.5 c 128,-1,17
 47 326 47 326 73 355.5 c 128,-1,18
 99 385 99 385 136.5 402 c 128,-1,19
 174 419 174 419 221 419 c 0,20,21
 263 419 263 419 296.5 402.5 c 128,-1,22
 330 386 330 386 354 358.5 c 128,-1,23
 378 331 378 331 391 294.5 c 128,-1,24
 404 258 404 258 404 219 c 0,25,26
 404 205 404 205 403 192 c 128,-1,27
 402 179 402 179 400 165 c 1,28,-1
 100 165 l 1,0,1
332 245 m 1,29,30
 324 290 324 290 296 316 c 128,-1,31
 268 342 268 342 220 342 c 256,32,33
 172 342 172 342 143 316 c 128,-1,34
 114 290 114 290 102 245 c 1,35,-1
 332 245 l 1,29,30
157 528 m 256,36,37
 157 554 157 554 173.5 570 c 128,-1,38
 190 586 190 586 216 586 c 0,39,40
 240 586 240 586 256.5 570.5 c 128,-1,41
 273 555 273 555 273 530 c 0,42,43
 273 504 273 504 257 486.5 c 128,-1,44
 241 469 241 469 215 469 c 256,45,46
 189 469 189 469 173 485.5 c 128,-1,47
 157 502 157 502 157 528 c 256,36,37
EndSplineSet
EndChar

StartChar: Eogonek
Encoding: 280 280 200
Width: 416
Flags: W
LayerCount: 2
Fore
SplineSet
398 -160 m 1,0,1
 380 -176 380 -176 359 -176 c 0,2,3
 302 -176 302 -176 275 -145.5 c 128,-1,4
 248 -115 248 -115 248 -59 c 0,5,6
 248 -45 248 -45 261 -27.5 c 128,-1,7
 274 -10 274 -10 282 0 c 1,8,-1
 23 0 l 1,9,-1
 23 693 l 1,10,-1
 389 693 l 1,11,-1
 389 608 l 1,12,-1
 115 608 l 1,13,-1
 115 412 l 1,14,-1
 311 412 l 1,15,-1
 311 329 l 1,16,-1
 115 329 l 1,17,-1
 115 82 l 1,18,-1
 398 82 l 1,19,-1
 398 0 l 1,20,-1
 334 0 l 1,21,22
 330 -5 330 -5 324 -12 c 128,-1,23
 318 -19 318 -19 312.5 -27 c 128,-1,24
 307 -35 307 -35 303 -43 c 128,-1,25
 299 -51 299 -51 299 -57 c 0,26,27
 299 -86 299 -86 315 -99 c 128,-1,28
 331 -112 331 -112 359 -112 c 0,29,30
 370 -112 370 -112 380 -110 c 128,-1,31
 390 -108 390 -108 398 -102 c 1,32,-1
 398 -160 l 1,0,1
EndSplineSet
EndChar

StartChar: eogonek
Encoding: 281 281 201
Width: 436
Flags: W
LayerCount: 2
Fore
SplineSet
410 -160 m 1,0,1
 392 -176 392 -176 371 -176 c 0,2,3
 314 -176 314 -176 287 -145.5 c 128,-1,4
 260 -115 260 -115 260 -59 c 0,5,6
 260 -31 260 -31 271 -3 c 1,7,8
 244 -10 244 -10 212 -10 c 0,9,10
 165 -10 165 -10 128 6 c 128,-1,11
 91 22 91 22 65.5 50.5 c 128,-1,12
 40 79 40 79 26 118 c 128,-1,13
 12 157 12 157 12 202 c 256,14,15
 12 247 12 247 26.5 286.5 c 128,-1,16
 41 326 41 326 67 355.5 c 128,-1,17
 93 385 93 385 130.5 402 c 128,-1,18
 168 419 168 419 215 419 c 0,19,20
 257 419 257 419 291 402.5 c 128,-1,21
 325 386 325 386 348.5 358.5 c 128,-1,22
 372 331 372 331 385 294.5 c 128,-1,23
 398 258 398 258 398 219 c 0,24,25
 398 205 398 205 397 192 c 128,-1,26
 396 179 396 179 394 165 c 1,27,-1
 94 165 l 1,28,29
 105 117 105 117 136.5 93.5 c 128,-1,30
 168 70 168 70 217 70 c 0,31,32
 244 70 244 70 268.5 82 c 128,-1,33
 293 94 293 94 312 113 c 1,34,-1
 366 59 l 1,35,36
 353 42 353 42 342.5 31 c 128,-1,37
 332 20 332 20 325 8.5 c 128,-1,38
 318 -3 318 -3 314.5 -18 c 128,-1,39
 311 -33 311 -33 311 -57 c 0,40,41
 311 -86 311 -86 327 -99 c 128,-1,42
 343 -112 343 -112 371 -112 c 0,43,44
 382 -112 382 -112 392 -110 c 128,-1,45
 402 -108 402 -108 410 -102 c 1,46,-1
 410 -160 l 1,0,1
326 245 m 1,47,48
 318 290 318 290 290 316 c 128,-1,49
 262 342 262 342 214 342 c 256,50,51
 166 342 166 342 137 316 c 128,-1,52
 108 290 108 290 96 245 c 1,53,-1
 326 245 l 1,47,48
EndSplineSet
EndChar

StartChar: Ecaron
Encoding: 282 282 202
Width: 417
Flags: W
LayerCount: 2
Fore
SplineSet
30 693 m 1,0,-1
 396 693 l 1,1,-1
 396 608 l 1,2,-1
 122 608 l 1,3,-1
 122 412 l 1,4,-1
 318 412 l 1,5,-1
 318 329 l 1,6,-1
 122 329 l 1,7,-1
 122 82 l 1,8,-1
 405 82 l 1,9,-1
 405 0 l 1,10,-1
 30 0 l 1,11,-1
 30 693 l 1,12,-1
 30 693 l 1,0,-1
224 746 m 1,13,-1
 72 950 l 1,14,-1
 152 950 l 1,15,-1
 223 859 l 1,16,-1
 288 950 l 1,17,-1
 363 950 l 1,18,-1
 224 746 l 1,19,-1
 224 746 l 1,13,-1
EndSplineSet
EndChar

StartChar: ecaron
Encoding: 283 283 203
Width: 428
Flags: W
LayerCount: 2
Fore
SplineSet
104 165 m 1,0,1
 115 116 115 116 146.5 93 c 128,-1,2
 178 70 178 70 227 70 c 0,3,4
 254 70 254 70 278.5 82 c 128,-1,5
 303 94 303 94 322 113 c 1,6,-1
 376 59 l 1,7,8
 347 22 347 22 307.5 6 c 128,-1,9
 268 -10 268 -10 222 -10 c 256,10,11
 176 -10 176 -10 139 6 c 128,-1,12
 102 22 102 22 76 50.5 c 128,-1,13
 50 79 50 79 36 118 c 128,-1,14
 22 157 22 157 22 202 c 256,15,16
 22 247 22 247 36.5 286.5 c 128,-1,17
 51 326 51 326 77 355.5 c 128,-1,18
 103 385 103 385 140.5 402 c 128,-1,19
 178 419 178 419 225 419 c 0,20,21
 267 419 267 419 300.5 402.5 c 128,-1,22
 334 386 334 386 358 358.5 c 128,-1,23
 382 331 382 331 395 294.5 c 128,-1,24
 408 258 408 258 408 219 c 0,25,26
 408 205 408 205 407 192 c 128,-1,27
 406 179 406 179 404 165 c 1,28,-1
 104 165 l 1,0,1
336 245 m 1,29,30
 328 290 328 290 300 316 c 128,-1,31
 272 342 272 342 224 342 c 256,32,33
 176 342 176 342 147 316 c 128,-1,34
 118 290 118 290 106 245 c 1,35,-1
 336 245 l 1,29,30
219 482 m 1,36,-1
 67 686 l 1,37,-1
 147 686 l 1,38,-1
 218 595 l 1,39,-1
 283 686 l 1,40,-1
 358 686 l 1,41,-1
 219 482 l 1,36,-1
EndSplineSet
EndChar

StartChar: Gcircumflex
Encoding: 284 284 204
Width: 669
GlyphClass: 2
Flags: W
LayerCount: 2
Fore
SplineSet
650 363 m 1,0,-1
 650 116 l 1,1,2
 623 78 623 78 590.5 53 c 128,-1,3
 558 28 558 28 521 13.5 c 128,-1,4
 484 -1 484 -1 442.5 -7 c 128,-1,5
 401 -13 401 -13 356 -13 c 0,6,7
 277 -13 277 -13 214 15 c 128,-1,8
 151 43 151 43 107.5 92 c 128,-1,9
 64 141 64 141 40.5 207.5 c 128,-1,10
 17 274 17 274 17 350 c 0,11,12
 17 420 17 420 47 486 c 128,-1,13
 77 552 77 552 127.5 603 c 128,-1,14
 178 654 178 654 243 684.5 c 128,-1,15
 308 715 308 715 379 715 c 0,16,17
 442 715 442 715 502.5 696 c 128,-1,18
 563 677 563 677 611 633 c 1,19,-1
 549 571 l 1,20,-1
 548 571 l 1,21,-1
 548 572 l 1,22,23
 516 605 516 605 472 616.5 c 128,-1,24
 428 628 428 628 383 628 c 0,25,26
 326 628 326 628 276 605.5 c 128,-1,27
 226 583 226 583 188.5 544.5 c 128,-1,28
 151 506 151 506 129 455 c 128,-1,29
 107 404 107 404 107 348 c 0,30,31
 107 291 107 291 124.5 241.5 c 128,-1,32
 142 192 142 192 174 155.5 c 128,-1,33
 206 119 206 119 252.5 97.5 c 128,-1,34
 299 76 299 76 358 76 c 0,35,36
 395 76 395 76 419 78.5 c 128,-1,37
 443 81 443 81 463 87.5 c 128,-1,38
 483 94 483 94 504.5 105.5 c 128,-1,39
 526 117 526 117 558 135 c 1,40,-1
 557 274 l 1,41,-1
 423 274 l 1,42,-1
 421 276 l 1,43,-1
 421 363 l 1,44,-1
 425 364 l 1,45,46
 482 364 482 364 537.5 363.5 c 128,-1,47
 593 363 593 363 650 363 c 1,0,-1
505 756 m 1,48,-1
 430 756 l 1,49,-1
 365 847 l 1,50,-1
 294 756 l 1,51,-1
 214 756 l 1,52,-1
 366 960 l 1,53,-1
 505 756 l 1,48,-1
EndSplineSet
EndChar

StartChar: gcircumflex
Encoding: 285 285 205
Width: 417
GlyphClass: 2
Flags: W
LayerCount: 2
Fore
SplineSet
100 216 m 0,0,1
 100 190 100 190 105 167 c 128,-1,2
 110 144 110 144 122 127 c 128,-1,3
 134 110 134 110 153.5 100 c 128,-1,4
 173 90 173 90 202 90 c 0,5,6
 257 90 257 90 280.5 121 c 128,-1,7
 304 152 304 152 304 204 c 0,8,9
 304 229 304 229 300 253 c 128,-1,10
 296 277 296 277 285.5 296 c 128,-1,11
 275 315 275 315 256 326.5 c 128,-1,12
 237 338 237 338 208 338 c 0,13,14
 149 338 149 338 124.5 304.5 c 128,-1,15
 100 271 100 271 100 216 c 0,0,1
392 0 m 2,16,17
 392 -93 392 -93 339.5 -147 c 128,-1,18
 287 -201 287 -201 193 -201 c 0,19,20
 163 -201 163 -201 141.5 -197.5 c 128,-1,21
 120 -194 120 -194 101 -186.5 c 128,-1,22
 82 -179 82 -179 63.5 -167.5 c 128,-1,23
 45 -156 45 -156 20 -141 c 1,24,-1
 56 -73 l 1,25,26
 69 -80 69 -80 87 -88.5 c 128,-1,27
 105 -97 105 -97 123.5 -104.5 c 128,-1,28
 142 -112 142 -112 161 -117 c 128,-1,29
 180 -122 180 -122 195 -122 c 0,30,31
 240 -122 240 -122 270.5 -103 c 128,-1,32
 301 -84 301 -84 301 -34 c 2,33,-1
 301 55 l 1,34,35
 294 41 294 41 282.5 32.5 c 128,-1,36
 271 24 271 24 257.5 19 c 128,-1,37
 244 14 244 14 229 12.5 c 128,-1,38
 214 11 214 11 200 11 c 0,39,40
 151 11 151 11 116.5 25.5 c 128,-1,41
 82 40 82 40 60 67 c 128,-1,42
 38 94 38 94 28 131.5 c 128,-1,43
 18 169 18 169 18 215 c 0,44,45
 18 312 18 312 63 366 c 128,-1,46
 108 420 108 420 209 420 c 0,47,48
 238 420 238 420 260.5 401 c 128,-1,49
 283 382 283 382 298 359 c 1,50,-1
 298 403 l 1,51,-1
 392 403 l 1,52,-1
 392 0 l 2,16,17
360 481 m 1,53,-1
 285 481 l 1,54,-1
 220 572 l 1,55,-1
 149 481 l 1,56,-1
 69 481 l 1,57,-1
 221 685 l 1,58,-1
 360 481 l 1,53,-1
EndSplineSet
EndChar

StartChar: Gbreve
Encoding: 286 286 206
Width: 674
Flags: W
LayerCount: 2
Fore
SplineSet
652 363 m 1,0,-1
 652 116 l 1,1,2
 625 78 625 78 592.5 53 c 128,-1,3
 560 28 560 28 523 13.5 c 128,-1,4
 486 -1 486 -1 444.5 -7 c 128,-1,5
 403 -13 403 -13 358 -13 c 0,6,7
 279 -13 279 -13 216 15 c 128,-1,8
 153 43 153 43 109.5 92 c 128,-1,9
 66 141 66 141 42.5 207.5 c 128,-1,10
 19 274 19 274 19 350 c 0,11,12
 19 420 19 420 49 486 c 128,-1,13
 79 552 79 552 129.5 603 c 128,-1,14
 180 654 180 654 245 684.5 c 128,-1,15
 310 715 310 715 381 715 c 0,16,17
 444 715 444 715 504.5 696 c 128,-1,18
 565 677 565 677 613 633 c 1,19,-1
 551 571 l 1,20,-1
 550 571 l 1,21,-1
 550 572 l 1,22,23
 518 605 518 605 474 616.5 c 128,-1,24
 430 628 430 628 385 628 c 0,25,26
 328 628 328 628 278 605.5 c 128,-1,27
 228 583 228 583 190.5 544.5 c 128,-1,28
 153 506 153 506 131 455 c 128,-1,29
 109 404 109 404 109 348 c 0,30,31
 109 291 109 291 126.5 241.5 c 128,-1,32
 144 192 144 192 176 155.5 c 128,-1,33
 208 119 208 119 254.5 97.5 c 128,-1,34
 301 76 301 76 360 76 c 0,35,36
 397 76 397 76 421 78.5 c 128,-1,37
 445 81 445 81 465 87.5 c 128,-1,38
 485 94 485 94 506.5 105.5 c 128,-1,39
 528 117 528 117 560 135 c 1,40,-1
 559 274 l 1,41,-1
 425 274 l 1,42,-1
 423 276 l 1,43,-1
 423 363 l 1,44,-1
 427 364 l 1,45,46
 484 364 484 364 539.5 363.5 c 128,-1,47
 595 363 595 363 652 363 c 1,0,-1
517 900 m 1,48,49
 512 870 512 870 500.5 843.5 c 128,-1,50
 489 817 489 817 470.5 797.5 c 128,-1,51
 452 778 452 778 426.5 766.5 c 128,-1,52
 401 755 401 755 368 755 c 0,53,54
 303 755 303 755 267.5 795 c 128,-1,55
 232 835 232 835 222 895 c 1,56,-1
 280 895 l 1,57,58
 284 860 284 860 308 836.5 c 128,-1,59
 332 813 332 813 368 813 c 0,60,61
 408 813 408 813 432 837.5 c 128,-1,62
 456 862 456 862 462 900 c 1,63,-1
 517 900 l 1,48,49
EndSplineSet
EndChar

StartChar: gbreve
Encoding: 287 287 207
Width: 427
Flags: W
LayerCount: 2
Fore
SplineSet
106 216 m 0,0,1
 106 190 106 190 111 167 c 128,-1,2
 116 144 116 144 128 127 c 128,-1,3
 140 110 140 110 159.5 100 c 128,-1,4
 179 90 179 90 208 90 c 0,5,6
 263 90 263 90 286.5 121 c 128,-1,7
 310 152 310 152 310 204 c 0,8,9
 310 229 310 229 306 253 c 128,-1,10
 302 277 302 277 291.5 296 c 128,-1,11
 281 315 281 315 262 326.5 c 128,-1,12
 243 338 243 338 214 338 c 0,13,14
 155 338 155 338 130.5 304.5 c 128,-1,15
 106 271 106 271 106 216 c 0,0,1
398 0 m 2,16,17
 398 -93 398 -93 345.5 -147 c 128,-1,18
 293 -201 293 -201 199 -201 c 0,19,20
 169 -201 169 -201 147.5 -197.5 c 128,-1,21
 126 -194 126 -194 107 -186.5 c 128,-1,22
 88 -179 88 -179 69.5 -167.5 c 128,-1,23
 51 -156 51 -156 26 -141 c 1,24,-1
 62 -73 l 1,25,26
 75 -80 75 -80 93 -88.5 c 128,-1,27
 111 -97 111 -97 129.5 -104.5 c 128,-1,28
 148 -112 148 -112 167 -117 c 128,-1,29
 186 -122 186 -122 201 -122 c 0,30,31
 246 -122 246 -122 276.5 -103 c 128,-1,32
 307 -84 307 -84 307 -34 c 2,33,-1
 307 55 l 1,34,35
 300 41 300 41 288.5 32.5 c 128,-1,36
 277 24 277 24 263.5 19 c 128,-1,37
 250 14 250 14 235 12.5 c 128,-1,38
 220 11 220 11 206 11 c 0,39,40
 157 11 157 11 122.5 25.5 c 128,-1,41
 88 40 88 40 66 67 c 128,-1,42
 44 94 44 94 34 131.5 c 128,-1,43
 24 169 24 169 24 215 c 0,44,45
 24 312 24 312 69 366 c 128,-1,46
 114 420 114 420 215 420 c 0,47,48
 244 420 244 420 266.5 401 c 128,-1,49
 289 382 289 382 304 359 c 1,50,-1
 304 403 l 1,51,-1
 398 403 l 1,52,-1
 398 0 l 2,16,17
361 636 m 1,53,54
 356 606 356 606 344.5 579.5 c 128,-1,55
 333 553 333 553 314.5 533.5 c 128,-1,56
 296 514 296 514 270.5 502.5 c 128,-1,57
 245 491 245 491 212 491 c 0,58,59
 147 491 147 491 111.5 531 c 128,-1,60
 76 571 76 571 66 631 c 1,61,-1
 124 631 l 1,62,63
 128 596 128 596 152 572.5 c 128,-1,64
 176 549 176 549 212 549 c 0,65,66
 252 549 252 549 276 573.5 c 128,-1,67
 300 598 300 598 306 636 c 1,68,-1
 361 636 l 1,53,54
EndSplineSet
EndChar

StartChar: Gdotaccent
Encoding: 288 288 208
Width: 666
GlyphClass: 2
Flags: W
LayerCount: 2
Fore
SplineSet
649 363 m 1,0,-1
 649 116 l 1,1,2
 622 78 622 78 589.5 53 c 128,-1,3
 557 28 557 28 520 13.5 c 128,-1,4
 483 -1 483 -1 441.5 -7 c 128,-1,5
 400 -13 400 -13 355 -13 c 0,6,7
 276 -13 276 -13 213 15 c 128,-1,8
 150 43 150 43 106.5 92 c 128,-1,9
 63 141 63 141 39.5 207.5 c 128,-1,10
 16 274 16 274 16 350 c 0,11,12
 16 420 16 420 46 486 c 128,-1,13
 76 552 76 552 126.5 603 c 128,-1,14
 177 654 177 654 242 684.5 c 128,-1,15
 307 715 307 715 378 715 c 0,16,17
 441 715 441 715 501.5 696 c 128,-1,18
 562 677 562 677 610 633 c 1,19,-1
 548 571 l 1,20,-1
 547 571 l 1,21,-1
 547 572 l 1,22,23
 515 605 515 605 471 616.5 c 128,-1,24
 427 628 427 628 382 628 c 0,25,26
 325 628 325 628 275 605.5 c 128,-1,27
 225 583 225 583 187.5 544.5 c 128,-1,28
 150 506 150 506 128 455 c 128,-1,29
 106 404 106 404 106 348 c 0,30,31
 106 291 106 291 123.5 241.5 c 128,-1,32
 141 192 141 192 173 155.5 c 128,-1,33
 205 119 205 119 251.5 97.5 c 128,-1,34
 298 76 298 76 357 76 c 0,35,36
 394 76 394 76 418 78.5 c 128,-1,37
 442 81 442 81 462 87.5 c 128,-1,38
 482 94 482 94 503.5 105.5 c 128,-1,39
 525 117 525 117 557 135 c 1,40,-1
 556 274 l 1,41,-1
 422 274 l 1,42,-1
 420 276 l 1,43,-1
 420 363 l 1,44,-1
 424 364 l 1,45,46
 481 364 481 364 536.5 363.5 c 128,-1,47
 592 363 592 363 649 363 c 1,0,-1
329 840 m 256,48,49
 329 866 329 866 345.5 882 c 128,-1,50
 362 898 362 898 388 898 c 0,51,52
 412 898 412 898 428.5 882.5 c 128,-1,53
 445 867 445 867 445 842 c 0,54,55
 445 816 445 816 429 798.5 c 128,-1,56
 413 781 413 781 387 781 c 256,57,58
 361 781 361 781 345 797.5 c 128,-1,59
 329 814 329 814 329 840 c 256,48,49
EndSplineSet
EndChar

StartChar: gdotaccent
Encoding: 289 289 209
Width: 415
GlyphClass: 2
Flags: W
LayerCount: 2
Fore
SplineSet
99 216 m 0,0,1
 99 190 99 190 104 167 c 128,-1,2
 109 144 109 144 121 127 c 128,-1,3
 133 110 133 110 152.5 100 c 128,-1,4
 172 90 172 90 201 90 c 0,5,6
 256 90 256 90 279.5 121 c 128,-1,7
 303 152 303 152 303 204 c 0,8,9
 303 229 303 229 299 253 c 128,-1,10
 295 277 295 277 284.5 296 c 128,-1,11
 274 315 274 315 255 326.5 c 128,-1,12
 236 338 236 338 207 338 c 0,13,14
 148 338 148 338 123.5 304.5 c 128,-1,15
 99 271 99 271 99 216 c 0,0,1
391 0 m 2,16,17
 391 -93 391 -93 338.5 -147 c 128,-1,18
 286 -201 286 -201 192 -201 c 0,19,20
 162 -201 162 -201 140.5 -197.5 c 128,-1,21
 119 -194 119 -194 100 -186.5 c 128,-1,22
 81 -179 81 -179 62.5 -167.5 c 128,-1,23
 44 -156 44 -156 19 -141 c 1,24,-1
 55 -73 l 1,25,26
 68 -80 68 -80 86 -88.5 c 128,-1,27
 104 -97 104 -97 122.5 -104.5 c 128,-1,28
 141 -112 141 -112 160 -117 c 128,-1,29
 179 -122 179 -122 194 -122 c 0,30,31
 239 -122 239 -122 269.5 -103 c 128,-1,32
 300 -84 300 -84 300 -34 c 2,33,-1
 300 55 l 1,34,35
 293 41 293 41 281.5 32.5 c 128,-1,36
 270 24 270 24 256.5 19 c 128,-1,37
 243 14 243 14 228 12.5 c 128,-1,38
 213 11 213 11 199 11 c 0,39,40
 150 11 150 11 115.5 25.5 c 128,-1,41
 81 40 81 40 59 67 c 128,-1,42
 37 94 37 94 27 131.5 c 128,-1,43
 17 169 17 169 17 215 c 0,44,45
 17 312 17 312 62 366 c 128,-1,46
 107 420 107 420 208 420 c 0,47,48
 237 420 237 420 259.5 401 c 128,-1,49
 282 382 282 382 297 359 c 1,50,-1
 297 403 l 1,51,-1
 391 403 l 1,52,-1
 391 0 l 2,16,17
165 554 m 256,53,54
 165 580 165 580 181.5 596 c 128,-1,55
 198 612 198 612 224 612 c 0,56,57
 248 612 248 612 264.5 596.5 c 128,-1,58
 281 581 281 581 281 556 c 0,59,60
 281 530 281 530 265 512.5 c 128,-1,61
 249 495 249 495 223 495 c 256,62,63
 197 495 197 495 181 511.5 c 128,-1,64
 165 528 165 528 165 554 c 256,53,54
EndSplineSet
EndChar

StartChar: Gcommaaccent
Encoding: 290 290 210
Width: 667
Flags: W
LayerCount: 2
Fore
SplineSet
649 363 m 1,0,-1
 649 116 l 1,1,2
 622 78 622 78 589.5 53 c 128,-1,3
 557 28 557 28 520 13.5 c 128,-1,4
 483 -1 483 -1 441.5 -7 c 128,-1,5
 400 -13 400 -13 355 -13 c 0,6,7
 276 -13 276 -13 213 15 c 128,-1,8
 150 43 150 43 106.5 92 c 128,-1,9
 63 141 63 141 39.5 207.5 c 128,-1,10
 16 274 16 274 16 350 c 0,11,12
 16 420 16 420 46 486 c 128,-1,13
 76 552 76 552 126.5 603 c 128,-1,14
 177 654 177 654 242 684.5 c 128,-1,15
 307 715 307 715 378 715 c 0,16,17
 441 715 441 715 501.5 696 c 128,-1,18
 562 677 562 677 610 633 c 1,19,-1
 548 571 l 1,20,-1
 547 571 l 1,21,-1
 547 572 l 1,22,23
 515 605 515 605 471 616.5 c 128,-1,24
 427 628 427 628 382 628 c 0,25,26
 325 628 325 628 275 605.5 c 128,-1,27
 225 583 225 583 187.5 544.5 c 128,-1,28
 150 506 150 506 128 455 c 128,-1,29
 106 404 106 404 106 348 c 0,30,31
 106 291 106 291 123.5 241.5 c 128,-1,32
 141 192 141 192 173 155.5 c 128,-1,33
 205 119 205 119 251.5 97.5 c 128,-1,34
 298 76 298 76 357 76 c 0,35,36
 394 76 394 76 418 78.5 c 128,-1,37
 442 81 442 81 462 87.5 c 128,-1,38
 482 94 482 94 503.5 105.5 c 128,-1,39
 525 117 525 117 557 135 c 1,40,-1
 556 274 l 1,41,-1
 422 274 l 1,42,-1
 420 276 l 1,43,-1
 420 363 l 1,44,-1
 424 364 l 1,45,46
 481 364 481 364 536.5 363.5 c 128,-1,47
 592 363 592 363 649 363 c 1,0,-1
311 -92 m 0,48,49
 311 -67 311 -67 327.5 -51 c 128,-1,50
 344 -35 344 -35 368 -35 c 0,51,52
 394 -35 394 -35 409.5 -52 c 128,-1,53
 425 -69 425 -69 425 -95 c 0,54,55
 425 -116 425 -116 416.5 -134 c 128,-1,56
 408 -152 408 -152 394 -167 c 128,-1,57
 380 -182 380 -182 363 -194 c 128,-1,58
 346 -206 346 -206 330 -215 c 1,59,60
 340 -203 340 -203 351.5 -180 c 128,-1,61
 363 -157 363 -157 363 -141 c 0,62,63
 363 -133 363 -133 356.5 -133.5 c 128,-1,64
 350 -134 350 -134 345 -134 c 0,65,66
 329 -134 329 -134 320 -120 c 128,-1,67
 311 -106 311 -106 311 -92 c 0,48,49
EndSplineSet
EndChar

